<svg xmlns="http://www.w3.org/2000/svg" width="56" height="56" viewBox="0 0 56 56">
    <g fill="none" fill-rule="evenodd">
        <g>
            <g transform="translate(-43 -490) translate(43 490)">
                <rect width="56" height="56" fill="#FFF" rx="24.745"/>
                <g fill="#4FB4A2" fill-rule="nonzero">
                    <g transform="translate(7 7) translate(2.21 5.526)">
                        <path d="M23.482.512L13.32 6.148c-.29.124-.604.188-.92.188H2.656C1.42 6.336.418 7.338.418 8.573v10.361c-.003.593.23 1.162.649 1.582.418.42.986.656 1.578.656h2.666l2.802 9.577c.075.479.337.909.73 1.193.393.285.883.4 1.361.323h.283c.479-.075.908-.337 1.193-.73.285-.393.4-.883.323-1.361l-2.708-8.96h3.136c.312.002.62.062.91.177l10.173 5.583c.698.307 1.505.237 2.14-.187.635-.423 1.01-1.14.996-1.904V2.551c.002-.762-.385-1.473-1.026-1.885-.641-.413-1.448-.47-2.142-.154z"/>
                        <rect width="8.741" height="2.394" x="29.923" y="12.348" rx="1.197"/>
                        <path d="M30.498 20.91l6.095 3.346c.25.13.546.141.806.03.259-.112.454-.334.532-.605.245-.576.042-1.245-.48-1.59l-6.085-3.366c-.25-.13-.546-.14-.806-.03-.26.112-.455.334-.533.605-.258.58-.059 1.261.47 1.61zM30.498 6.19l6.095-3.367c.252-.13.549-.14.809-.026.26.114.454.338.53.611.244.577.041 1.245-.482 1.59l-6.084 3.366c-.25.13-.546.141-.806.03-.26-.112-.455-.334-.533-.605-.248-.577-.05-1.249.47-1.6z"/>
                    </g>
                </g>
            </g>
        </g>
    </g>
</svg>
