<svg xmlns="http://www.w3.org/2000/svg" width="56" height="56" viewBox="0 0 56 56">
    <g fill="none" fill-rule="evenodd">
        <g>
            <g transform="translate(-261 -617) translate(261 617)">
                <rect width="56" height="56" fill="#FFF" rx="24.745"/>
                <g fill="#4FB4A2" fill-rule="nonzero">
                    <g>
                        <path d="M28.287 30.755h-14.5c-.702 0-1.375-.28-1.872-.775-.496-.497-.774-1.17-.774-1.872V3.15c0-1.461 1.184-2.646 2.646-2.646h14.5c.702 0 1.375.279 1.871.775s.775 1.17.775 1.871v24.959c0 1.46-1.185 2.645-2.646 2.645zM39.774 8.4l-7.35-2.426v22.68c0 .772-.337 1.505-.924 2.006l.724.241c.666.223 1.393.173 2.021-.14.628-.314 1.106-.863 1.329-1.529l5.838-17.493c.46-1.374-.27-2.862-1.638-3.339zM9.597 28.644V5.933L2.247 8.39c-.666.222-1.215.7-1.529 1.328-.313.629-.363 1.355-.14 2.021l5.838 17.493c.464 1.386 1.96 2.137 3.349 1.68l.787-.262c-.592-.5-.94-1.231-.955-2.006z" transform="translate(7 7) translate(0 5.526)"/>
                    </g>
                </g>
            </g>
        </g>
    </g>
</svg>
