<?xml version="1.0" encoding="UTF-8"?>
<svg width="328px" height="556px" viewBox="0 0 328 556" version="1.1" xmlns="http://www.w3.org/2000/svg" xmlns:xlink="http://www.w3.org/1999/xlink">
    <title>Slice</title>
    <g id="-page1" stroke="none" stroke-width="1" fill="none" fill-rule="evenodd">
        <path d="M64,46.9014085 L64,43 C64,19.2517558 83.2517558,4.36248169e-15 107,0 L296,0 C313.673112,-1.89433747e-14 328,14.326888 328,32 L328,74 L328,74 L328,524 C328,541.673112 313.673112,556 296,556 L32,556 C14.326888,556 2.164332e-15,541.673112 0,524 L0,106 C-2.164332e-15,88.326888 14.326888,74 32,74 L36.9014085,74 C51.8675473,74 64,61.8675473 64,46.9014085 Z" id="Combined-Shape-Copy" fill="#FFFFFF"></path>
        <rect id="Rectangle-Copy-4" fill="#F3F3F3" fill-rule="nonzero" x="16" y="94" width="296" height="161" rx="32"></rect>
        <path d="M48,275 L280,275 C297.673112,275 312,289.326888 312,307 L312,458 C312,466.836556 304.836556,474 296,474 L227.697638,474 C218.901655,474 210.493501,470.379341 204.449296,463.988965 C194.367408,453.329655 180.884309,448 164,448 C147.115692,448 133.632593,453.329655 123.550705,463.988964 C117.506501,470.379341 109.098346,474 100.302363,474 L32,474 C23.163444,474 16,466.836556 16,458 L16,307 C16,289.326888 30.326888,275 48,275 Z" id="Rectangle-Copy-5" fill="#F3F3F3" fill-rule="nonzero"></path>
    </g>
</svg>