<?xml version="1.0" encoding="UTF-8"?>
<svg width="328px" height="555px" viewBox="0 0 328 555" version="1.1" xmlns="http://www.w3.org/2000/svg" xmlns:xlink="http://www.w3.org/1999/xlink">
    <title>homebg</title>
    <g id="-page1" stroke="none" stroke-width="1" fill="none" fill-rule="evenodd">
        <g id="home" transform="translate(-16.000000, -167.000000)">
            <g id="homebg" transform="translate(16.000000, 167.000000)">
                <g id="Layer_1" transform="translate(0.000000, 109.000000)">
                    <path d="M43,-1.13686838e-13 L285,-1.13686838e-13 C308.748244,-1.18049319e-13 328,19.2517558 328,43 L328,414 C328,431.673112 313.673112,446 296,446 L32,446 C14.326888,446 2.164332e-15,431.673112 0,414 L0,43 C-2.90832113e-15,19.2517558 19.2517558,-1.09324356e-13 43,-1.13686838e-13 Z" id="Rectangle" fill="#4FB4A2" fill-rule="nonzero"></path>
                    <path d="M283.042228,5 C292.434887,5 301.099827,8.198 308.055472,13.5973333 C309.883233,15.01 308.876272,18 306.591571,18 L20.8685614,18 C18.5838604,18 18.41661,15.01 20.2443708,13.5973333 C27.200016,8.198 35.0252455,5 44.417905,5 L283.042228,5 Z" id="Combined-Shape" fill-opacity="0.600497159" fill="#369A88"></path>
                </g>
                <g id="Layer_2" transform="translate(16.000000, -0.000000)" fill-rule="nonzero">
                    <path d="M128.827308,71.1528554 C128.827308,71.1528554 120.545256,77.1249374 116.56159,103.425227 C113.667097,103.962348 111.712442,106.680694 112.130692,109.587292 L122.350744,109.587292 C122.350744,109.587292 123.394282,109.859877 123.717282,104.028217 C123.717282,104.028217 129.24141,89.7712134 129.895692,81.5606332 C130.549974,73.3500529 128.827308,71.1528554 128.827308,71.1528554 Z" id="Path" fill="#AD6346"></path>
                    <path d="M116.545026,103.425227 C116.545026,103.425227 111.815974,104.077778 112.114128,109.587292 L122.334179,109.587292 C122.334179,109.587292 123.029872,109.694674 123.493667,106.630161 L123.493667,103.425227 L116.545026,103.425227 Z" id="Path" fill="#4A3131"></path>
                    <path d="M171.272821,71.1528554 C171.272821,71.1528554 179.554872,77.1249374 183.538538,103.425227 C186.433032,103.962348 188.387686,106.680694 187.969436,109.587292 L177.749385,109.587292 C177.749385,109.587292 176.705846,109.859877 176.382846,104.028217 C176.382846,104.028217 170.858718,89.7712134 170.204436,81.5606332 C169.550154,73.3500529 171.272821,71.1528554 171.272821,71.1528554 Z" id="Path" fill="#AD6346"></path>
                    <path d="M183.538538,103.425227 C183.538538,103.425227 188.26759,104.077778 187.969436,109.587292 L177.749385,109.587292 C177.749385,109.587292 177.053692,109.694674 176.598179,106.630161 L176.598179,103.425227 L183.538538,103.425227 Z" id="Path" fill="#4A3131"></path>
                    <path d="M124.686282,81.8166975 C123.231142,88.8835511 122.150217,96.0219409 121.448,103.202203 C121.448,103.202203 118.491308,109.587508 120.421026,109.587508 L122.350744,109.587508 C122.350744,109.587508 123.468821,109.711194 123.717282,104.028217 C123.965744,98.3452399 124.686282,81.8166975 124.686282,81.8166975 Z" id="Path" fill="#370C21" opacity="0.32"></path>
                    <path d="M175.480103,81.8166975 C176.935001,88.8832499 178.013181,96.0217729 178.710103,103.202203 C178.710103,103.202203 181.675077,109.587508 179.737077,109.587508 L177.815641,109.587508 C177.815641,109.587508 176.697564,109.711194 176.449103,104.028217 C176.200641,98.3452399 175.480103,81.8166975 175.480103,81.8166975 Z" id="Path" fill="#370C21" opacity="0.32"></path>
                    <path d="M42.6028718,60.9681014 C42.6028718,60.9681014 47.2739487,88.6560944 22.5851538,78.4961208 C1.38310256,69.7734118 -0.861333333,53.5422346 4.30666667,49.585627 C12.5887179,43.3079198 23.5210256,59.1508704 29.2107949,60.4064118 C37.9980513,62.3805855 42.6028718,60.9681014 42.6028718,60.9681014 Z" id="Path" fill="#1D1D1B"></path>
                    <ellipse id="Oval" fill="#282828" transform="translate(8.765651, 54.845394) rotate(-60.000000) translate(-8.765651, -54.845394) " cx="8.76565146" cy="54.8453939" rx="3.57901579" ry="3.94792786"></ellipse>
                    <path d="M2.67510256,54.8473369 C2.67667631,55.5657864 2.7656688,56.2813902 2.94012821,56.9784533 C2.94012821,56.9784533 0.240179487,57.0940952 0.198769231,56.259821 C0.140794872,55.2190432 2.67510256,54.8473369 2.67510256,54.8473369 Z" id="Path" fill="#5B5B5B"></path>
                    <path d="M3.99194872,51.2128748 C3.55237031,51.7822692 3.18516694,52.4037537 2.89871795,53.0631464 C2.89871795,53.0631464 0.687410256,51.5019797 1.16776923,50.816388 C1.76407692,49.9738536 3.99194872,51.2128748 3.99194872,51.2128748 Z" id="Path" fill="#5B5B5B"></path>
                    <path d="M7.09771795,49.0074171 C6.4357605,49.2949289 5.81251647,49.6640011 5.24253846,50.1060159 C5.24253846,50.1060159 4.05820513,47.6857945 4.80358974,47.305828 C5.73946154,46.8432601 7.09771795,49.0074171 7.09771795,49.0074171 Z" id="Path" fill="#5B5B5B"></path>
                    <path d="M10.8080769,49.5608466 C10.1596183,49.2500716 9.47537833,49.0198209 8.77069231,48.8752549 C8.77069231,48.8752549 9.83907692,46.3972125 10.6093077,46.719358 C11.5948718,47.0828042 10.8080769,49.5608466 10.8080769,49.5608466 Z" id="Path" fill="#5B5B5B"></path>
                    <path d="M67.8631282,111.751449 C119.211846,122.894379 107.534154,82.0975423 97.7696154,46.7276182 C95.8813077,39.9047416 93.2973077,34.9321367 90.4565641,31.2894145 C94.8874615,31.0498704 97.1898718,27.985358 96.9082821,24.4334974 C96.6266923,20.8816367 93.67,18.031888 89.1231538,18.031888 C84.9821282,18.031888 81.6693077,20.4108086 81.1889487,23.5579224 C72.7618203,19.5270683 62.9561541,19.5270683 54.5290256,23.5579224 C54.0321026,20.4108086 50.7192821,18.031888 46.5948205,18.031888 C42.0479744,18.031888 39.0995641,20.7990353 38.8096923,24.4334974 C38.5198205,28.0679594 40.8305128,31.0416102 45.2614103,31.2894145 C42.4206667,34.9321367 39.8366667,39.9047416 37.948359,46.7276182 C28.1838205,82.0975423 12.6549744,124.0921 65.2791282,111.751449 C66.1394849,111.809303 67.0027715,111.809303 67.8631282,111.751449 Z" id="Path" fill="#1D1D1B"></path>
                    <ellipse id="Oval" fill="#FFFFFF" cx="67.8631282" cy="48.9330758" rx="7.94248718" ry="8.96225309"></ellipse>
                    <path d="M70.8612308,40.3425291 C70.9195626,41.449815 70.3604377,42.4988177 69.4075036,43.0699407 C68.4545694,43.6410637 67.263405,43.6410637 66.3104708,43.0699407 C65.3575366,42.4988177 64.7984117,41.449815 64.8567436,40.3425291 C64.8567436,38.6905009 66.1984359,38.4922575 67.8631282,38.4922575 C69.5278205,38.4922575 70.8612308,38.6905009 70.8612308,40.3425291 Z" id="Path" fill="#1D1D1B"></path>
                    <ellipse id="Oval" fill="#FFFFFF" cx="46.5037179" cy="24.6565212" rx="2.83246154" ry="2.42022134"></ellipse>
                    <ellipse id="Oval" fill="#FFFFFF" cx="89.2142564" cy="24.6565212" rx="2.83246154" ry="2.42022134"></ellipse>
                    <ellipse id="Oval" fill="#FFFFFF" cx="59.6887436" cy="38.3600952" rx="2.84074359" ry="2.8332284"></ellipse>
                    <ellipse id="Oval" fill="#1D1D1B" cx="59.6887436" cy="38.3600952" rx="1.97112821" ry="1.96591358"></ellipse>
                    <ellipse id="Oval" fill="#FFFFFF" cx="76.0375128" cy="38.3600952" rx="2.84074359" ry="2.8332284"></ellipse>
                    <ellipse id="Oval" fill="#1D1D1B" cx="76.0375128" cy="38.3600952" rx="1.97112821" ry="1.96591358"></ellipse>
                    <ellipse id="Oval" fill="#E7646D" cx="48.5162564" cy="45.430776" rx="3.17202564" ry="3.16363404"></ellipse>
                    <ellipse id="Oval" fill="#E7646D" cx="87.2017179" cy="45.430776" rx="3.17202564" ry="3.16363404"></ellipse>
                    <path d="M70.8860769,48.5118086 C70.8115385,47.950119 69.8259744,47.950119 69.9005128,48.5118086 C69.9391409,48.8191567 69.8903532,49.131145 69.7597179,49.412164 C69.3049148,49.9993629 68.6029496,50.343211 67.8589872,50.343211 C67.1150248,50.343211 66.4130595,49.9993629 65.9582564,49.412164 C65.8276212,49.131145 65.7788334,48.8191567 65.8174615,48.5118086 C65.892,47.950119 64.9064359,47.950119 64.8318974,48.5118086 C64.7893845,49.0052913 64.8961206,49.5001574 65.1383333,49.9325529 C65.80182,50.7531613 66.8020152,51.2302251 67.8589872,51.2302251 C68.9159592,51.2302251 69.9161544,50.7531613 70.579641,49.9325529 C70.8218538,49.5001574 70.9285899,49.0052913 70.8860769,48.5118086 Z" id="Path" fill="#191715"></path>
                    <rect id="Rectangle" fill="#191715" x="67.5732564" y="42.267142" width="1" height="8.5822866"></rect>
                    <path d="M54.9596923,94.785119 C49.9904615,94.0251861 47.3567692,94.487754 44.3006923,98.1304762 C40.4909487,102.681814 37.1532821,116.880996 37.1532821,116.880996 L37.1532821,116.880996 C34.4698974,118.367822 32.6395641,120.5898 32.1840513,123.274346 C31.2978718,129.056444 37.5425385,132.203558 45.8494359,133.47562 C53.2204615,134.598999 59.6887436,134.392496 61.7178462,129.725516 L61.7178462,129.725516 C61.9083333,129.279468 64.6993846,107.819622 63.7469487,101.954922 C63.1920513,98.3452399 60.0200256,95.5533122 54.9596923,94.785119 Z" id="Path" fill="#1D1D1B"></path>
                    <path d="M102.515231,64.4291005 C102.515231,64.4291005 120.164282,80.5446358 103.815513,88.1439656 C87.4667436,95.7432954 73.7516667,91.6462654 73.6522821,84.1956182 C73.5363333,75.0599021 87.8394359,77.8270494 91.7651282,75.2994462 C98.1754359,71.1528554 102.515231,64.4291005 102.515231,64.4291005 Z" id="Path" fill="#1D1D1B"></path>
                    <path d="M175.579487,83.600888 C174.419748,74.6142141 170.842361,66.108285 165.226923,58.9856675 C160.970097,55.4886849 155.493234,53.8244143 150.004513,54.3599885 C144.5157,53.8234903 139.038489,55.4878667 134.782103,58.9856675 C129.261912,66.1646434 125.693179,74.6432127 124.421256,83.600888 C121.315487,107.786581 117.157897,113.543899 149.598692,113.543899 C182.039487,113.543899 178.486487,108.89344 175.579487,83.600888 Z" id="Path" fill="#AD6346"></path>
                    <path d="M150.377205,73.5565564 C140.438744,73.5565564 132.363744,83.9478139 132.363744,96.7758131 C132.276308,102.630054 134.101997,108.353583 137.564872,113.081332 C140.968795,113.403477 145.101538,113.543899 150.120462,113.543899 C155.363,113.543899 159.661385,113.419997 163.181256,113.106112 C166.655723,108.373899 168.487612,102.640465 168.398949,96.7758131 C168.398949,83.9478139 160.332231,73.5565564 150.377205,73.5565564 Z" id="Path" fill="#EED1B6"></path>
                    <path d="M142.600359,97.709209 C135.519205,96.3215053 132.868949,97.6018272 131.634923,100.335934 C129.978513,103.912575 128.322103,115.774138 128.322103,115.774138 L128.322103,115.774138 C126.526354,117.153845 125.41777,119.241628 125.28259,121.498415 C124.992718,126.504061 129.48159,128.932542 135.287308,129.675955 C140.438744,130.320246 144.894487,129.849418 146.053974,125.735868 L146.053974,125.735868 C146.145077,125.215479 150.650513,99.2951561 142.600359,97.709209 Z" id="Path" fill="#AD6346"></path>
                    <path d="M157.358974,97.709209 C164.440128,96.3215053 167.090385,97.6018272 168.32441,100.335934 C169.980821,103.912575 171.637231,115.774138 171.637231,115.774138 L171.637231,115.774138 C173.43298,117.153845 174.541563,119.241628 174.676744,121.498415 C174.966615,126.504061 170.477744,128.932542 164.672026,129.675955 C159.52059,130.320246 155.064846,129.849418 153.905359,125.735868 L153.905359,125.735868 C153.839103,125.215479 149.333667,99.2951561 157.358974,97.709209 Z" id="Path" fill="#AD6346"></path>
                    <path d="M101.322615,60.0842663 C90.6448987,64.8897384 79.4034901,68.3364942 67.8631282,70.3433616 C56.2583813,68.3157936 44.9482659,64.8701464 34.1883077,60.0842663 L33.0039744,64.4291005 C54.0735128,72.8131437 67.8548462,74.0769453 67.8548462,74.0769453 C67.8548462,74.0769453 81.4456923,72.8131437 102.515231,64.4291005 L101.322615,60.0842663 Z" id="Path" fill="#FFFFFF"></path>
                    <path d="M164.431846,58.721343 C163.520821,57.8953289 165.260051,55.5659691 163.769282,55.0373201 C154.774974,51.7745644 149.938256,57.3088589 149.938256,57.3088589 C149.938256,57.3088589 145.101538,51.7745644 136.107231,55.0373201 C134.64959,55.5659691 136.355692,57.8953289 135.444667,58.721343 C130.757026,62.991836 127.377949,66.7171596 129.431897,68.5591711 C131.767436,70.6489868 133.200231,68.0635626 135.146513,70.5250847 C136.802923,72.6149004 138.682949,73.003127 140.728615,73.0774683 C143.04759,73.2013704 144.33959,72.7553228 145.697846,74.3082293 C147.437077,76.282403 148.654538,76.3484841 149.938256,76.3484841 C151.221974,76.3484841 152.422872,76.282403 154.178667,74.3082293 C155.545205,72.7553228 156.837205,73.2013704 159.147897,73.0774683 C161.193564,72.9700864 163.081872,72.6149004 164.73,70.5250847 C166.676282,68.0470423 168.100795,70.6489868 170.436333,68.5591711 C172.498564,66.7171596 169.127769,62.991836 164.431846,58.721343 Z" id="Path" fill="#FFFFFF"></path>
                    <path d="M142.070308,23.3431587 C141.556821,21.2037822 137.854744,17.0819718 137.846462,16.0494541 C137.846462,14.6452302 140.455308,12.935381 140.977077,11.0355485 C141.333205,9.72218607 138.732641,9.76348677 137.863026,11.5724577 C137.175615,13.0097222 137.349538,14.2735238 135.684846,14.0505 C134.227205,13.8522566 130.028205,7.92147531 129.531282,2.36240035 C129.407051,0.883835097 126.624282,-0.660811287 126.591154,1.88331217 C126.591154,4.22919224 129.117179,8.27666138 128.752769,8.85487125 C128.18959,9.73870635 126.756795,8.99529365 125.746385,8.60706702 C122.350744,7.28544444 121.423154,9.19353704 122.971897,9.9699903 C125.108667,11.0520688 127.30341,10.482119 129.357359,11.2750926 C130.599667,11.7624409 133.042872,14.8599938 132.728154,15.4051631 C132.239513,16.2311772 128.255846,16.2311772 126.616,15.6529674 C124.305308,14.8269533 123.402564,17.0489312 125.357128,17.6601817 C128.669949,18.7092196 132.487974,16.9085088 134.740692,17.5362795 C136.802923,18.1062293 138.815462,21.4185459 139.444897,24.0204903 C139.834154,25.6559982 142.451282,24.9621464 142.070308,23.3431587 Z" id="Path" fill="#B4825A"></path>
                    <path d="M157.947,23.3266384 C158.468769,21.1624815 162.212256,16.9993704 162.212256,15.9585926 C162.212256,14.5378483 159.570282,12.8114788 159.048513,10.886866 C158.684103,9.55698325 161.317795,9.59828395 162.195692,11.4320353 C162.891385,12.87756 162.717462,14.166142 164.398718,13.9100776 C165.872923,13.7118342 170.113333,7.71497178 170.618538,2.09807584 C170.751051,0.6029903 173.558667,-0.958176367 173.591795,1.61072751 C173.591795,3.98138801 171.032641,8.07841799 171.405333,8.65662787 C171.976795,9.5487231 173.417872,8.80531041 174.444846,8.40882363 C177.881897,7.07068078 178.809487,8.99529365 177.244179,9.7882672 C175.090846,10.8703457 172.871256,10.3003959 170.792462,11.1098898 C169.53359,11.5972381 167.073821,14.7278316 167.388538,15.2399603 C167.877179,16.0659744 171.910538,16.0659744 173.566949,15.4795044 C175.894205,14.6534903 176.813513,16.8919885 174.842385,17.5114991 C171.47159,18.5770573 167.628718,16.7598263 165.351154,17.387597 C163.272359,17.9658069 161.210128,21.311164 160.597256,23.946149 C160.208,25.6559982 157.549462,24.9621464 157.947,23.3266384 Z" id="Path" fill="#B4825A"></path>
                    <path d="M172.821564,37.2862769 C176.31659,37.5919021 179.240154,37.3358377 181.666795,32.0493474 C184.416436,26.052485 184.441282,21.7406914 181.608821,21.5920088 C174.328897,21.195522 171.55441,25.7881605 169.367949,29.1169974 C168.316128,27.869716 165.682436,26.1763871 163.810692,24.9869268 C163.023897,24.4830582 164.166821,22.5914859 162.982487,22.128918 C161.729316,21.5605967 160.436733,21.0830266 159.114769,20.6999136 C157.367256,20.2373457 156.93659,22.2610802 155.984154,22.4015026 C155.437538,22.4758439 152.721026,21.9471949 149.996231,21.9471949 C147.271436,21.9471949 144.554923,22.4758439 144.01659,22.4015026 C143.055872,22.2610802 142.633487,20.2373457 140.885974,20.6999136 C139.561392,21.0832472 138.266071,21.5608063 137.009974,22.128918 C135.842205,22.5914859 137.009974,24.4830582 136.181769,24.9869268 C134.310026,26.1763871 131.676333,27.869716 130.624513,29.1169974 C128.438051,25.8129409 126.847897,21.2203025 119.567974,21.6085291 C116.735513,21.7654718 116.801769,25.6642584 119.567974,31.6611208 C121.994615,36.9476111 123.709,37.5919021 127.187462,37.2862769 C127.096359,38.0627302 122.913923,67.0723457 149.996231,67.0723457 C177.078538,67.0723457 172.912667,38.0627302 172.821564,37.2862769 Z" id="Path" fill="#EED1B6"></path>
                    <ellipse id="Oval" fill="#E96C77" cx="136.952" cy="55.9128951" rx="3.84287179" ry="3.65098236"></ellipse>
                    <ellipse id="Oval" fill="#FFFFFF" cx="138.335103" cy="47.3884295" rx="2.95669231" ry="2.80844797"></ellipse>
                    <ellipse id="Oval" fill="#402216" cx="138.335103" cy="47.3884295" rx="2.09535897" ry="1.98243386"></ellipse>
                    <ellipse id="Oval" fill="#FFFFFF" cx="161.665641" cy="47.3884295" rx="2.95669231" ry="2.80844797"></ellipse>
                    <ellipse id="Oval" fill="#402216" cx="161.665641" cy="47.3884295" rx="2.09535897" ry="1.98243386"></ellipse>
                    <ellipse id="Oval" fill="#E96C77" cx="163.057026" cy="55.9128951" rx="3.84287179" ry="3.65098236"></ellipse>
                    <path d="M169.359667,28.9104938 C168.307846,27.6632125 165.674154,25.9698836 163.80241,24.7804233 C163.015615,24.2765547 164.158538,22.3849824 162.974205,21.9224145 C161.718108,21.3543028 160.422788,20.8767437 159.098205,20.4934101 C157.358974,20.0308422 156.928308,22.0463166 155.96759,22.1949991 C155.429256,22.2693404 152.712744,21.7406914 149.987949,21.7406914 L149.987949,21.7406914 C147.263154,21.7406914 144.546641,22.2693404 144.008308,22.1949991 C143.04759,22.0463166 142.625205,20.0308422 140.877692,20.4934101 C139.55311,20.8767437 138.257789,21.3543028 137.001692,21.9224145 C135.833923,22.3849824 137.001692,24.2765547 136.173487,24.7804233 C134.301744,25.9698836 131.668051,27.6632125 130.616231,28.9104938 C128.413237,31.0615287 127.168881,34.0049648 127.162615,37.0797734 C127.162615,37.0797734 145.673,36.3281005 148.422641,53.980022 L151.561538,53.980022 C154.311179,36.3281005 172.821564,37.0797734 172.821564,37.0797734 C172.813118,34.0037619 171.565704,31.0601526 169.359667,28.9104938 L169.359667,28.9104938 Z" id="Path" fill="#AD6346"></path>
                    <path d="M152.845256,54.0791437 C152.845256,55.1447019 151.569821,56.375463 150.004513,56.375463 C148.439205,56.375463 147.163769,55.1447019 147.163769,54.0791437 C147.163769,53.0135855 148.430923,52.3692945 150.004513,52.3692945 C151.578103,52.3692945 152.845256,53.0053254 152.845256,54.0791437 Z" id="Path" fill="#4A3131"></path>
                    <path d="M155.131103,57.8209877 C154.351568,58.5331575 153.311348,58.8919363 152.257231,58.8122046 C150.907256,58.6057011 150.47659,57.4245009 150.443462,56.2763413 C150.448183,56.2351748 150.448183,56.1936057 150.443462,56.1524392 C150.386909,55.9794817 150.219597,55.8671 150.037641,55.8798545 C149.854266,55.8690548 149.685675,55.9800308 149.623538,56.1524392 C149.618817,56.1936057 149.618817,56.2351748 149.623538,56.2763413 C149.623538,57.4245009 149.151462,58.6057011 147.809769,58.8122046 C146.753115,58.8922677 145.71021,58.5335967 144.927615,57.8209877 C144.513513,57.4740617 143.892359,58.0522716 144.314744,58.4074577 C145.3721,59.3802868 146.822798,59.8076295 148.240436,59.5638774 C149.03998,59.3748373 149.710231,58.8339783 150.062487,58.0935723 C150.411792,58.8362894 151.083344,59.378198 151.884538,59.5638774 C153.299559,59.8062365 154.747148,59.378908 155.801949,58.4074577 C156.166359,58.0853122 155.553487,57.5071023 155.131103,57.8209877 Z" id="Path" fill="#4A3131"></path>
                    <path d="M127.195744,37.2862769 L131.817128,31.0911711 C131.817128,31.0911711 129.423615,21.0798801 119.584538,21.6085291 C118.068923,21.6911305 117.588564,22.7897293 117.588564,24.9538862 C117.994385,24.4747981 130.425744,22.7071279 127.195744,37.2862769 Z" id="Path" fill="#AD6346"></path>
                    <path d="M168.788205,34.6925926 L168.191897,31.1076914 C168.191897,31.1076914 171.778026,21.0798801 181.617103,21.6085291 C183.132718,21.6911305 183.753872,23.3679392 183.588231,25.8129409 C183.18241,25.3173325 180.971103,18.8248616 168.788205,34.6925926 Z" id="Path" fill="#AD6346"></path>
                    <path d="M154.369154,24.1361323 C154.692154,23.7396455 154.965462,23.7148651 155.926179,23.888328 C156.886897,24.061791 156.630154,25.0530079 156.961436,25.5403563 C157.292718,26.0277046 155.868205,26.4324515 155.189077,26.0442249 C154.509949,25.6559982 153.971615,24.5987002 154.369154,24.1361323 Z" id="Path" fill="#EED1CA"></path>
                    <path d="M149.076923,23.3514189 C149.457897,23.0870944 149.739487,23.0375335 150.070769,23.7313854 C150.402051,24.4252372 150.070769,24.9456261 149.631821,25.0034471 C149.360477,25.0431618 149.084669,24.9702303 148.868696,24.8016548 C148.652722,24.6330792 148.515456,24.3835909 148.488897,24.1113519 C148.430923,23.4918413 148.679385,23.6240035 149.076923,23.3514189 Z" id="Path" fill="#EED1CA"></path>
                    <path d="M144.646026,30.2568968 C145.027,29.9925723 145.30859,29.9512716 145.648154,30.6368633 C145.987718,31.322455 145.648154,31.8511041 145.209205,31.908925 C144.937861,31.9486397 144.662054,31.8757082 144.44608,31.7071327 C144.230107,31.5385572 144.092841,31.2890689 144.066282,31.0168298 C144.000026,30.4055794 144.256769,30.562522 144.646026,30.2568968 Z" id="Path" fill="#EED1CA"></path>
                    <path d="M148.480615,27.6219118 C148.687667,27.2089048 149.226,27.1097831 149.847154,27.5475705 C150.468308,27.985358 150.418615,28.6213889 150.079051,28.8774533 C149.859779,29.0405565 149.583571,29.1080225 149.313544,29.0644344 C149.043518,29.0208463 148.802749,28.8699291 148.646256,28.6461693 C148.29841,28.1340406 148.248718,28.0844797 148.480615,27.6219118 Z" id="Path" fill="#EED1CA"></path>
                    <path d="M146.642,26.7876376 C147.047821,27.0106614 147.130641,27.5475705 146.642,28.1505608 C146.153359,28.7535511 145.540487,28.6792099 145.300308,28.332284 C145.148121,28.1052725 145.093968,27.8267164 145.15006,27.5594283 C145.206153,27.2921402 145.367768,27.0586253 145.598462,26.9115397 C146.136795,26.581134 146.219615,26.5563536 146.642,26.7876376 Z" id="Path" fill="#EED1CA"></path>
                    <path d="M142.699744,26.0029242 C143.180103,25.8377213 143.478256,26.0029242 143.900641,26.8289383 C144.323026,27.6549524 143.792974,27.6549524 143.271205,27.7045132 C142.616923,27.7953748 142.285641,27.7458139 142.202821,26.9693607 C142.12,26.1929074 142.12,26.2011675 142.699744,26.0029242 Z" id="Path" fill="#EED1CA"></path>
                    <path d="M149.987949,31.8593642 C150.23641,32.140209 150.327513,32.082388 149.872,32.611037 C149.694279,32.7943755 149.441614,32.885565 149.187412,32.8581128 C148.93321,32.8306605 148.705972,32.6876446 148.571718,32.4706146 C148.323256,32.0658677 148.629692,31.6859012 149.126615,31.4133166 C149.623538,31.1407319 149.698077,31.5372187 149.987949,31.8593642 Z" id="Path" fill="#EED1CA"></path>
                    <path d="M152.969487,27.3741076 C153.217949,27.6466922 153.317333,27.5971314 152.853538,28.1175203 C152.676992,28.3016434 152.425136,28.3942136 152.171012,28.3683841 C151.916887,28.3425546 151.688932,28.2012157 151.553256,27.985358 C151.304795,27.572351 151.611231,27.1593439 152.108154,26.92806 C152.605077,26.696776 152.679615,27.0519621 152.969487,27.3741076 Z" id="Path" fill="#EED1CA"></path>
                    <path d="M155.023436,29.4061023 C155.271897,29.6786869 155.164231,30.0503933 154.700436,30.5707822 C154.52389,30.7549053 154.272033,30.8474755 154.017909,30.821646 C153.763785,30.7958165 153.535829,30.6544776 153.400154,30.4386199 C153.159974,30.0256129 153.46641,29.6126058 153.955051,29.3813219 C154.443692,29.1500379 154.733564,29.0839568 155.023436,29.4061023 Z" id="Path" fill="#EED1CA"></path>
                    <path d="M145.706128,22.9549321 C145.95459,23.2275168 145.838641,23.5992231 145.383128,24.119612 C145.202221,24.2910637 144.953442,24.3720158 144.705962,24.3399606 C144.458482,24.3079053 144.238688,24.1662607 144.107692,23.9544092 C143.859231,23.5414021 144.165667,23.1283951 144.66259,22.8971111 C145.159513,22.6658272 145.407974,22.6245265 145.706128,22.9549321 Z" id="Path" fill="#EED1CA"></path>
                    <path d="M44.9052821,117.294004 C49.0463077,117.938295 52.5744615,120.664141 54.8934359,123.010021 C54.0072564,119.656404 50.1643846,116.707534 45.1951538,115.93108 C40.2259231,115.154627 35.5051538,116.847956 33.6996667,119.879428 C36.656359,118.2687 40.6565897,116.649713 44.9052821,117.294004 Z" id="Path" fill="#282828"></path>
                    <path d="M63.5564615,99.7990247 C62.5957436,97.238381 59.5645128,95.2972478 54.9596923,94.7272981 C49.9904615,94.1077875 47.3567692,94.4794938 44.3006923,97.4531446 C44.0758907,97.6758369 43.8630224,97.9101998 43.6629744,98.1552566 C50.0606646,94.8487969 57.7915699,95.4875896 63.5564615,99.7990247 L63.5564615,99.7990247 Z" id="Path" fill="#282828"></path>
                    <path d="M79.3172051,94.785119 C84.2864359,94.0251861 86.9201282,94.487754 89.9679231,98.1304762 C93.7776667,102.681814 97.1236154,116.880996 97.1236154,116.880996 L97.1236154,116.880996 C99.7987179,118.367822 101.637333,120.5898 102.043154,123.274346 C102.929333,129.056444 96.6929487,132.203558 88.3860513,133.47562 C81.0067436,134.598999 74.5384615,134.392496 72.509359,129.725516 L72.509359,129.725516 C72.3188718,129.279468 69.5278205,107.819622 70.4885385,101.954922 C71.0765641,98.3452399 74.2485897,95.5533122 79.3172051,94.785119 Z" id="Path" fill="#1D1D1B"></path>
                    <path d="M89.4461538,117.294004 C85.3051282,117.938295 81.7852564,120.664141 79.5076923,123.010021 C80.3855897,119.656404 84.2284615,116.715794 89.2059744,115.93108 C94.1834872,115.146367 98.8876923,116.847956 100.693179,119.879428 C97.6619487,118.2687 93.6534359,116.649713 89.4461538,117.294004 Z" id="Path" fill="#282828"></path>
                    <path d="M75.1596154,87.0040661 C75.4942215,87.6410406 75.9058741,88.2346933 76.385359,88.7717363 C76.385359,88.7717363 74.0415385,90.1181393 73.6191538,89.3995071 C73.0891026,88.5074118 75.1596154,87.0040661 75.1596154,87.0040661 Z" id="Path" fill="#5B5B5B"></path>
                    <path d="M74.6461282,83.774351 C74.6026049,84.4932859 74.6499077,85.214826 74.7869231,85.9219877 C74.7869231,85.9219877 72.0538462,85.9054674 72.0538462,85.0298924 C72.0952564,83.9891146 74.6461282,83.774351 74.6461282,83.774351 Z" id="Path" fill="#5B5B5B"></path>
                    <path d="M75.1430513,80.9906834 C74.9275053,81.6771245 74.7967863,82.3872423 74.7537949,83.1052795 C74.7537949,83.1052795 72.1449487,82.4114277 72.352,81.6019339 C72.6087436,80.5941966 75.1430513,80.9906834 75.1430513,80.9906834 Z" id="Path" fill="#5B5B5B"></path>
                    <path d="M76.9154103,78.8100062 C76.357203,79.2654518 75.8566049,79.7869155 75.424641,80.3629127 C75.424641,80.3629127 73.6357179,78.3391781 74.2568718,77.7774885 C75.0353846,77.0836367 76.9154103,78.8100062 76.9154103,78.8100062 Z" id="Path" fill="#5B5B5B"></path>
                    <path d="M71.3167436,99.7990247 C72.2774615,97.238381 75.3086923,95.2972478 79.9135128,94.7272981 C84.8827436,94.1077875 87.5164359,94.4794938 90.5725128,97.4531446 C90.7973144,97.6758369 91.0101827,97.9101998 91.2102308,98.1552566 C84.8125406,94.8487969 77.0816352,95.4875896 71.3167436,99.7990247 L71.3167436,99.7990247 Z" id="Path" fill="#282828"></path>
                    <path d="M128.288974,115.774138 C134.871561,113.364257 142.262412,115.349346 146.741385,120.730222 C146.741385,120.730222 146.252744,125.777168 145.598462,126.751865 C144.944179,127.726562 143.768128,129.915499 138.641538,129.874198 C133.514949,129.832898 126.806487,128.577356 125.390256,123.571711 C124.123103,118.813869 128.288974,115.774138 128.288974,115.774138 Z" id="Path" fill="#4A3131"></path>
                    <path d="M171.645513,115.774138 C165.062926,113.364257 157.672075,115.349346 153.193103,120.730222 C153.193103,120.730222 153.681744,125.777168 154.327744,126.751865 C154.973744,127.726562 156.158077,129.915499 161.284667,129.874198 C166.411256,129.832898 173.128,128.577356 174.494538,123.571711 C175.811385,118.813869 171.645513,115.774138 171.645513,115.774138 Z" id="Path" fill="#4A3131"></path>
                </g>
            </g>
        </g>
    </g>
</svg>