<svg xmlns="http://www.w3.org/2000/svg" width="38" height="54" viewBox="0 0 38 54">
    <defs>
        <linearGradient id="i0trk5r8ja" x1="60.032%" x2="60.032%" y1="-20.477%" y2="128.307%">
            <stop offset="0%" stop-color="#F9EF81"/>
            <stop offset="20.728%" stop-color="#94CC95"/>
            <stop offset="46.721%" stop-color="#4FB4A2"/>
            <stop offset="67.622%" stop-color="#4D9FAF"/>
            <stop offset="100%" stop-color="#4980C1"/>
        </linearGradient>
    </defs>
    <g fill="none" fill-rule="evenodd">
        <g>
            <g transform="translate(-32 -176) translate(32 176)">
                <rect width="38" height="54" fill="url(#i0trk5r8ja)" rx="16.138"/>
                <path fill="#FFF" d="M22.333 36.975l-9.31-9.69c-.03-.177-.031-.391 0-.57l9.31-9.69c.072-.032.274-.034.548 0l1.095 1.14c.031.298.033.513 0 .57l-7.667 7.98c-.11.177-.112.392 0 .57l7.667 7.98c.03.056.034.27 0 .57l-1.095 1.14c-.271.033-.475.034-.548 0z"/>
            </g>
        </g>
    </g>
</svg>
