<svg xmlns="http://www.w3.org/2000/svg" width="78" height="78" viewBox="0 0 78 78">
    <defs>
        <filter id="3air2n5fea">
            <feColorMatrix in="SourceGraphic" values="0 0 0 0 0.950379 0 0 0 0 0.494627 0 0 0 0 0.124592 0 0 0 1.000000 0"/>
        </filter>
    </defs>
    <g fill="none" fill-rule="evenodd">
        <g>
            <g>
                <g filter="url(#3air2n5fea)" transform="translate(-141 -628) translate(141 628)">
                    <g stroke="#CECDCD" stroke-width=".2" transform="translate(14 15)">
                        <ellipse cx="24" cy="23.287" rx="23.077" ry="23.176"/>
                    </g>
                    <g fill="#F27E20" fill-rule="nonzero">
                        <rect width="78" height="78" rx="32"/>
                    </g>
                </g>
                <g fill="#FFF">
                    <g>
                        <path d="M17.307.106c-2.751-.087-5.424.925-7.429 2.812-2.004 1.887-3.175 4.494-3.255 7.246v16.118c.08 2.753 1.25 5.361 3.254 7.25 2.004 1.89 4.677 2.906 7.43 2.824 2.753.082 5.426-.934 7.43-2.823 2.004-1.89 3.175-4.498 3.254-7.251V10.164c-.08-2.752-1.25-5.359-3.255-7.246C22.732 1.031 20.059.02 17.307.106zM1.723 22.237c-.757.034-1.374.62-1.45 1.374v2.686c.22 8.606 7.018 15.598 15.615 16.057v4.732H10.21c-.742 0-1.343.6-1.343 1.343 0 .742.601 1.343 1.343 1.343h14.195c.76.017 1.394-.582 1.419-1.343-.033-.758-.661-1.352-1.42-1.343h-5.677v-4.732c8.596-.46 15.395-7.45 15.614-16.057v-2.686c0-.784-.636-1.42-1.42-1.42-.784 0-1.42.636-1.42 1.42v2.686c-.079 3.67-1.624 7.157-4.291 9.68-2.667 2.524-6.233 3.875-9.903 3.752-3.67.123-7.236-1.228-9.902-3.751-2.667-2.524-4.213-6.01-4.293-9.68V23.61c-.031-.751-.637-1.35-1.389-1.374z" transform="translate(-141 -628) translate(141 628) translate(10 10) translate(11.693 4.061)"/>
                    </g>
                </g>
            </g>
        </g>
    </g>
</svg>
