<svg xmlns="http://www.w3.org/2000/svg" width="46" height="46" viewBox="0 0 46 46">
    <g fill="none" fill-rule="evenodd">
        <g fill-rule="nonzero">
            <g transform="translate(-282 -441) translate(282 441)">
                <rect width="44" height="44" x="1" y="1" fill="#FFF" stroke="#4FB4A2" stroke-width="2" rx="19"/>
                <g fill="#4FB4A2">
                    <g>
                        <path d="M14.54.841L6.387 7.104h-3.99c-1.038 0-1.88.841-1.88 1.88v8.848c-.001.5.196.978.549 1.331.353.353.832.55 1.33.548h3.991l8.187 6.263c.656.511 1.548.6 2.291.226.744-.372 1.206-1.14 1.19-1.97V2.55c-.014-.825-.491-1.573-1.234-1.934-.742-.36-1.625-.274-2.283.225zM21.796 8.742c3.579 1.905 3.963 7.64 0 9.332-1.002.43-.143 1.888.895 1.467 5.153-2.201 4.67-9.842 0-12.258-.967-.51-1.79.958-.895 1.459z" transform="translate(6 6) translate(.895 3.579)"/>
                        <path d="M23.97 3.642c7.695 3.793 8.169 16.051 0 19.532-1.002.43-.143 1.888.895 1.467 9.34-3.982 8.768-18.145 0-22.458-.976-.483-1.834.975-.895 1.459z" transform="translate(6 6) translate(.895 3.579)"/>
                    </g>
                </g>
            </g>
        </g>
    </g>
</svg>
