<svg xmlns="http://www.w3.org/2000/svg" width="46" height="46" viewBox="0 0 46 46">
    <g fill="none" fill-rule="evenodd">
        <g fill-rule="nonzero">
            <g transform="translate(-282 -180) translate(282 180)">
                <rect width="43.848" height="43.848" x="1.076" y="1.076" fill="#FFF" stroke="#4FB4A2" stroke-width="2.152" rx="20.442"/>
                <g fill="#4FB4A2">
                    <g>
                        <path d="M16.15 1.879l3.337 6.344 7.006 1.002c.74.092 1.357.611 1.574 1.325.217.714-.007 1.488-.572 1.976l-5.368 5.01 1.333 7.007c.18.78-.141 1.59-.808 2.034-.667.444-1.54.429-2.19-.04l-6.316-3.274-6.335 3.329c-1.333.67-3.337-.331-3.006-1.996l1.342-7.005-5.01-5.065C-.198 11.193.473 9.198 2.137 9.198l7.006-1.002 3.382-6.317c.309-.727 1.022-1.2 1.812-1.2s1.503.473 1.812 1.2z" transform="translate(6 6) translate(2.684 3.579)"/>
                    </g>
                </g>
            </g>
        </g>
    </g>
</svg>
