<?xml version="1.0" encoding="UTF-8"?>
<svg width="170px" height="46px" viewBox="0 0 170 46" version="1.1" xmlns="http://www.w3.org/2000/svg" xmlns:xlink="http://www.w3.org/1999/xlink">
    <title>ic/tabs/long_f</title>
    <g id="-page1" stroke="none" stroke-width="1" fill="none" fill-rule="evenodd">
        <g id="TK-points2" transform="translate(-96.000000, -180.000000)">
            <g id="ic-58-copy" transform="translate(96.000000, 180.000000)">
                <rect id="Rectangle" fill="#F27E20" fill-rule="nonzero" x="0" y="0" width="170" height="46" rx="19"></rect>
                <g id="Group" transform="translate(25.500000, 4.000000)" fill="#FFFFFF">
                    <text id="All" font-family="SegoeUI-Bold, Segoe UI" font-size="20" font-weight="bold">
                        <tspan x="41" y="26">QR code</tspan>
                    </text>
                    <g id="ic/card">
                        <rect id="Rectangle" x="20" y="11" width="7" height="7" rx="1"></rect>
                        <rect id="Rectangle-Copy" x="11" y="11" width="7" height="7" rx="1"></rect>
                        <rect id="Rectangle-Copy-2" x="11" y="20" width="7" height="7" rx="1"></rect>
                        <rect id="Rectangle-Copy-3" x="20" y="20" width="7" height="7" rx="1"></rect>
                        <path d="M27.7865712,6 L10.2220693,6 C7.93330894,6 6,7.8627685 6,10.0680191 L6,11.7303103 C6,12.4319809 6.50283372,12.9415274 7.2224061,12.9665871 C7.30910157,12.9916468 7.40446659,13 7.4998316,13 C7.72523982,13 7.94197849,12.9331742 8.13270852,12.7995227 C8.4621513,12.5739857 8.67022042,12.1813842 8.67022042,11.8054893 L8.67022042,10.3937947 C8.67022042,9.37470167 9.59786194,8.48926014 10.6468771,8.48926014 L27.4397893,8.48926014 C28.497474,8.48926014 29.416446,9.38305489 29.416446,10.3937947 L29.416446,11.721957 C29.416446,12.4403341 29.9626274,12.9665871 30.7082085,12.9665871 C31.4711286,12.9665871 32,12.4570406 32,11.721957 L32,10.0680191 C32.0086405,7.8627685 30.0753316,6 27.7865712,6 Z" id="Path"></path>
                        <path d="M30.7004332,25.0126708 C29.9553482,25.0126708 29.4095302,25.5398585 29.4095302,26.2595116 L29.4095302,27.5900329 C29.4095302,28.6109361 28.4825058,29.4979504 27.4341886,29.4979504 L10.6437854,29.4979504 C9.5868044,29.4979504 8.66844385,28.6025681 8.66844385,27.5900329 L8.66844385,26.2595116 C8.66844385,25.9080531 8.47784072,25.5398585 8.17460846,25.2888167 C7.89736754,25.0628792 7.55081639,24.9624624 7.29090303,25.0126708 C6.54581806,25.0126708 6,25.5314905 6,26.2595116 L6,27.9247553 C6,30.1339229 7.93202266,32 10.2192602,32 L27.7807398,32 C30.0679773,32 32,30.1339229 32,27.9247553 L32,26.2595116 C31.9913362,25.5231224 31.4628457,25.0126708 30.7004332,25.0126708 Z" id="Path"></path>
                    </g>
                </g>
            </g>
        </g>
    </g>
</svg>