<?xml version="1.0" encoding="UTF-8"?>
<svg width="46px" height="46px" viewBox="0 0 46 46" version="1.1" xmlns="http://www.w3.org/2000/svg" xmlns:xlink="http://www.w3.org/1999/xlink">
    <title>ic/tabs/short_n</title>
    <g id="-page1" stroke="none" stroke-width="1" fill="none" fill-rule="evenodd">
        <g id="TK-points3" transform="translate(-96.000000, -180.000000)" fill-rule="nonzero">
            <g id="ic/tabs/short_n" transform="translate(96.000000, 180.000000)">
                <rect id="Rectangle" stroke="#4FB4A2" stroke-width="2.15176152" fill="#FFFFFF" x="1.07588076" y="1.07588076" width="43.8482385" height="43.8482385" rx="20.4417344"></rect>
                <g id="ic/sm/save" transform="translate(6.000000, 6.000000)" fill="#4FB4A2">
                    <rect id="Rectangle" x="17.8947368" y="9.84210526" width="6.26315789" height="6.26315789" rx="0.968292683"></rect>
                    <rect id="Rectangle-Copy" x="9.84210526" y="9.84210526" width="6.26315789" height="6.26315789" rx="0.968292683"></rect>
                    <rect id="Rectangle-Copy-2" x="9.84210526" y="17.8947368" width="6.26315789" height="6.26315789" rx="0.968292683"></rect>
                    <rect id="Rectangle-Copy-3" x="17.8947368" y="17.8947368" width="6.26315789" height="6.26315789" rx="0.968292683"></rect>
                    <path d="M24.861669,5.36842105 L9.14606201,5.36842105 C7.09822379,5.36842105 5.36842105,7.03510865 5.36842105,9.00822761 L5.36842105,10.4955408 C5.36842105,11.1233513 5.8183249,11.5792614 6.46215283,11.6016832 C6.53972246,11.624105 6.62504905,11.6315789 6.71037564,11.6315789 C6.91205668,11.6315789 7.10598075,11.5717875 7.27663394,11.4522045 C7.57139853,11.2504082 7.75756564,10.8991333 7.75756564,10.5628062 L7.75756564,9.29971109 C7.75756564,8.38789097 8.58756068,7.59565381 9.5261532,7.59565381 L24.5513904,7.59565381 C25.4977399,7.59565381 26.319978,8.3953649 26.319978,9.29971109 L26.319978,10.4880668 C26.319978,11.1308253 26.8086667,11.6016832 27.4757655,11.6016832 C28.1583782,11.6016832 28.6315789,11.1457731 28.6315789,10.4880668 L28.6315789,9.00822761 C28.6393099,7.03510865 26.9095072,5.36842105 24.861669,5.36842105 Z" id="Path"></path>
                    <path d="M27.4688086,22.3797581 C26.8021537,22.3797581 26.3137901,22.8514524 26.3137901,23.4953525 L26.3137901,24.685819 C26.3137901,25.5992586 25.4843473,26.392903 24.5463793,26.392903 L9.52338694,26.392903 C8.57766709,26.392903 7.75597608,25.5917714 7.75597608,24.685819 L7.75597608,23.4953525 C7.75597608,23.1808896 7.58543643,22.8514524 7.31412336,22.626836 C7.0660657,22.4246813 6.75599362,22.3348348 6.52343956,22.3797581 C5.85678458,22.3797581 5.36842105,22.8439651 5.36842105,23.4953525 L5.36842105,24.9853074 C5.36842105,26.961931 7.09707291,28.6315789 9.14354864,28.6315789 L24.8564514,28.6315789 C26.9029271,28.6315789 28.6315789,26.961931 28.6315789,24.9853074 L28.6315789,23.4953525 C28.6238271,22.8364779 28.1509672,22.3797581 27.4688086,22.3797581 Z" id="Path"></path>
                </g>
            </g>
        </g>
    </g>
</svg>