<svg xmlns="http://www.w3.org/2000/svg" width="170" height="46" viewBox="0 0 170 46">
    <g fill="none" fill-rule="evenodd">
        <g>
            <g transform="translate(-158 -180) translate(158 180)">
                <rect width="170" height="46" fill="#F27E20" fill-rule="nonzero" rx="19"/>
                <g fill="#FFF">
                    <text font-family="SegoeUI-Bold, Segoe UI" font-size="20" font-weight="bold" transform="translate(3.5 4)">
                        <tspan x="41" y="26">What&apos;s News</tspan>
                    </text>
                    <g>
                        <path d="M18.05 2.1l3.73 7.09 7.83 1.12c.827.103 1.517.683 1.759 1.481s-.008 1.664-.639 2.209l-6 5.6 1.49 7.83c.202.872-.158 1.778-.903 2.274-.746.496-1.72.479-2.447-.044L15.81 26l-7.08 3.72c-1.49.75-3.73-.37-3.36-2.23l1.5-7.83L1.27 14c-1.49-1.49-.74-3.72 1.12-3.72l7.83-1.12L14 2.1c.345-.813 1.142-1.34 2.025-1.34s1.68.527 2.025 1.34z" transform="translate(3.5 4) translate(3 4)"/>
                    </g>
                </g>
            </g>
        </g>
    </g>
</svg>
