<svg xmlns="http://www.w3.org/2000/svg" width="170" height="46" viewBox="0 0 170 46">
    <g fill="none" fill-rule="evenodd">
        <g>
            <g transform="translate(-158 -180) translate(158 180)">
                <rect width="170" height="46" fill="#F27E20" fill-rule="nonzero" rx="19"/>
                <g fill="#FFF">
                    <text font-family="SegoeUI-Bold, Segoe UI" font-size="20" font-weight="bold" transform="translate(43 4)">
                        <tspan x="41" y="26">Scan</tspan>
                    </text>
                    <g>
                        <path d="M27.787 6H10.222C7.933 6 6 7.863 6 10.068v1.662c0 .702.503 1.212 1.222 1.237.087.025.182.033.278.033.225 0 .442-.067.633-.2.33-.226.537-.619.537-.995v-1.411c0-1.02.928-1.905 1.977-1.905H27.44c1.057 0 1.976.894 1.976 1.905v1.328c0 .718.547 1.245 1.292 1.245.763 0 1.292-.51 1.292-1.245v-1.654C32.009 7.863 30.075 6 27.787 6zM30.7 25.013c-.745 0-1.29.527-1.29 1.247v1.33c0 1.02-.927 1.908-1.976 1.908h-16.79c-1.057 0-1.976-.895-1.976-1.908v-1.33c0-.352-.19-.72-.493-.971-.278-.226-.624-.327-.884-.276-.745 0-1.291.518-1.291 1.247v1.665C6 30.134 7.932 32 10.22 32h17.56c2.288 0 4.22-1.866 4.22-4.075V26.26c-.009-.737-.537-1.247-1.3-1.247zM7.122 21h23.756c.67 0 1.122-.523 1.122-1.299V19.3c0-.816-.574-1.299-1.122-1.299H7.122C6.417 18 6 18.664 6 19.299v.402C6 20.517 6.574 21 7.122 21z" transform="translate(43 4)"/>
                    </g>
                </g>
            </g>
        </g>
    </g>
</svg>
