<svg xmlns="http://www.w3.org/2000/svg" width="46" height="46" viewBox="0 0 46 46">
    <g fill="none" fill-rule="evenodd">
        <g fill-rule="nonzero">
            <g transform="translate(-282 -180) translate(282 180)">
                <rect width="43.848" height="43.848" x="1.076" y="1.076" fill="#FFF" stroke="#4FB4A2" stroke-width="2.152" rx="20.442"/>
                <g fill="#4FB4A2">
                    <path d="M24.862 5.368H9.146c-2.048 0-3.778 1.667-3.778 3.64v1.488c0 .627.45 1.083 1.094 1.106.078.022.163.03.248.03.202 0 .396-.06.567-.18.294-.202.48-.553.48-.89V9.3c0-.912.83-1.704 1.77-1.704H24.55c.947 0 1.769.8 1.769 1.704v1.188c0 .643.489 1.114 1.156 1.114.682 0 1.156-.456 1.156-1.114v-1.48c.007-1.973-1.722-3.64-3.77-3.64zM27.469 22.38c-.667 0-1.155.471-1.155 1.115v1.19c0 .914-.83 1.708-1.768 1.708H9.523c-.945 0-1.767-.801-1.767-1.707v-1.19c0-.315-.17-.645-.442-.87-.248-.201-.558-.291-.79-.246-.667 0-1.156.464-1.156 1.115v1.49c0 1.977 1.73 3.647 3.776 3.647h15.712c2.047 0 3.776-1.67 3.776-3.647v-1.49c-.008-.659-.481-1.115-1.163-1.115zM6.372 18.79h21.256c.599 0 1.004-.469 1.004-1.162v-.36c0-.73-.514-1.163-1.004-1.163H6.372c-.63 0-1.004.595-1.004 1.162v.36c0 .73.514 1.162 1.004 1.162z" transform="translate(6 6)"/>
                </g>
            </g>
        </g>
    </g>
</svg>
