<svg xmlns="http://www.w3.org/2000/svg" xmlns:xlink="http://www.w3.org/1999/xlink" width="78" height="78" viewBox="0 0 78 78">
  <defs>
    <style>
      .cls-1 {
        clip-path: url(#clip-ic_aicube_f_);
      }

      .cls-2, .cls-4 {
        fill: none;
      }

      .cls-2 {
        stroke: #cecdcd;
        stroke-miterlimit: 10;
        stroke-width: 0.2px;
      }

      .cls-3 {
        fill: #f27e20;
      }

      .cls-5 {
        fill: #fff;
      }
    </style>
    <clipPath id="clip-ic_aicube_f_">
      <rect width="78" height="78"/>
    </clipPath>
  </defs>
  <g id="ic_aicube_f_" data-name="ic_aicube_f " class="cls-1">
    <g id="ic_tabs_big" data-name="ic/tabs/big">
      <g id="ic-38">
        <g id="Layer_1" transform="translate(14 15)">
          <ellipse id="Oval" class="cls-2" cx="23.077" cy="23.176" rx="23.077" ry="23.176" transform="translate(0.923 0.111)"/>
        </g>
        <g id="Layer_2">
          <path id="Rectangle" class="cls-3" d="M32,0H46A32,32,0,0,1,78,32V46A32,32,0,0,1,46,78H32A32,32,0,0,1,0,46V32A32,32,0,0,1,32,0Z"/>
        </g>
      </g>
      <g id="ic_micro" data-name="ic/micro" transform="translate(10 10)">
        <rect id="ic_sm_box_background" data-name="ic/sm/box background" class="cls-4" width="58" height="58"/>
        <g id="aicube" transform="translate(9.448 6.578)">
          <path id="Path" class="cls-5" d="M18.133,32.221.061,21.719,0,0,18.072,10.5l.061,21.719Z" transform="translate(0 12.623)"/>
          <path id="Path-2" data-name="Path" class="cls-5" d="M18.072,21.414,0,10.913,18.9,0,36.967,10.5l-18.9,10.913Z" transform="translate(1.038 0)"/>
          <path id="Path-3" data-name="Path" class="cls-5" d="M18.9,0l.061,21.719L.061,32.633,0,10.913,18.9,0Z" transform="translate(20.147 12.211)"/>
        </g>
      </g>
    </g>
  </g>
</svg>
