<svg id="ic_close" data-name="ic/close" xmlns="http://www.w3.org/2000/svg" xmlns:xlink="http://www.w3.org/1999/xlink" width="38" height="54" viewBox="0 0 38 54">
  <defs>
    <style>
      .cls-1 {
        fill: url(#linear-gradient);
      }

      .cls-2 {
        fill: #fff;
      }
    </style>
    <linearGradient id="linear-gradient" x1="0.6" y1="-0.205" x2="0.6" y2="1.283" gradientUnits="objectBoundingBox">
      <stop offset="0" stop-color="#f9ef81"/>
      <stop offset="0.207" stop-color="#94cc95"/>
      <stop offset="0.467" stop-color="#4fb4a2"/>
      <stop offset="0.676" stop-color="#4d9faf"/>
      <stop offset="1" stop-color="#4980c1"/>
    </linearGradient>
  </defs>
  <rect id="Rectangle" class="cls-1" width="38" height="54" rx="15"/>
  <path id="Combined_Shape" data-name="Combined Shape" class="cls-2" d="M16.42,18.976,9,11.23,1.58,18.976a1.336,1.336,0,0,1-.519,0L.023,17.893a1.465,1.465,0,0,1,0-.541L7.286,9.77a.5.5,0,0,0,0-.541L.023,1.649a1.5,1.5,0,0,1,0-.542L1.06.024a1.3,1.3,0,0,1,.519,0L9,7.77,16.42.024a1.3,1.3,0,0,1,.519,0l1.038,1.083a1.5,1.5,0,0,1,0,.542L10.715,9.229a.5.5,0,0,0,0,.541l7.263,7.582a1.465,1.465,0,0,1,0,.541L16.94,18.976a2.931,2.931,0,0,1-.334.024A.5.5,0,0,1,16.42,18.976Z" transform="translate(10 18)"/>
</svg>
