<svg xmlns="http://www.w3.org/2000/svg" xmlns:xlink="http://www.w3.org/1999/xlink" width="46" height="46" viewBox="0 0 46 46">
  <defs>
    <style>
      .cls-1 {
        clip-path: url(#clip-ic_example);
      }

      .cls-2 {
        fill: #fff;
        stroke: #4fb4a2;
        stroke-miterlimit: 10;
        stroke-width: 2px;
      }

      .cls-3 {
        fill: none;
      }

      .cls-4 {
        fill: #4fb4a2;
      }

      .cls-5 {
        stroke: none;
      }
    </style>
    <clipPath id="clip-ic_example">
      <rect width="46" height="46"/>
    </clipPath>
  </defs>
  <g id="ic_example" class="cls-1">
    <g id="ic_tabs_short_n" data-name="ic/tabs/short_n">
      <g id="Rectangle" class="cls-2">
        <rect class="cls-5" width="46" height="46" rx="19"/>
        <rect class="cls-3" x="1" y="1" width="44" height="44" rx="18"/>
      </g>
      <g id="ic_sm_save" data-name="ic/sm/save" transform="translate(6 6)">
        <rect id="ic_sm_mouth_background" data-name="ic/sm/mouth background" class="cls-3" width="34" height="34"/>
        <g id="talk" transform="translate(0.541 9.595)">
          <path id="Shape" class="cls-4" d="M16.547,16.039a12.089,12.089,0,0,1-5.492-1.326A23.151,23.151,0,0,1,4.775,10.9,23.16,23.16,0,0,1,0,5.324c.087,0,.18.005.286.005A8.041,8.041,0,0,0,4.438,4.173,25.918,25.918,0,0,0,7.2,2.445C7.945,1.933,8.716,1.4,9.546.939a6.249,6.249,0,0,1,3.025-.93,4.179,4.179,0,0,1,2.014.52,4.732,4.732,0,0,1,1.743,1.534c.108.165.181.265.276.265.078,0,.168-.068.291-.221A4.658,4.658,0,0,1,20.574,0a5.743,5.743,0,0,1,2.581.7A16.636,16.636,0,0,1,25.566,2.3a19.228,19.228,0,0,0,2.078,1.415,10.746,10.746,0,0,0,5.03,1.744,32.752,32.752,0,0,1-5.013,5.667,19.422,19.422,0,0,1-9.4,4.795A12.08,12.08,0,0,1,16.547,16.039ZM4.775,6.866h0c.017.04,7.4,4.018,12.12,4.018a20.634,20.634,0,0,0,7.462-2,37.333,37.333,0,0,0,3.952-2.012,7.038,7.038,0,0,1-1.3.113,22.125,22.125,0,0,1-5.282-.93l-.006,0-.57-.148a1.853,1.853,0,0,0-1.395.183,5.938,5.938,0,0,1-2.956,1,5.982,5.982,0,0,1-2.884-.937,1.747,1.747,0,0,0-1.4-.1A20.644,20.644,0,0,1,6.8,7.1a8.242,8.242,0,0,1-2.018-.231Z" transform="translate(0 0)"/>
        </g>
      </g>
    </g>
  </g>
</svg>
