<svg xmlns="http://www.w3.org/2000/svg" xmlns:xlink="http://www.w3.org/1999/xlink" width="46" height="46" viewBox="0 0 46 46">
  <defs>
    <style>
      .cls-1 {
        clip-path: url(#clip-ic_listen_n);
      }

      .cls-2 {
        fill: #fff;
      }

      .cls-3 {
        fill: none;
      }

      .cls-4 {
        fill: #dadada;
      }
    </style>
    <clipPath id="clip-ic_listen_n">
      <rect width="46" height="46"/>
    </clipPath>
  </defs>
  <g id="ic_listen_n" class="cls-1">
    <g id="ic_tabs_short_n" data-name="ic/tabs/short_n">
      <rect id="Rectangle" class="cls-2" width="46" height="46" rx="19"/>
      <g id="ic_sm_save" data-name="ic/sm/save" transform="translate(6 6)">
        <rect id="ic_sm_ear_background" data-name="ic/sm/ear background" class="cls-3" width="34" height="34"/>
        <g id="listening" transform="translate(6.854 2.511)">
          <path id="Combined_Shape" data-name="Combined Shape" class="cls-4" d="M8.505,28.931h0a6.108,6.108,0,0,1-4.434-1.967,8.648,8.648,0,0,1-1.792-4.235,5.243,5.243,0,0,1,1.006-4.309c.1-.1.2-.192.3-.292a4.888,4.888,0,0,0,.875-.985,2.66,2.66,0,0,0-1.277-3.536c-.246-.147-.5-.272-.736-.393s-.491-.246-.737-.393C-1.328,10.864.426,6.811,1.321,5.158A9.66,9.66,0,0,1,5.25,1.131,9.31,9.31,0,0,1,9.659,0,8.418,8.418,0,0,1,13.68,1.019,12.273,12.273,0,0,1,17.921,5.06a10,10,0,0,1,1.645,5.071,12,12,0,0,1-.86,5.144A22.426,22.426,0,0,1,16.25,19.5l-.205.273-.007.009A11.717,11.717,0,0,0,13.5,24.508a7.291,7.291,0,0,1-.786,1.94A4.7,4.7,0,0,1,9.572,28.83,5.714,5.714,0,0,1,8.505,28.931Zm4.588-7.569a.588.588,0,0,0-.477.3,5.361,5.361,0,0,0-.884,1.571c-.147.295-.272.619-.393.933s-.245.639-.393.933a2.878,2.878,0,0,1-1.965,1.571,1.225,1.225,0,0,1-.308.037c-.206.009-.419.018-.523.146a.373.373,0,0,0-.053.309.311.311,0,0,0,.246.3,1.108,1.108,0,0,0,.351.053,1.292,1.292,0,0,0,.386-.055,6.827,6.827,0,0,0,1.277-.491,4.174,4.174,0,0,0,1.669-2.553,7.223,7.223,0,0,1,.982-1.965,1.67,1.67,0,0,1,.128-.192c.174-.24.412-.568.265-.79A.555.555,0,0,0,13.093,21.361ZM9.572,4.765A5.24,5.24,0,0,0,5.937,6.14C4.92,7.094,3.569,9.3,3.9,10.992a2.276,2.276,0,0,0,1.548,1.729.435.435,0,0,1,.205.089c.053.033.113.07.188.107a2.482,2.482,0,0,1,1.179,2.357v.393A2.835,2.835,0,0,0,7.6,17.913,2.867,2.867,0,0,0,9.67,19.007h.1a5.59,5.59,0,0,0,5.127-3.571c1.3-2.844.959-6.382-.8-8.412A5.809,5.809,0,0,0,9.572,4.765ZM12.53,2.138a.289.289,0,0,0-.209.073.444.444,0,0,0,0,.491A2.161,2.161,0,0,0,12.813,3a8.179,8.179,0,0,1,4.617,5.6,10.99,10.99,0,0,1,.491,3.045v.491c.071.072.22.223.327.223a.091.091,0,0,0,.066-.027.082.082,0,0,0,.086-.062.464.464,0,0,0,.012-.135,6.815,6.815,0,0,0,0-2.455,8.33,8.33,0,0,0-.589-2.358,13.177,13.177,0,0,0-1.474-2.553,7.662,7.662,0,0,0-3.536-2.554A.648.648,0,0,0,12.53,2.138Z" transform="translate(0 0)"/>
        </g>
      </g>
    </g>
  </g>
</svg>
