<svg xmlns="http://www.w3.org/2000/svg" xmlns:xlink="http://www.w3.org/1999/xlink" width="78" height="78" viewBox="0 0 78 78">
  <defs>
    <style>
      .cls-1 {
        clip-path: url(#clip-ic_scenes_f);
      }

      .cls-2, .cls-4 {
        fill: none;
      }

      .cls-2 {
        stroke: #cecdcd;
        stroke-miterlimit: 10;
        stroke-width: 0.2px;
      }

      .cls-3 {
        fill: #f27e20;
      }

      .cls-5 {
        fill: #fff;
      }
    </style>
    <clipPath id="clip-ic_scenes_f">
      <rect width="78" height="78"/>
    </clipPath>
  </defs>
  <g id="ic_scenes_f" class="cls-1">
    <g id="ic_tabs_big" data-name="ic/tabs/big">
      <g id="ic-38">
        <g id="Layer_1" transform="translate(14 15)">
          <ellipse id="Oval" class="cls-2" cx="23.077" cy="23.176" rx="23.077" ry="23.176" transform="translate(0.923 0.111)"/>
        </g>
        <g id="Layer_2">
          <rect id="Rectangle" class="cls-3" width="78" height="78" rx="32"/>
        </g>
      </g>
      <g id="ic_micro" data-name="ic/micro" transform="translate(10 10)">
        <rect id="ic_sm_180_background" data-name="ic/sm/180 background" class="cls-4" width="58" height="58"/>
        <g id="scenes" transform="translate(3.999 9.601)">
          <path id="Path" class="cls-5" d="M24.894,4.93C16.286,4.93,0,3.892,0,0V28.588C0,32.48,16.561,35.5,25.169,35.5s24.619-3.053,24.619-6.914V0C49.788,3.892,33.5,4.93,24.894,4.93Z" transform="translate(0 3.297)"/>
          <path id="Path-2" data-name="Path" class="cls-5" d="M9.814,6.594V0C3.373,1.1,0,2.412,0,3.3S3.373,5.495,9.814,6.594Z" transform="translate(1.038 0)"/>
          <path id="Path-3" data-name="Path" class="cls-5" d="M0,0V6.594c6.441-1.1,9.814-2.4,9.814-3.3S6.472,1.084,0,0Z" transform="translate(38.738 0)"/>
          <path id="Combined_Shape" data-name="Combined Shape" class="cls-3" d="M16.729,9.314a6.541,6.541,0,0,1-.886-3.756,7,7,0,0,1,.931-4.029A3.042,3.042,0,0,1,19.336.137l.125,0c2.238,0,3.372,1.746,3.372,5.19A6.7,6.7,0,0,1,21.9,9.222a3.04,3.04,0,0,1-2.561,1.39h-.08c-.049,0-.1,0-.15,0A2.825,2.825,0,0,1,16.729,9.314Zm.732-3.831c0,2.573.637,3.877,1.893,3.877s1.908-1.324,1.908-3.938c0-2.636-.639-4.029-1.848-4.029C18.155,1.392,17.461,2.845,17.461,5.482ZM10.867,10.6l-.129,0a3.43,3.43,0,0,1-2.1-.72,2.542,2.542,0,0,1-.9-1.984,3.193,3.193,0,0,1,2.137-2.87l.168.015A2.568,2.568,0,0,1,8.287,2.628,2.3,2.3,0,0,1,9.021.72,3.259,3.259,0,0,1,11.062,0l.125,0,.13,0a3.059,3.059,0,0,1,1.915.674,2.1,2.1,0,0,1,.809,1.786A2.756,2.756,0,0,1,12.2,5.025a2.837,2.837,0,0,1,2.166,2.7,2.5,2.5,0,0,1-.93,2.153,4.042,4.042,0,0,1-2.315.725C11.035,10.6,10.95,10.6,10.867,10.6ZM9.433,7.848a1.523,1.523,0,0,0,.518,1.176,1.961,1.961,0,0,0,1.223.43l.106,0h.082a1.857,1.857,0,0,0,1.184-.429,1.535,1.535,0,0,0,.519-1.114c0-.982-.62-1.681-1.893-2.137C10.018,6.272,9.433,6.97,9.433,7.848Zm.625-6.242a1.087,1.087,0,0,0-.412.977c0,.846.485,1.414,1.526,1.786a1.716,1.716,0,0,0,1.4-1.74A1.515,1.515,0,0,0,12.2,1.606a1.516,1.516,0,0,0-1.01-.382h-.044A1.777,1.777,0,0,0,10.058,1.606Zm-10,8.776V9.069H2.275V1.758L0,2.368V1.026L3.816.018V9.069H6.029v1.313ZM26.68,4.047h-.029a1.853,1.853,0,0,1-1.345-.581,2,2,0,0,1-.549-1.4A1.982,1.982,0,0,1,25.321.72,1.865,1.865,0,0,1,26.656.078h.052a1.824,1.824,0,0,1,1.33.58A1.953,1.953,0,0,1,28.6,2.063a1.964,1.964,0,0,1-.565,1.4,1.82,1.82,0,0,1-1.33.581Zm.033-.915a.917.917,0,0,0,.669-.291.975.975,0,0,0,.275-.717,1.031,1.031,0,0,0-.275-.732.921.921,0,0,0-.669-.29h-.074a.9.9,0,0,0-.661.29,1,1,0,0,0-.29.732.927.927,0,0,0,.29.717.9.9,0,0,0,.661.291h.074Z" transform="translate(11.89 17.153)"/>
        </g>
      </g>
    </g>
  </g>
</svg>
