<svg xmlns="http://www.w3.org/2000/svg" xmlns:xlink="http://www.w3.org/1999/xlink" width="56" height="56" viewBox="0 0 56 56">
  <defs>
    <style>
      .cls-1 {
        clip-path: url(#clip-ic_scenes_n_);
      }

      .cls-2 {
        fill: #4fb4a2;
      }

      .cls-3 {
        fill: none;
      }

      .cls-4 {
        fill: #fff;
      }
    </style>
    <clipPath id="clip-ic_scenes_n_">
      <rect width="56" height="56"/>
    </clipPath>
  </defs>
  <g id="ic_scenes_n_" data-name="ic_scenes_n " class="cls-1">
    <g id="ic_tabs_mid" data-name="ic/tabs/mid">
      <rect id="Rectangle" class="cls-2" width="56" height="56" rx="23"/>
      <g id="ic_sm_activity" data-name="ic/sm/activity" transform="translate(7 7)">
        <rect id="ic_sm_180_background" data-name="ic/sm/180 background" class="cls-3" width="42" height="42"/>
        <g id="scenes" transform="translate(2.896 6.952)">
          <path id="Path" class="cls-4" d="M18.027,3.57C11.793,3.57,0,2.818,0,0V20.7c0,2.818,11.992,5.007,18.226,5.007S36.054,23.5,36.054,20.7V0C36.054,2.818,24.261,3.57,18.027,3.57Z" transform="translate(0 2.387)"/>
          <path id="Path-2" data-name="Path" class="cls-4" d="M7.107,4.775V0C2.443.8,0,1.746,0,2.387S2.443,3.979,7.107,4.775Z" transform="translate(0.752 0)"/>
          <path id="Path-3" data-name="Path" class="cls-4" d="M0,0V4.775c4.664-.8,7.107-1.735,7.107-2.387S4.686.785,0,0Z" transform="translate(28.052 0)"/>
          <path id="Combined_Shape" data-name="Combined Shape" class="cls-2" d="M12.114,6.744a4.737,4.737,0,0,1-.642-2.72,5.066,5.066,0,0,1,.674-2.918A2.2,2.2,0,0,1,14,.1l.091,0c1.62,0,2.442,1.264,2.442,3.758a4.849,4.849,0,0,1-.674,2.818,2.2,2.2,0,0,1-1.854,1.007h-.058c-.036,0-.073,0-.108,0A2.046,2.046,0,0,1,12.114,6.744Zm.53-2.774c0,1.863.462,2.807,1.371,2.807S15.4,5.818,15.4,3.925c0-1.909-.463-2.918-1.338-2.918C13.146,1.008,12.644,2.06,12.644,3.97Zm-4.775,3.7-.094,0a2.484,2.484,0,0,1-1.52-.521A1.841,1.841,0,0,1,5.6,5.717,2.312,2.312,0,0,1,7.151,3.639l.121.011A1.86,1.86,0,0,1,6,1.9,1.667,1.667,0,0,1,6.532.521,2.36,2.36,0,0,1,8.011,0L8.1,0,8.2,0A2.215,2.215,0,0,1,9.582.488a1.522,1.522,0,0,1,.586,1.293A2,2,0,0,1,8.831,3.639,2.055,2.055,0,0,1,10.4,5.594a1.813,1.813,0,0,1-.673,1.559,2.927,2.927,0,0,1-1.676.525C7.991,7.678,7.929,7.676,7.869,7.672ZM6.831,5.683a1.1,1.1,0,0,0,.375.851,1.42,1.42,0,0,0,.885.311l.077,0h.06a1.345,1.345,0,0,0,.857-.31,1.112,1.112,0,0,0,.376-.807c0-.711-.449-1.218-1.371-1.548C7.255,4.542,6.831,5.047,6.831,5.683Zm.453-4.52a.787.787,0,0,0-.3.707c0,.613.351,1.024,1.105,1.293A1.242,1.242,0,0,0,9.107,1.9a1.1,1.1,0,0,0-.276-.74A1.1,1.1,0,0,0,8.1.886H8.068A1.287,1.287,0,0,0,7.283,1.163ZM.044,7.518V6.567h1.6V1.273L0,1.715V.743L2.763.013V6.567h1.6v.951ZM19.32,2.93H19.3a1.342,1.342,0,0,1-.974-.421,1.45,1.45,0,0,1-.4-1.017,1.435,1.435,0,0,1,.409-.973A1.351,1.351,0,0,1,19.3.057h.038a1.321,1.321,0,0,1,.963.42,1.414,1.414,0,0,1,.409,1.018A1.422,1.422,0,0,1,20.3,2.511a1.318,1.318,0,0,1-.963.421Zm.024-.662a.664.664,0,0,0,.484-.211.706.706,0,0,0,.2-.519.746.746,0,0,0-.2-.53A.667.667,0,0,0,19.344.8H19.29a.652.652,0,0,0-.478.21.724.724,0,0,0-.21.53.671.671,0,0,0,.21.519.649.649,0,0,0,.478.211h.054Z" transform="translate(8.61 12.421)"/>
        </g>
      </g>
    </g>
  </g>
</svg>
