<?xml version="1.0" encoding="UTF-8"?>
<svg width="140px" height="17px" viewBox="0 0 140 17" version="1.1" xmlns="http://www.w3.org/2000/svg" xmlns:xlink="http://www.w3.org/1999/xlink">
    <title>info/exposure</title>
    <g id="-page1" stroke="none" stroke-width="1" fill="none" fill-rule="evenodd">
        <g id="activities3" transform="translate(-188.000000, -259.000000)">
            <g id="info/exposure" transform="translate(187.000000, 256.000000)">
                <g id="Group" transform="translate(0.000000, 2.000000)">
                    <text id="1,475" opacity="0.595493862" font-family="SegoeUI, Segoe UI" font-size="14" font-weight="normal" fill="#000000">
                        <tspan x="38.359375" y="16">475</tspan>
                    </text>
                    <g fill="#A5A5A5" fill-rule="nonzero" id="ic/sm/dynamic">
                        <g>
                            <path d="M9.99986505,9.78407557 C12.2665317,9.78407557 14.1024291,7.94817814 14.1024291,5.68151147 C14.1024291,3.4148448 12.2665317,1.57894737 9.99986505,1.57894737 C7.73319838,1.57894737 5.89730094,3.4148448 5.89730094,5.68151147 C5.89730094,7.94817814 7.73319838,9.78407557 9.99986505,9.78407557 Z M9.99986505,11.3400016 C7.26140351,11.3400016 1.79473684,12.7143606 1.79473684,15.4425657 L1.79473684,16.5092324 C1.79473684,17.0530204 2.23556417,17.4938477 2.77935223,17.4938477 L17.2203779,17.4938477 C17.7641659,17.4938477 18.2049933,17.0530204 18.2049933,16.5092324 L18.2049933,15.4425657 L18.2049933,15.4425657 C18.2049933,12.7143606 12.7383266,11.3400016 9.99986505,11.3400016 Z" id="Shape"></path>
                        </g>
                    </g>
                </g>
                <g id="Group-2" transform="translate(75.000000, 0.000000)">
                    <text id="1,896" opacity="0.595493862" font-family="SegoeUI, Segoe UI" font-size="14" font-weight="normal" fill="#000000">
                        <tspan x="21.2724609" y="17">   1,897</tspan>
                    </text>
                    <g id="Group" fill="#A5A5A5" fill-rule="nonzero">
                        <g id="ic/sm/eye">
                            <path d="M12,6.24 C15.904,6.24 19.296,9.184 20.96,10.976 C21.472,11.552 21.472,12.448 20.96,13.024 C19.296,14.752 15.904,17.76 12,17.76 C8.096,17.76 4.704,14.816 3.04,13.024 C2.528,12.448 2.528,11.552 3.04,10.976 C4.704,9.184 8.096,6.24 12,6.24 Z M9.0130816,9.0138496 C7.36352281,10.6634084 7.36352281,13.3378716 9.0130816,14.9874304 C10.6626404,16.6369892 13.3371036,16.6369892 14.9866624,14.9874304 C16.6362212,13.3378716 16.6362212,10.6634084 14.9866624,9.0138496 C13.3371036,7.36429081 10.6626404,7.36429081 9.0130816,9.0138496 Z" id="Combined-Shape"></path>
                            <path d="M12,8.928 C11.872,8.928 11.808,8.928 11.744,8.928 C11.616,8.928 11.552,8.992 11.488,9.056 C11.424,9.184 11.424,9.248 11.424,9.376 C11.616,9.952 11.552,10.656 11.168,11.104 C10.848,11.552 10.4,11.744 9.824,11.744 C9.632,11.744 9.44,11.68 9.248,11.616 C9.12,11.552 9.056,11.616 8.928,11.68 C8.8,11.744 8.8,11.872 8.8,11.936 L8.8,12 C8.8,13.728 10.208,15.072 11.872,15.072 C13.536,15.072 14.944,13.664 14.944,12 C15.072,10.272 13.728,8.928 12,8.928 Z" id="Path"></path>
                        </g>
                    </g>
                </g>
            </g>
        </g>
    </g>
</svg>