<?xml version="1.0" encoding="UTF-8"?>
<svg width="24px" height="24px" viewBox="0 0 24 24" version="1.1" xmlns="http://www.w3.org/2000/svg" xmlns:xlink="http://www.w3.org/1999/xlink">
    <title>ic/tkpoint</title>
    <g id="ic/tkpoint" stroke="none" stroke-width="1" fill="none" fill-rule="evenodd">
        <rect id="Rectangle" fill="#4FB4A2" fill-rule="nonzero" x="0" y="0" width="24" height="24" rx="10"></rect>
        <g id="tkpoint" transform="translate(3.000000, 3.000000)">
            <circle id="Oval" fill="#FFFFFF" cx="9" cy="9" r="8.73473684"></circle>
            <path d="M9,16.7731579 C4.70700344,16.7731579 1.22684211,13.2929966 1.22684211,9 C1.22684211,4.70700344 4.70700344,1.22684211 9,1.22684211 C13.2929966,1.22684211 16.7731579,4.70700344 16.7731579,9 C16.7679379,13.2908325 13.2908325,16.7679379 9,16.7731579 Z M9,1.78578947 C6.08212422,1.78578947 3.45156127,3.54347544 2.33493855,6.23924115 C1.21831583,8.93500687 1.83553306,12.0379674 3.89878282,14.1012172 C5.96203257,16.1644669 9.06499313,16.7816842 11.7607588,15.6650614 C14.4565246,14.5484387 16.2142105,11.9178758 16.2142105,9 C16.2115977,5.0167843 12.9832157,1.78840228 9,1.78578947 Z" id="Shape" fill="#4FB4A2" fill-rule="nonzero"></path>
            <path d="M8.10473684,7.25210526 L6.91105263,7.25210526 L6.91105263,11.1789474 C6.92498368,11.3593702 6.87091353,11.5384776 6.75947368,11.6810526 C6.66028659,11.7901945 6.51848048,11.8507215 6.37105263,11.8468421 C6.22059277,11.8522347 6.07527394,11.7916852 5.97315789,11.6810526 C5.86001125,11.5393682 5.80573342,11.3595729 5.82157895,11.1789474 L5.82157895,7.25210526 L4.62315789,7.25210526 C4.47395339,7.26222265 4.32606404,7.21852807 4.20631579,7.12894737 C4.1159173,7.04499484 4.06735018,6.92531157 4.07368421,6.80210526 C4.06759106,6.67561579 4.11999148,6.55334815 4.21578947,6.47052632 C4.33262685,6.3823644 4.47704699,6.33870249 4.62315789,6.34736842 L8.10473684,6.34736842 C8.25643092,6.33467845 8.40724112,6.38042986 8.52631579,6.47526316 C8.62078096,6.55703586 8.67304762,6.67724919 8.66842105,6.80210526 C8.67375153,6.92709317 8.62135746,7.04759953 8.52631579,7.12894737 C8.40511193,7.21924022 8.25548679,7.26295093 8.10473684,7.25210526 L8.10473684,7.25210526 Z" id="Path" fill="#4FB4A2" fill-rule="nonzero"></path>
            <path d="M10.4210526,6.92052632 L10.4210526,8.81526316 L12.5715789,6.57473684 C12.6519736,6.48581581 12.7408114,6.40490998 12.8368421,6.33315789 C12.9224625,6.27739103 13.0238203,6.25080537 13.1257895,6.25736842 C13.2652583,6.25152068 13.4014122,6.30087648 13.5047368,6.39473684 C13.6008006,6.47976365 13.65452,6.60279834 13.6515789,6.73105263 C13.6377865,6.91601069 13.5487561,7.087223 13.4052632,7.20473684 L12.0742105,8.46473684 L13.6089474,10.6626316 C13.7017834,10.7873871 13.7826666,10.9206066 13.8505263,11.0605263 C13.9034228,11.1647465 13.9310526,11.2799667 13.9310526,11.3968421 C13.9308053,11.5166303 13.8790361,11.6305225 13.7889474,11.7094737 C13.6834301,11.8023504 13.545612,11.8499912 13.4052632,11.8421053 C13.2733756,11.8472037 13.1429998,11.8125468 13.0310526,11.7426316 C12.9320282,11.6749812 12.8494687,11.5859465 12.7894737,11.4821053 C12.7231579,11.3778947 12.6663158,11.2784211 12.6142105,11.1884211 L11.3163158,9.19894737 L10.4210526,10.0610526 L10.4210526,11.1789474 C10.4349837,11.3593702 10.3809135,11.5384776 10.2694737,11.6810526 C10.1662811,11.7901351 10.0216962,11.8503788 9.87157895,11.8468421 C9.67630873,11.8451108 9.49636053,11.7407408 9.39789474,11.5721053 C9.35971462,11.4985674 9.33713758,11.4179351 9.33157895,11.3352632 C9.33157895,11.2452632 9.33157895,11.1126316 9.33157895,10.9373684 L9.33157895,6.92052632 C9.31524082,6.74281434 9.36592665,6.56541395 9.47368421,6.42315789 C9.57464092,6.31087839 9.720766,6.24999294 9.87157895,6.25736842 C10.0210826,6.25200265 10.1657934,6.31057606 10.2694737,6.41842105 C10.3817547,6.56055859 10.4359264,6.74000242 10.4210526,6.92052632 L10.4210526,6.92052632 Z" id="Path" fill="#4FB4A2" fill-rule="nonzero"></path>
        </g>
    </g>
</svg>