<svg xmlns="http://www.w3.org/2000/svg" width="56" height="56" viewBox="0 0 56 56">
    <g fill="none" fill-rule="evenodd">
        <g>
            <g transform="translate(-152 -490) translate(152 490)">
                <rect width="56" height="56" fill="#FFF" rx="24.745"/>
                <g transform="translate(7 7)">
                    <circle cx="21" cy="21" r="20.381" fill="#4FB4A2" fill-rule="nonzero"/>
                    <path fill="#FFF" d="M21 39.137c-10.017 0-18.137-8.12-18.137-18.137 0-10.017 8.12-18.137 18.137-18.137 10.017 0 18.137 8.12 18.137 18.137C39.125 31.012 31.012 39.125 21 39.137zm0-34.97c-6.808 0-12.946 4.101-15.552 10.391-2.605 6.29-1.165 13.53 3.65 18.345 4.813 4.814 12.054 6.254 18.344 3.649 6.29-2.606 10.391-8.744 10.391-15.552C37.827 11.706 30.294 4.173 21 4.167z"/>
                    <path fill="#FFF" d="M18.911 16.922h-2.785v9.162c.032.421-.094.84-.354 1.172-.231.254-.562.396-.906.387-.351.012-.69-.13-.929-.387-.264-.33-.39-.75-.353-1.172v-9.162h-2.797c-.348.023-.693-.079-.972-.288-.211-.196-.325-.475-.31-.762-.014-.296.108-.58.332-.774.272-.206.61-.308.95-.287h8.124c.354-.03.706.077.984.298.22.19.342.471.331.763.013.291-.11.572-.331.762-.283.21-.632.313-.984.288zM24.316 16.148v4.42l5.018-5.227c.187-.207.395-.396.619-.564.2-.13.436-.192.674-.176.325-.014.643.101.884.32.224.198.35.486.343.785-.032.431-.24.83-.575 1.105l-3.106 2.94 3.581 5.128c.217.292.406.602.564.929.123.243.188.512.188.785 0 .28-.122.545-.332.73-.246.216-.568.327-.895.309-.308.011-.612-.07-.873-.233-.231-.157-.424-.365-.564-.607-.155-.244-.287-.476-.409-.686l-3.028-4.642-2.09 2.012v2.608c.033.421-.093.84-.353 1.172-.24.254-.578.395-.928.387-.456-.004-.876-.248-1.106-.641-.089-.172-.141-.36-.154-.553V16.148c-.038-.415.08-.829.331-1.16.236-.263.577-.405.929-.387.349-.013.686.124.928.375.262.332.388.75.354 1.172z"/>
                </g>
            </g>
        </g>
    </g>
</svg>
