<svg xmlns="http://www.w3.org/2000/svg" width="56" height="56" viewBox="0 0 56 56">
    <g fill="none" fill-rule="evenodd">
        <g>
            <g transform="translate(-43 -617) translate(43 617)">
                <rect width="56" height="56" fill="#FFF" rx="24.745"/>
                <g>
                    <g transform="translate(7 7) translate(0 4.421)">
                        <path fill="#4FB4A2" fill-rule="nonzero" d="M12.316 9.566C5.764 9.566.451 14.878.451 21.43c0 6.553 5.313 11.865 11.865 11.865H24.15V21.43c.006-6.542-5.29-11.853-11.833-11.864z"/>
                        <path fill="#4FB4A2" fill-rule="nonzero" d="M29.683.304c-5.55.012-10.35 3.873-11.55 9.293 4.439 1.83 7.34 6.151 7.35 10.952v3.486h4.274c6.553 0 11.865-5.313 11.865-11.866C41.622 5.617 36.31.305 29.757.305h-.074z"/>
                        <path fill="#FFF" d="M6.835 19.95c1.318-1.406 2.542-2.897 3.665-4.462h1.26c-1.323 1.848-2.31 3.044-3.297 4.462 2.72-.116 5.492-.315 7.928-.546-.315-.485-.666-.944-1.05-1.375l1.102-.179c.807.947 1.53 1.963 2.163 3.034l-.788.704c-.346-.599-.472-.756-.808-1.291-2.982.262-6.3.462-9.975.608l-.2-.955zm10.637 7.434h-1.05v-.567h-7.35v.599h-1.05v-5.23h9.45v5.198zm-1.05-1.46v-2.761h-7.35v2.751l7.35.01z"/>
                        <circle cx="26.282" cy="12.169" r="1.018" fill="#FFF"/>
                        <circle cx="31.3" cy="12.169" r="1.018" fill="#FFF"/>
                        <circle cx="36.477" cy="12.169" r="1.018" fill="#FFF"/>
                    </g>
                </g>
            </g>
        </g>
    </g>
</svg>
