<svg id="Layer_2" data-name="Layer 2" xmlns="http://www.w3.org/2000/svg" viewBox="0 0 56 56"><defs><style>.cls-1{fill:#4fb4a2;}</style></defs><title>icon_0316</title><path class="cls-1" d="M32.46,13.49l-9.72,5.39a2.23,2.23,0,0,1-.88.18l-9.32,0a2.14,2.14,0,0,0-2.14,2.14v9.91a2.13,2.13,0,0,0,2.13,2.14h2.55l2.68,9.16a1.74,1.74,0,0,0,2,1.45l.27,0a1.74,1.74,0,0,0,1.45-2l-2.59-8.57h3a2.4,2.4,0,0,1,.87.17l9.73,5.34a2.14,2.14,0,0,0,3-2V15.44A2.14,2.14,0,0,0,32.46,13.49Z"/><rect class="cls-1" x="38.62" y="24.81" width="8.36" height="2.29" rx="1.14"/><path class="cls-1" d="M39.17,33,45,36.2a.9.9,0,0,0,1.28-.55h0a1.24,1.24,0,0,0-.46-1.52L40,30.91a.9.9,0,0,0-1.28.55h0A1.24,1.24,0,0,0,39.17,33Z"/><path class="cls-1" d="M39.17,18.92,45,15.7a.9.9,0,0,1,1.28.56h0a1.24,1.24,0,0,1-.46,1.52L40,21a.9.9,0,0,1-1.28-.55h0A1.25,1.25,0,0,1,39.17,18.92Z"/></svg>