<?xml version="1.0" encoding="UTF-8"?>
<svg width="296px" height="170px" viewBox="0 0 296 170" version="1.1" xmlns="http://www.w3.org/2000/svg" xmlns:xlink="http://www.w3.org/1999/xlink">
    <title>Group 2 Copy 17</title>
    <g id="-page1" stroke="none" stroke-width="1" fill="none" fill-rule="evenodd">
        <g id="Group-2-Copy-17">
            <path d="M32,0 L264,0 C281.673112,-3.24649801e-15 296,14.326888 296,32 L296,154 C296,162.836556 288.836556,170 280,170 L211.697638,170 C202.901655,170 194.493501,166.379341 188.449296,159.988965 C178.367408,149.329655 164.884309,144 148,144 C131.115692,144 117.632593,149.329655 107.550705,159.988964 C101.506501,166.379341 93.0983464,170 84.3023632,170 L16,170 C7.163444,170 1.082166e-15,162.836556 0,154 L0,32 C-2.164332e-15,14.326888 14.326888,3.24649801e-15 32,0 Z" id="Rectangle" fill="#DADADA" fill-rule="nonzero"></path>
            <path d="M34,12 L262,12 C274.150264,12 284,21.8497355 284,34 L284,110 C284,122.150264 274.150264,132 262,132 L34,132 C21.8497355,132 12,122.150264 12,110 L12,34 C12,21.8497355 21.8497355,12 34,12 Z" id="Rectangle" fill="#FFFFFF"></path>
            <g id="Group" transform="translate(12.000000, 31.000000)">
                <rect id="Rectangle" fill="#D0D0D0" x="0" y="0" width="272" height="1"></rect>
                <rect id="Rectangle-Copy-3" fill="#D0D0D0" x="0" y="32" width="272" height="1"></rect>
                <rect id="Rectangle-Copy-5" fill="#D0D0D0" x="0" y="64" width="272" height="1"></rect>
                <rect id="Rectangle-Copy-2" fill="#D0D0D0" x="0" y="16" width="272" height="1"></rect>
                <rect id="Rectangle-Copy-4" fill="#D0D0D0" x="0" y="48" width="272" height="1"></rect>
                <rect id="Rectangle-Copy-6" fill="#D0D0D0" x="0" y="80" width="272" height="1"></rect>
                <path d="M139.037153,16.6206042 C139.037153,16.6206042 157.056417,16 167.157971,20.3001249 C177.259525,24.6002498 189.607206,24.3837143 208.469856,24.7370427" id="Path" stroke="#6E6E6E" stroke-width="4" stroke-linecap="round"></path>
                <path d="M63,20.6916092 C63,20.6916092 73.9227152,20.7558502 79.9825718,23 C88.3484047,26.0981232 89.2376624,31.4380768 92.5114412,37 C95.7852199,42.5619232 99.9278996,45.5966316 104.837757,45.5966316 C112.580395,45.5966316 115.450788,45.5966316 121.840951,45.5966316" id="Path" stroke="#6E6E6E" stroke-width="4" stroke-linecap="round"></path>
                <path d="M139.037153,20.663255 C139.037153,20.663255 161.107612,18.1473969 171.209166,22.4475218 C181.31072,26.7476467 191.255568,19.3573291 210.118218,19.7106576" id="Path" stroke="#F27E20" stroke-width="4" stroke-linecap="round"></path>
                <path d="M63,16.5894673 C63,16.5894673 73.9340795,15.9034256 79.9939362,18.1475754 C88.359769,21.2456986 89.2376624,24.8486095 92.5114412,30.4105327 C95.7852199,35.9724559 99.9278996,39.0071643 104.837757,39.0071643 C112.580395,39.0071643 120.925956,35.6099579 127.316119,35.6099579" id="Path" stroke="#F27E20" stroke-width="4" stroke-linecap="round"></path>
            </g>
        </g>
    </g>
</svg>