<?xml version="1.0" encoding="UTF-8"?>
<svg width="78px" height="78px" viewBox="0 0 78 78" version="1.1" xmlns="http://www.w3.org/2000/svg" xmlns:xlink="http://www.w3.org/1999/xlink">
    <title>ic/tabs/big</title>
    <defs>
        <filter id="filter-1">
            <feColorMatrix in="SourceGraphic" type="matrix" values="0 0 0 0 0.950379 0 0 0 0 0.494627 0 0 0 0 0.124592 0 0 0 1.000000 0"></feColorMatrix>
        </filter>
    </defs>
    <g id="-page1" stroke="none" stroke-width="1" fill="none" fill-rule="evenodd">
        <g id="home" transform="translate(-141.000000, -595.000000)">
            <g id="ic/tabs/big" transform="translate(141.000000, 595.000000)">
                <g filter="url(#filter-1)" id="ic-38">
                    <g>
                        <g id="Layer_1" transform="translate(14.000000, 15.000000)" stroke="#CECDCD" stroke-width="0.5">
                            <ellipse id="Oval" cx="24" cy="23.286785" rx="23.0769231" ry="23.1755424"></ellipse>
                        </g>
                        <g id="Layer_2" fill="#F27E20" fill-rule="nonzero">
                            <rect id="Rectangle" x="0" y="0" width="78" height="78" rx="34.4281843"></rect>
                        </g>
                    </g>
                </g>
                <g id="ic/micro" transform="translate(10.000000, 10.000000)" fill="#FFFFFF">
                    <path d="M49.2389474,13.7368421 L40.5389474,13.7368421 L39.6536842,9.67684211 C39.0971805,7.40920624 37.0428942,5.83044924 34.7084211,5.87631579 L23.3526316,5.87631579 C21.0143841,5.8289767 18.954917,7.40684535 18.3921053,9.67684211 L17.5221053,13.7368421 L8.79157895,13.7368421 C6.09094219,13.6511271 3.83070557,15.767965 3.73947368,18.4684211 L3.73947368,43.5457895 C3.78324473,44.8414235 4.34030387,46.0665059 5.28792909,46.951147 C6.2355543,47.8357881 7.49599758,48.3074072 8.79157895,48.2621053 L49.2389474,48.2621053 C51.9311565,48.3478247 54.1845622,46.2378176 54.2757895,43.5457895 L54.2757895,18.3921053 C54.1439776,15.7279775 51.9051919,13.6587968 49.2389474,13.7368421 Z M29.0152632,42.9963158 C22.4233087,42.9963158 17.0794737,37.6524808 17.0794737,31.0605263 C17.0794737,24.4685718 22.4233087,19.1247368 29.0152632,19.1247368 C35.6072177,19.1247368 40.9510526,24.4685718 40.9510526,31.0605263 C40.9510526,34.2260945 39.6935356,37.2620093 37.4551408,39.500404 C35.2167461,41.7387987 32.1808313,42.9963158 29.0152632,42.9963158 L29.0152632,42.9963158 Z M14.0573684,19.8421053 C14.0573684,21.0981171 13.0391697,22.1163158 11.7831579,22.1163158 C10.5271461,22.1163158 9.50894737,21.0981171 9.50894737,19.8421053 C9.50894737,18.5860935 10.5271461,17.5678947 11.7831579,17.5678947 C13.0391697,17.5678947 14.0573684,18.5860935 14.0573684,19.8421053 Z" id="Shape"></path>
                    <circle id="Oval" cx="29.0152632" cy="31.0605263" r="8.95947368"></circle>
                </g>
            </g>
        </g>
    </g>
</svg>