<svg id="Layer_2" data-name="Layer 2" xmlns="http://www.w3.org/2000/svg" viewBox="0 0 56 56"><defs><style>.cls-1{fill:#4fb4a2;fill-rule:evenodd;}</style></defs><title>icon_0316</title><path class="cls-1" d="M27.54,26.31A13.85,13.85,0,0,1,17.4,20.74c-.72-1.2-1.31-2.11-2.61-1.87a2.32,2.32,0,0,0-1.9,2.7,11.62,11.62,0,0,0,8.91,7.82V39.66a2.23,2.23,0,0,0,2.26,2.2h8.8a2.23,2.23,0,0,0,2.26-2.2V34c2.48,1.95,3.21,6.09,3.23,6.42a2.39,2.39,0,0,0,2.37,2.24h.07c1.31,0,2.63-1.07,2.31-2.38-1.51-6.07-5.44-12.53-14.24-13.86Zm.93-2a5.52,5.52,0,1,0-5.68-5.52,5.6,5.6,0,0,0,5.68,5.52"/></svg>