<svg id="Layer_2" data-name="Layer 2" xmlns="http://www.w3.org/2000/svg" viewBox="0 0 56 56"><defs><style>.cls-1{fill:#4fb4a2;}</style></defs><title>icon_0316</title><path class="cls-1" d="M41.7,18H36l-.58-2.66a3.27,3.27,0,0,0-3.24-2.49H24.74a3.28,3.28,0,0,0-3.25,2.49L20.92,18H15.2a3.21,3.21,0,0,0-3.31,3.1V37.53a3.2,3.2,0,0,0,3.31,3.09H41.7A3.2,3.2,0,0,0,45,37.53V21.05A3.21,3.21,0,0,0,41.7,18ZM28.45,37.17a7.82,7.82,0,1,1,7.82-7.82A7.82,7.82,0,0,1,28.45,37.17ZM18.65,22a1.49,1.49,0,1,1-1.49-1.49A1.49,1.49,0,0,1,18.65,22Z"/><circle class="cls-1" cx="28.45" cy="29.35" r="5.87"/></svg>