<?xml version="1.0" encoding="utf-8"?>
<!-- Generator: Adobe Illustrator 21.1.0, SVG Export Plug-In . SVG Version: 6.00 Build 0)  -->
<svg version="1.1" id="Layer_2" xmlns="http://www.w3.org/2000/svg" xmlns:xlink="http://www.w3.org/1999/xlink" x="0px" y="0px"
	 viewBox="0 0 56 56" style="enable-background:new 0 0 56 56;" xml:space="preserve">
<style type="text/css">
	.st0{fill:#FFFFFF;}
</style>
<title>icon_0316</title>
<path class="st0" d="M34.9,42.3H21.1c-1.4,0-2.5-1.1-2.5-2.5l0,0V16c0-1.4,1.1-2.5,2.5-2.5l0,0h13.8c1.4,0,2.5,1.1,2.5,2.5l0,0v23.8
	C37.5,41.2,36.3,42.3,34.9,42.3L34.9,42.3z M45.9,21l-7-2.3v21.6c0,0.7-0.3,1.4-0.9,1.9l0.7,0.2c1.3,0.4,2.7-0.3,3.2-1.6
	c0,0,0,0,0,0l0,0l5.6-16.7C47.9,22.9,47.2,21.5,45.9,21z M17.1,40.3V18.6l-7,2.3c-1.3,0.4-2,1.9-1.6,3.2c0,0,0,0,0,0l5.6,16.7
	c0.4,1.3,1.9,2,3.2,1.6l0,0l0.8-0.3C17.5,41.7,17.2,41,17.1,40.3z"/>
</svg>
