<svg id="Layer_2" data-name="Layer 2" xmlns="http://www.w3.org/2000/svg" viewBox="0 0 56 56"><defs><style>.cls-1{fill:#4fb4a2;}</style></defs><title>icon_0316</title><path class="cls-1" d="M34.94,42.29H21.13a2.52,2.52,0,0,1-2.52-2.52V16a2.52,2.52,0,0,1,2.52-2.52H34.94A2.52,2.52,0,0,1,37.46,16V39.77A2.52,2.52,0,0,1,34.94,42.29ZM45.88,21l-7-2.31v21.6A2.51,2.51,0,0,1,38,42.2l.69.23a2.52,2.52,0,0,0,3.19-1.59h0l5.56-16.66A2.52,2.52,0,0,0,45.88,21ZM17.14,40.28V18.65l-7,2.34a2.52,2.52,0,0,0-1.59,3.19l5.56,16.66a2.53,2.53,0,0,0,3.19,1.6h0l.75-.25A2.56,2.56,0,0,1,17.14,40.28Z"/></svg>