<?xml version="1.0" encoding="UTF-8"?>
<svg width="40px" height="38px" viewBox="0 0 40 38" version="1.1" xmlns="http://www.w3.org/2000/svg" xmlns:xlink="http://www.w3.org/1999/xlink">
    <title>Changhua</title>
    <g id="-page1" stroke="none" stroke-width="1" fill="none" fill-rule="evenodd">
        <g id="tones" transform="translate(-108.000000, -353.000000)" fill="#ACDCE1" fill-rule="nonzero">
            <path d="M126.611292,356.00414 C126.611292,356.00414 127.79537,353.360522 128.888998,353.496197 C129.982625,353.631873 129.526262,355.909579 130.393763,357.188219 C131.261265,358.462747 131.968423,359.494704 140.610548,364.781941 C142.189319,365.748116 141.638394,366.109918 140.46665,366.796519 C139.192121,367.540679 138.859099,367.310441 139.747158,371.273814 C140.635216,375.237186 140.499541,378.999101 141.387599,382.107306 C142.275658,385.219622 142.822472,385.523864 144.121668,386.514707 C145.420865,387.50555 146.781733,388.701963 147.139423,389.08021 C147.571118,389.536573 147.299767,390.621978 145.827892,390.519194 C144.360129,390.416409 133.830879,390.47808 130.377318,389.450234 C126.923757,388.4265 125.3861,387.53433 121.591294,387.604224 C117.796489,387.674117 114.277145,389.211774 113.113624,389.174772 C111.950103,389.137769 108.056624,389.310447 108.874789,387.77279 C109.701177,386.243356 126.611292,356.00414 126.611292,356.00414 Z" id="Changhua"></path>
        </g>
    </g>
</svg>