<?xml version="1.0" encoding="utf-8"?>
<!-- Generator: Adobe Illustrator 21.1.0, SVG Export Plug-In . SVG Version: 6.00 Build 0)  -->
<svg version="1.1" id="圖層_1" xmlns="http://www.w3.org/2000/svg" xmlns:xlink="http://www.w3.org/1999/xlink" x="0px" y="0px"
	 viewBox="0 0 40 38" style="enable-background:new 0 0 40 38;" xml:space="preserve">
<style type="text/css">
	.st0{fill:#F27E20;}
</style>
<title>Changhua</title>
<g id="_x2D_page1">
	<g id="tones" transform="translate(-108.000000, -353.000000)">
		<path id="Changhua" class="st0" d="M126.6,356c0,0,1.2-2.6,2.3-2.5c1.1,0.1,0.6,2.4,1.5,3.7c0.9,1.3,1.6,2.3,10.2,7.6
			c1.6,1,1,1.3-0.1,2c-1.3,0.7-1.6,0.5-0.7,4.5c0.9,4,0.8,7.7,1.6,10.8c0.9,3.1,1.4,3.4,2.7,4.4s2.7,2.2,3,2.6
			c0.4,0.5,0.2,1.5-1.3,1.4c-1.5-0.1-12,0-15.5-1.1c-3.5-1-5-1.9-8.8-1.8s-7.3,1.6-8.5,1.6c-1.2,0-5.1,0.1-4.2-1.4
			C109.7,386.2,126.6,356,126.6,356z"/>
	</g>
</g>
</svg>
