<?xml version="1.0" encoding="UTF-8"?>
<svg width="11px" height="7px" viewBox="0 0 11 7" version="1.1" xmlns="http://www.w3.org/2000/svg" xmlns:xlink="http://www.w3.org/1999/xlink">
    <title>Chiayi4</title>
    <g id="-page1" stroke="none" stroke-width="1" fill="none" fill-rule="evenodd">
        <g id="tones" transform="translate(-127.000000, -416.000000)" fill="#8BCDC5" fill-rule="nonzero">
            <path d="M127.737811,419.150859 C127.507573,419.685338 127.573355,420.429499 128.194174,420.647402 C128.646426,420.807746 129.115124,420.898196 129.57971,421.009203 C129.859284,421.074986 130.138858,421.173659 130.356761,421.362782 C130.53355,421.514903 130.640446,421.724584 130.792568,421.897262 C130.940577,422.065829 131.100921,422.222061 131.273599,422.36596 C131.577842,422.616754 131.972534,422.896328 132.387784,422.892261 C132.770142,422.883994 133.070273,422.501635 133.308733,422.246729 C133.530748,422.004158 133.728094,421.761586 134.024114,421.605354 C134.620264,421.288777 135.339756,421.41623 135.989355,421.420342 C136.351156,421.424453 136.717069,421.424453 137.074759,421.379228 C137.366668,421.342225 137.49412,421.165436 137.527011,420.881751 C137.555791,420.610399 137.596905,420.34316 137.638019,420.071808 C137.687355,419.747009 137.69969,419.405764 137.572237,419.101522 C137.383113,418.661604 136.951418,418.488926 136.523834,418.357362 C136.100362,418.225798 135.652221,418.176461 135.208192,418.17235 C134.87517,418.168238 134.51748,418.110679 134.246129,417.90511 C133.991223,417.715986 133.983,417.456969 133.814433,417.218509 C133.703426,417.058165 133.501968,416.988272 133.308733,416.963603 C133.008602,416.926601 132.700249,416.926601 132.396007,416.918378 C132.034205,416.910155 131.655958,416.947158 131.339381,417.136281 C130.899463,417.391187 130.389652,417.543308 129.920955,417.736543 C129.538596,417.896887 129.152126,418.044897 128.786213,418.238132 C128.403855,418.43959 128.03383,418.624602 127.811815,419.019295 C127.778924,419.06452 127.758368,419.109745 127.737811,419.150859 Z" id="Chiayi4"></path>
        </g>
    </g>
</svg>