<?xml version="1.0" encoding="UTF-8"?>
<svg width="75px" height="40px" viewBox="0 0 75 40" version="1.1" xmlns="http://www.w3.org/2000/svg" xmlns:xlink="http://www.w3.org/1999/xlink">
    <title>Chiayi</title>
    <g id="-page1" stroke="none" stroke-width="1" fill="none" fill-rule="evenodd">
        <g id="tones" transform="translate(-98.000000, -405.000000)" fill="#8BCDC5" fill-rule="nonzero">
            <path d="M171.635038,420.561063 C170.405734,420.219818 166.985064,419.673004 165.278841,416.289337 C163.568506,412.905669 163.811077,411.742148 163.19437,410.788307 C162.577663,409.830355 159.691473,408.222805 159.161104,407.918563 C159.161104,407.918563 156.29136,406.109555 156.254357,407.560872 C156.221466,409.01219 155.296405,410.003033 150.852001,410.138709 C146.407597,410.274385 137.794251,410.447063 137.794251,410.447063 C137.794251,410.447063 135.981132,410.344278 133.933663,408.720282 C131.882084,407.096286 130.073076,405.320169 127.680251,405.488736 C125.287427,405.661414 119.543826,409.554893 118.828446,410.101707 C118.108954,410.64852 114.828071,413.144129 114.145581,414.167864 C113.463092,415.191598 112.98206,415.294382 111.481406,415.569845 C109.980751,415.845308 108.167632,417.037608 107.172677,418.780834 C106.181834,420.52406 106.251728,420.935199 104.915528,420.556951 C103.583441,420.182816 101.564752,418.67805 100.302558,418.949401 C99.0362519,419.224864 98.423656,420.659736 98.423656,422.263175 C98.423656,423.866614 98.423656,435.90063 98.423656,435.90063 C98.423656,435.90063 99.5501747,436.755797 102.592597,437.676747 C105.63502,438.597696 106.214725,438.017991 106.999999,436.924364 C107.785273,435.830736 115.683238,428.446694 116.87965,427.66142 C118.076063,426.876146 118.655767,426.193656 122.894602,426.193656 C127.133437,426.193656 127.918711,425.819521 128.535419,425.613951 C129.152126,425.408382 130.41432,425.067138 131.783411,426.436228 C133.152501,427.805318 137.490009,431.838584 137.490009,431.838584 C137.490009,431.838584 138.583637,433.34335 138.106716,435.292145 C137.629796,437.24094 138.480852,438.367459 138.826208,439.049948 C139.167453,439.732438 140.261081,442.503509 140.602325,443.21889 C140.94357,443.938382 141.868631,444.962116 142.415445,444.653762 C142.962259,444.345408 144.6027,441.097417 145.182405,441.302986 C145.76211,441.508555 146.140357,443.560134 147.233985,443.560134 C148.327612,443.560134 149.42124,443.630028 150.140732,441.134419 C150.860224,438.63881 152.500665,436.792799 153.421615,436.11031 C154.342564,435.427821 160.18895,432.109935 163.231373,429.00173 C166.273795,425.889414 171.330795,421.958933 171.877609,421.65469 C172.420312,421.346337 172.868452,420.902308 171.635038,420.561063 Z M138.686421,420.376051 C138.550746,421.605354 138.571303,422.33718 137.477675,422.312512 C136.384047,422.287843 134.834056,422.267286 134.332468,422.949776 C133.830879,423.632265 133.604753,423.998178 132.622133,424.068072 C131.643624,424.137965 131.002248,423.340357 130.184083,422.653756 C129.361807,421.971267 128.268179,422.131611 127.881709,421.926042 C127.495239,421.720473 126.261824,421.309334 126.286493,420.059474 C126.311161,418.805503 126.216599,417.802325 129.111012,416.938935 C129.678383,416.770368 130.340315,416.071434 130.932355,415.980983 C131.524394,415.890533 133.345736,415.52462 134.192681,416.207109 C134.192681,416.207109 134.96562,416.889599 136.449829,417.074611 C137.934038,417.255512 138.822097,419.146747 138.686421,420.376051 Z" id="Chiayi"></path>
        </g>
    </g>
</svg>