<?xml version="1.0" encoding="utf-8"?>
<!-- Generator: Adobe Illustrator 21.1.0, SVG Export Plug-In . SVG Version: 6.00 Build 0)  -->
<svg version="1.1" id="圖層_1" xmlns="http://www.w3.org/2000/svg" xmlns:xlink="http://www.w3.org/1999/xlink" x="0px" y="0px"
	 viewBox="0 0 75 40" style="enable-background:new 0 0 75 40;" xml:space="preserve">
<style type="text/css">
	.st0{fill:#F27E20;}
</style>
<title>Chiayi</title>
<g id="_x2D_page1">
	<g id="tones" transform="translate(-98.000000, -405.000000)">
		<path id="Chiayi" class="st0" d="M171.6,420.6c-1.2-0.3-4.6-0.9-6.4-4.3c-1.7-3.4-1.5-4.5-2.1-5.5c-0.6-1-3.5-2.6-4-2.9
			c0,0-2.9-1.8-2.9-0.4c0,1.5-1,2.4-5.4,2.6c-4.4,0.1-13.1,0.3-13.1,0.3s-1.8-0.1-3.9-1.7c-2.1-1.6-3.9-3.4-6.3-3.2
			c-2.4,0.2-8.1,4.1-8.9,4.6c-0.7,0.5-4,3-4.7,4.1c-0.7,1-1.2,1.1-2.7,1.4c-1.5,0.3-3.3,1.5-4.3,3.2c-1,1.7-0.9,2.2-2.3,1.8
			c-1.3-0.4-3.4-1.9-4.6-1.6c-1.3,0.3-1.9,1.7-1.9,3.3c0,1.6,0,13.6,0,13.6s1.1,0.9,4.2,1.8c3,0.9,3.6,0.3,4.4-0.8
			c0.8-1.1,8.7-8.5,9.9-9.3c1.2-0.8,1.8-1.5,6-1.5c4.2,0,5-0.4,5.6-0.6c0.6-0.2,1.9-0.5,3.2,0.8c1.4,1.4,5.7,5.4,5.7,5.4
			s1.1,1.5,0.6,3.5c-0.5,1.9,0.4,3.1,0.7,3.8c0.3,0.7,1.4,3.5,1.8,4.2c0.3,0.7,1.3,1.7,1.8,1.4c0.5-0.3,2.2-3.6,2.8-3.4
			c0.6,0.2,1,2.3,2.1,2.3s2.2,0.1,2.9-2.4s2.4-4.3,3.3-5c0.9-0.7,6.8-4,9.8-7.1c3-3.1,8.1-7,8.6-7.3
			C172.4,421.3,172.9,420.9,171.6,420.6z M138.7,420.4c-0.1,1.2-0.1,2-1.2,1.9c-1.1,0-2.6,0-3.1,0.6c-0.5,0.7-0.7,1-1.7,1.1
			c-1,0.1-1.6-0.7-2.4-1.4c-0.8-0.7-1.9-0.5-2.3-0.7c-0.4-0.2-1.6-0.6-1.6-1.9c0-1.3-0.1-2.3,2.8-3.1c0.6-0.2,1.2-0.9,1.8-1
			s2.4-0.5,3.3,0.2c0,0,0.8,0.7,2.3,0.9C137.9,417.3,138.8,419.1,138.7,420.4z"/>
	</g>
</g>
</svg>
