<?xml version="1.0" encoding="utf-8"?>
<!-- Generator: Adobe Illustrator 21.1.0, SVG Export Plug-In . SVG Version: 6.00 Build 0)  -->
<svg version="1.1" id="圖層_1" xmlns="http://www.w3.org/2000/svg" xmlns:xlink="http://www.w3.org/1999/xlink" x="0px" y="0px"
	 viewBox="0 0 11 7" style="enable-background:new 0 0 11 7;" xml:space="preserve">
<style type="text/css">
	.st0{fill:#F27E20;}
</style>
<title>Chiayi4</title>
<g id="_x2D_page1">
	<g id="tones" transform="translate(-127.000000, -416.000000)">
		<path id="Chiayi4" class="st0" d="M127.7,419.2c-0.2,0.5-0.2,1.3,0.5,1.5c0.5,0.2,0.9,0.3,1.4,0.4c0.3,0.1,0.6,0.2,0.8,0.4
			c0.2,0.2,0.3,0.4,0.4,0.5c0.1,0.2,0.3,0.3,0.5,0.5c0.3,0.3,0.7,0.5,1.1,0.5c0.4,0,0.7-0.4,0.9-0.6c0.2-0.2,0.4-0.5,0.7-0.6
			c0.6-0.3,1.3-0.2,2-0.2c0.4,0,0.7,0,1.1,0c0.3,0,0.4-0.2,0.5-0.5c0-0.3,0.1-0.5,0.1-0.8c0-0.3,0.1-0.7-0.1-1
			c-0.2-0.4-0.6-0.6-1-0.7c-0.4-0.1-0.9-0.2-1.3-0.2c-0.3,0-0.7-0.1-1-0.3c-0.3-0.2-0.3-0.4-0.4-0.7c-0.1-0.2-0.3-0.2-0.5-0.3
			c-0.3,0-0.6,0-0.9,0c-0.4,0-0.7,0-1.1,0.2c-0.4,0.3-0.9,0.4-1.4,0.6c-0.4,0.2-0.8,0.3-1.1,0.5c-0.4,0.2-0.8,0.4-1,0.8
			C127.8,419.1,127.8,419.1,127.7,419.2z"/>
	</g>
</g>
</svg>
