<?xml version="1.0" encoding="UTF-8"?>
<svg width="38px" height="54px" viewBox="0 0 38 54" version="1.1" xmlns="http://www.w3.org/2000/svg" xmlns:xlink="http://www.w3.org/1999/xlink">
    <title>ic/close</title>
    <defs>
        <linearGradient x1="60.0318489%" y1="-20.4770859%" x2="60.0318489%" y2="128.306586%" id="linearGradient-1">
            <stop stop-color="#F9EF81" offset="0%"></stop>
            <stop stop-color="#94CC95" offset="20.7284213%"></stop>
            <stop stop-color="#4FB4A2" offset="46.7206105%"></stop>
            <stop stop-color="#4D9FAF" offset="67.6219643%"></stop>
            <stop stop-color="#4980C1" offset="100%"></stop>
        </linearGradient>
    </defs>
    <g id="-page1" stroke="none" stroke-width="1" fill="none" fill-rule="evenodd">
        <g id="Scene--Recognition3" transform="translate(-32.000000, -176.000000)">
            <g id="ic/close" transform="translate(32.000000, 176.000000)">
                <rect id="Rectangle" fill="url(#linearGradient-1)" x="0" y="0" width="38" height="54" rx="16.1382114"></rect>
                <path d="M26.9395836,18.0239339 L27.9771596,19.1069231 C28.0067157,19.3897379 28.0081252,19.593725 27.9771596,19.6484177 L20.7141278,27.2293423 C20.6099445,27.3970031 20.607874,27.6016874 20.7141278,27.7708369 L27.9771596,35.3517615 C28.0060547,35.4049655 28.0091334,35.6085864 27.9771596,35.8932561 L26.9395836,36.9762454 C26.6830747,37.0072553 26.4895185,37.0085743 26.4207956,36.9762454 L19,29.23 L11.5792044,36.9762454 C11.5219353,37.0031861 11.3779765,37.0067603 11.1831383,36.9892578 L11.0604164,36.9762454 L10.0228404,35.8932561 C9.9908666,35.6085864 9.99394534,35.4049655 10.0228404,35.3517615 L10.0228404,35.3517615 L17.2858722,27.7708369 C17.392126,27.6016874 17.3900555,27.3970031 17.2858722,27.2293423 L17.2858722,27.2293423 L10.0228404,19.6484177 C9.99187484,19.593725 9.99328427,19.3897379 10.0228404,19.1069231 L10.0228404,19.1069231 L11.0604164,18.0239339 C11.319343,17.9910691 11.5111351,17.9929894 11.5792044,18.0239339 L11.5792044,18.0239339 L19,25.769 L26.4207956,18.0239339 C26.4888649,17.9929894 26.680657,17.9910691 26.9395836,18.0239339 Z" id="Combined-Shape" fill="#FFFFFF"></path>
            </g>
        </g>
    </g>
</svg>