<?xml version="1.0" encoding="UTF-8"?>
<svg width="48px" height="47px" viewBox="0 0 48 47" version="1.1" xmlns="http://www.w3.org/2000/svg" xmlns:xlink="http://www.w3.org/1999/xlink">
    <title>Hsinchu</title>
    <g id="-page1" stroke="none" stroke-width="1" fill="none" fill-rule="evenodd">
        <g id="tones" transform="translate(-165.000000, -282.000000)" fill="#74CAE5" fill-rule="nonzero">
            <path d="M173.616724,282.67764 C174.961146,282.940769 180.519734,282.953103 185.305383,288.281454 C190.091032,293.609805 189.379763,293.544023 194.383315,295.324252 C199.386867,297.100369 201.985261,297.100369 201.232878,301.203528 C200.480495,305.306687 200.957415,307.082804 202.943213,308.382001 C204.924899,309.681198 211.832021,313.985815 211.832021,313.985815 C211.832021,313.985815 213.846598,315.112334 211.457885,317.813512 C209.065061,320.51469 206.544783,325.008431 201.376776,328.239977 C199.411535,329.46928 200.418824,327.726054 200.147473,326.052722 C200.147473,326.052722 199.349865,319.618409 193.651489,316.822669 C189.938911,315.001326 185.893311,314.277723 182.08206,312.748289 C177.329302,310.836496 173.148026,307.600839 168.929748,304.755762 C168.51861,304.4803 168.10336,304.196614 167.786784,303.814256 C166.861723,302.69596 167.326309,300.936288 167.963573,299.797435 C168.296595,299.201285 168.806407,298.679139 169.451894,298.461236 C170.327618,298.165217 171.293793,298.469459 172.111958,298.897043 C173.259034,299.493193 174.776134,300.833504 175.845093,299.435634 C176.548139,298.518795 176.597476,296.923579 176.01366,295.940959 C175.244831,294.654096 174.270434,293.490575 173.106912,292.549069 C171.593924,291.327988 169.760247,290.67839 167.906014,290.180912 C167.363312,290.037014 166.79183,289.884893 166.380691,289.502534 C164.38256,287.635967 169.595792,284.725108 170.677086,283.849384 C171.548699,283.134003 172.412089,282.43918 173.616724,282.67764 Z" id="Hsinchu"></path>
        </g>
    </g>
</svg>