<?xml version="1.0" encoding="UTF-8"?>
<svg width="11px" height="11px" viewBox="0 0 11 11" version="1.1" xmlns="http://www.w3.org/2000/svg" xmlns:xlink="http://www.w3.org/1999/xlink">
    <title>Hsinchu4</title>
    <g id="-page1" stroke="none" stroke-width="1" fill="none" fill-rule="evenodd">
        <g id="tones" transform="translate(-163.000000, -291.000000)" fill="#74CAE5" fill-rule="nonzero">
            <path d="M165.920217,291.471886 C165.509078,291.356768 165.077383,291.138864 164.637465,291.299208 C164.255107,291.438995 164.226327,291.854245 164.168768,292.207824 C163.963199,293.44535 163.724738,294.678765 163.560283,295.920402 C163.428719,296.903022 163.264264,298.017207 163.519169,298.991604 C163.679513,299.6042 163.856303,300.225019 164.172879,300.775944 C164.407228,301.182971 165.089717,302.128589 165.554304,301.520104 C166.849389,299.809769 167.910125,297.601957 169.883589,296.561778 C170.335841,296.323317 170.825095,296.162973 171.334907,296.117748 C171.926946,296.0643 172.44498,296.236978 173.012351,296.376765 C173.238477,296.434325 173.472826,296.467216 173.542719,296.187642 C173.703063,295.570934 173.518051,293.955161 171.972171,293.338454 C170.430403,292.725858 165.928439,291.475998 165.920217,291.471886 Z" id="Hsinchu4"></path>
        </g>
    </g>
</svg>