<?xml version="1.0" encoding="utf-8"?>
<!-- Generator: Adobe Illustrator 21.1.0, SVG Export Plug-In . SVG Version: 6.00 Build 0)  -->
<svg version="1.1" id="圖層_1" xmlns="http://www.w3.org/2000/svg" xmlns:xlink="http://www.w3.org/1999/xlink" x="0px" y="0px"
	 viewBox="0 0 11 11" style="enable-background:new 0 0 11 11;" xml:space="preserve">
<style type="text/css">
	.st0{fill:#F27E20;}
</style>
<title>Hsinchu4</title>
<g id="_x2D_page1">
	<g id="tones" transform="translate(-163.000000, -291.000000)">
		<path id="Hsinchu4" class="st0" d="M165.9,291.5c-0.4-0.1-0.8-0.3-1.3-0.2c-0.4,0.1-0.4,0.6-0.5,0.9c-0.2,1.2-0.4,2.5-0.6,3.7
			c-0.1,1-0.3,2.1,0,3.1c0.2,0.6,0.3,1.2,0.7,1.8c0.2,0.4,0.9,1.4,1.4,0.7c1.3-1.7,2.4-3.9,4.3-5c0.5-0.2,0.9-0.4,1.5-0.4
			c0.6-0.1,1.1,0.1,1.7,0.3c0.2,0.1,0.5,0.1,0.5-0.2c0.2-0.6,0-2.2-1.6-2.8C170.4,292.7,165.9,291.5,165.9,291.5z"/>
	</g>
</g>
</svg>
