<?xml version="1.0" encoding="utf-8"?>
<!-- Generator: Adobe Illustrator 21.1.0, SVG Export Plug-In . SVG Version: 6.00 Build 0)  -->
<svg version="1.1" id="圖層_1" xmlns="http://www.w3.org/2000/svg" xmlns:xlink="http://www.w3.org/1999/xlink" x="0px" y="0px"
	 viewBox="0 0 48 47" style="enable-background:new 0 0 48 47;" xml:space="preserve">
<style type="text/css">
	.st0{fill:#F27E20;}
</style>
<title>Hsinchu</title>
<g id="_x2D_page1">
	<g id="tones" transform="translate(-165.000000, -282.000000)">
		<path id="Hsinchu" class="st0" d="M173.6,282.7c1.3,0.3,6.9,0.3,11.7,5.6c4.8,5.3,4.1,5.3,9.1,7c5,1.8,7.6,1.8,6.8,5.9
			c-0.8,4.1-0.3,5.9,1.7,7.2c2,1.3,8.9,5.6,8.9,5.6s2,1.1-0.4,3.8c-2.4,2.7-4.9,7.2-10.1,10.4c-2,1.2-1-0.5-1.2-2.2
			c0,0-0.8-6.4-6.5-9.2c-3.7-1.8-7.8-2.5-11.6-4.1c-4.8-1.9-8.9-5.1-13.2-8c-0.4-0.3-0.8-0.6-1.1-0.9c-0.9-1.1-0.5-2.9,0.2-4
			c0.3-0.6,0.8-1.1,1.5-1.3c0.9-0.3,1.8,0,2.7,0.4c1.1,0.6,2.7,1.9,3.7,0.5c0.7-0.9,0.8-2.5,0.2-3.5c-0.8-1.3-1.7-2.5-2.9-3.4
			c-1.5-1.2-3.3-1.9-5.2-2.4c-0.5-0.1-1.1-0.3-1.5-0.7c-2-1.9,3.2-4.8,4.3-5.7C171.5,283.1,172.4,282.4,173.6,282.7z"/>
	</g>
</g>
</svg>
