<?xml version="1.0" encoding="UTF-8"?>
<svg width="67px" height="117px" viewBox="0 0 67 117" version="1.1" xmlns="http://www.w3.org/2000/svg" xmlns:xlink="http://www.w3.org/1999/xlink">
    <title>Hualien</title>
    <g id="-page1" stroke="none" stroke-width="1" fill="none" fill-rule="evenodd">
        <g id="tones" transform="translate(-182.000000, -334.000000)" fill="#95D3E2" fill-rule="nonzero">
            <path d="M188.010673,429.675997 C188.615046,427.488742 187.204842,427.003599 185.539732,426.526678 C184.474884,426.222436 182.702878,426.432117 182.608317,425.083583 C182.534312,423.981733 184.252869,424.06396 185.182042,423.644599 C186.304449,423.138899 187.011607,422.497524 186.970493,421.116099 C186.880043,418.016117 190.202039,413.555268 193.20746,412.843999 C195.390604,412.325964 197.146164,411.635252 197.158498,408.938186 C197.162609,408.202248 197.775205,407.577318 198.379578,407.100398 C200.661396,405.299612 201.820805,402.861563 202.384065,400.082268 C202.729421,398.367822 203.099445,396.657487 203.424244,394.938929 C203.839494,392.731117 203.333794,390.811102 201.479561,389.425566 C200.492829,388.689628 200.418824,387.933134 200.928635,386.843618 C202.219609,384.064324 203.383131,381.22747 204.624768,378.423507 C205.94041,375.446867 206.347437,372.564788 204.135513,369.764937 C203.448913,368.893323 203.675039,367.849032 204.262966,366.944528 C205.183916,365.526102 206.08842,364.095341 207.091597,362.738584 C208.345569,361.044695 209.393971,359.350806 209.134954,357.081323 C208.995167,355.856131 209.936674,355.107859 210.980965,354.75428 C212.687188,354.182798 212.736525,353.167287 212.1856,351.695412 C211.424994,349.647944 210.869957,347.522359 210.142243,345.462557 C209.59954,343.9249 209.916117,342.638037 210.968631,341.478627 C212.567958,339.714844 214.196066,337.983953 215.770725,336.203724 C216.897244,334.929196 218.22522,334.620842 219.83277,335.03198 C223.28222,335.915927 226.756338,336.713535 230.193453,337.638596 C231.37342,337.955173 232.524607,337.963396 233.429111,337.264461 C236.052173,335.253995 238.9877,335.278663 242.013677,335.677467 C243.436215,335.866591 244.854642,336.105051 246.268958,336.372291 C248.830349,336.857434 249.714296,339.406491 247.962847,341.33884 C246.78288,342.642149 245.364454,343.682328 243.900802,344.656726 C241.943784,345.960034 240.747371,347.838936 240.767928,350.145421 C240.796708,353.019277 240.163555,355.720455 239.386504,358.433967 C238.946586,359.967513 238.889027,361.554506 239.279608,363.079829 C239.629075,364.440697 239.555071,365.731671 238.946586,366.915749 C236.376972,371.927524 235.817824,377.424441 235.028439,382.8638 C233.975925,390.099833 232.968636,397.344088 231.912011,404.58012 C231.796893,405.377729 231.681774,406.269899 231.25419,406.907163 C229.593192,409.386326 229.905657,411.840821 230.966393,414.406324 C231.250079,415.092925 231.977793,415.985094 231.303527,416.614136 C230.756713,417.128059 229.872766,416.53602 229.186165,416.285225 C226.43565,415.269714 223.898927,415.676741 221.543105,417.354185 C220.441255,418.135347 219.865662,419.093299 220.202795,420.561063 C220.630379,422.423519 220.252131,424.594329 219.487414,426.321109 C217.119258,431.645349 210.487599,442.3555 208.686814,448.012761 C207.819312,451.112743 205.266144,450.693383 203.17345,449.151614 C199.66233,445.961182 200.825851,440.920627 196.336222,438.716926 C194.202414,437.668524 192.060384,435.185249 189.992359,434.017617 C188.195685,433.006217 187.566643,431.978371 188.010673,429.675997 Z" id="Hualien"></path>
        </g>
    </g>
</svg>