<?xml version="1.0" encoding="utf-8"?>
<!-- Generator: Adobe Illustrator 21.1.0, SVG Export Plug-In . SVG Version: 6.00 Build 0)  -->
<svg version="1.1" id="圖層_1" xmlns="http://www.w3.org/2000/svg" xmlns:xlink="http://www.w3.org/1999/xlink" x="0px" y="0px"
	 viewBox="0 0 67 117" style="enable-background:new 0 0 67 117;" xml:space="preserve">
<style type="text/css">
	.st0{fill:#F27E20;}
</style>
<title>Hualien</title>
<g id="_x2D_page1">
	<g id="tones" transform="translate(-182.000000, -334.000000)">
		<path id="Hualien" class="st0" d="M188,429.7c0.6-2.2-0.8-2.7-2.5-3.1c-1.1-0.3-2.8-0.1-2.9-1.4c-0.1-1.1,1.6-1,2.6-1.4
			c1.1-0.5,1.8-1.1,1.8-2.5c-0.1-3.1,3.2-7.6,6.2-8.3c2.2-0.5,3.9-1.2,4-3.9c0-0.7,0.6-1.4,1.2-1.8c2.3-1.8,3.4-4.2,4-7
			c0.3-1.7,0.7-3.4,1-5.1c0.4-2.2-0.1-4.1-1.9-5.5c-1-0.7-1.1-1.5-0.6-2.6c1.3-2.8,2.5-5.6,3.7-8.4c1.3-3,1.7-5.9-0.5-8.7
			c-0.7-0.9-0.5-1.9,0.1-2.8c0.9-1.4,1.8-2.8,2.8-4.2c1.3-1.7,2.3-3.4,2-5.7c-0.1-1.2,0.8-2,1.8-2.3c1.7-0.6,1.8-1.6,1.2-3.1
			c-0.8-2-1.3-4.2-2-6.2c-0.5-1.5-0.2-2.8,0.8-4c1.6-1.8,3.2-3.5,4.8-5.3c1.1-1.3,2.5-1.6,4.1-1.2c3.4,0.9,6.9,1.7,10.4,2.6
			c1.2,0.3,2.3,0.3,3.2-0.4c2.6-2,5.6-2,8.6-1.6c1.4,0.2,2.8,0.4,4.3,0.7c2.6,0.5,3.4,3,1.7,5c-1.2,1.3-2.6,2.3-4.1,3.3
			c-2,1.3-3.2,3.2-3.1,5.5c0,2.9-0.6,5.6-1.4,8.3c-0.4,1.5-0.5,3.1-0.1,4.6c0.3,1.4,0.3,2.7-0.3,3.8c-2.6,5-3.1,10.5-3.9,15.9
			c-1.1,7.2-2.1,14.5-3.1,21.7c-0.1,0.8-0.2,1.7-0.7,2.3c-1.7,2.5-1.3,4.9-0.3,7.5c0.3,0.7,1,1.6,0.3,2.2c-0.5,0.5-1.4-0.1-2.1-0.3
			c-2.8-1-5.3-0.6-7.6,1.1c-1.1,0.8-1.7,1.7-1.3,3.2c0.4,1.9,0,4-0.7,5.8c-2.4,5.3-9,16-10.8,21.7c-0.9,3.1-3.4,2.7-5.5,1.1
			c-3.5-3.2-2.3-8.2-6.8-10.4c-2.1-1-4.3-3.5-6.3-4.7C188.2,433,187.6,432,188,429.7z"/>
	</g>
</g>
</svg>
