<svg id="Layer_2" data-name="Layer 2" xmlns="http://www.w3.org/2000/svg" xmlns:xlink="http://www.w3.org/1999/xlink" viewBox="0 0 60 60"><defs><style>.cls-1{fill:#4a4a49;}.cls-2{clip-path:url(#clip-path);}.cls-3{fill:#4fb4a2;}.cls-4{fill:#fff;}</style><clipPath id="clip-path"><path class="cls-1" d="M-477.15-225.07c0-4.38.93-12.47,1.21-14.75a.82.82,0,0,0-.55-.82c-2.94-1.23-3.05-4.61-3.05-4.61v-9.66a.88.88,0,0,0-.91-.85h-2.78a.87.87,0,0,0-.9.85v3.67c0,4.52-6.83,4.52-6.83,4.52s-6.82,0-6.82-4.52v-3.67a.88.88,0,0,0-.91-.85h-2.77a.88.88,0,0,0-.91.85v9.66s-.12,3.38-3.05,4.61a.8.8,0,0,0-.55.82c.27,2.28,1.2,10.37,1.2,14.75s-.93,7.34-1.2,9.54a.83.83,0,0,0,.57.88c1.33.5,5.1,1.45,14.44,1.45s13.11-1,14.45-1.45a.84.84,0,0,0,.57-.88c-.27-2.2-1.21-5.16-1.21-9.54"/></clipPath></defs><title>ic</title><path class="cls-1" d="M-477.15-225.07c0-4.38.93-12.47,1.21-14.75a.82.82,0,0,0-.55-.82c-2.94-1.23-3.05-4.61-3.05-4.61v-9.66a.88.88,0,0,0-.91-.85h-2.78a.87.87,0,0,0-.9.85v3.67c0,4.52-6.83,4.52-6.83,4.52s-6.82,0-6.82-4.52v-3.67a.88.88,0,0,0-.91-.85h-2.77a.88.88,0,0,0-.91.85v9.66s-.12,3.38-3.05,4.61a.8.8,0,0,0-.55.82c.27,2.28,1.2,10.37,1.2,14.75s-.93,7.34-1.2,9.54a.83.83,0,0,0,.57.88c1.33.5,5.1,1.45,14.44,1.45s13.11-1,14.45-1.45a.84.84,0,0,0,.57-.88c-.27-2.2-1.21-5.16-1.21-9.54"/><g class="cls-2"><rect class="cls-1" x="-534.36" y="-492.81" width="626.03" height="1113.5"/></g><path class="cls-3" d="M30,24.09c-5,0-14.47-.55-14.47-2.61V36.61c0,2.06,9.63,3.66,14.63,3.66s14.31-1.6,14.31-3.66V21.48C44.47,23.54,35,24.09,30,24.09Z"/><path class="cls-3" d="M21.7,23.22V19.73C18,20.31,16,21,16,21.48S18,22.64,21.7,23.22Z"/><path class="cls-3" d="M38.31,19.73v3.49C42.05,22.64,44,22,44,21.48S42.05,20.31,38.31,19.73Z"/><polygon class="cls-4" points="26.12 33.64 23.74 33.64 23.74 33.12 24.62 33.12 24.62 30.2 23.72 30.45 23.72 29.91 25.23 29.5 25.23 33.12 26.12 33.12 26.12 33.64"/><path class="cls-4" d="M29.73,30.55a.54.54,0,0,0-.15-.41.63.63,0,0,0-.42-.15.75.75,0,0,0-.43.15.45.45,0,0,0-.17.39c0,.33.19.56.59.71a.73.73,0,0,0,.58-.69m-.62,1.26c-.46.19-.7.46-.7.82a.61.61,0,0,0,.21.47.77.77,0,0,0,.53.17.73.73,0,0,0,.51-.17.59.59,0,0,0,.2-.45c0-.4-.26-.67-.75-.84m-.46-.3a1,1,0,0,1-.69-1,.93.93,0,0,1,.35-.76,1.34,1.34,0,0,1,.87-.28,1.25,1.25,0,0,1,.82.27.83.83,0,0,1,.32.71,1.1,1.1,0,0,1-.74,1v0a1.15,1.15,0,0,1,.87,1.08,1,1,0,0,1-.38.84,1.63,1.63,0,0,1-1,.29,1.35,1.35,0,0,1-.88-.29,1,1,0,0,1-.36-.8,1.27,1.27,0,0,1,.84-1.14"/><path class="cls-4" d="M32.68,31.68c0,1,.26,1.56.76,1.56s.76-.52.76-1.58-.25-1.61-.74-1.61-.78.54-.78,1.63m-.64,0a2.76,2.76,0,0,1,.37-1.61,1.23,1.23,0,0,1,1.07-.56q1.35,0,1.35,2.07a2.75,2.75,0,0,1-.37,1.56,1.25,1.25,0,0,1-1.06.56,1.15,1.15,0,0,1-1-.52,2.62,2.62,0,0,1-.35-1.5"/><path class="cls-4" d="M37.23,30.75a.34.34,0,0,0,.28-.11.4.4,0,0,0,.12-.29.37.37,0,0,0-.12-.29.35.35,0,0,0-.28-.12.36.36,0,0,0-.28.12.4.4,0,0,0-.11.29.44.44,0,0,0,.11.29.36.36,0,0,0,.28.11m0-1.2a.74.74,0,0,1,.55.24.76.76,0,0,1,.22.56.79.79,0,0,1-.22.56.76.76,0,0,1-.55.23.74.74,0,0,1-.54-.23.8.8,0,0,1-.23-.56.77.77,0,0,1,.23-.56.71.71,0,0,1,.54-.24"/></svg>