<svg id="Layer_2" data-name="Layer 2" xmlns="http://www.w3.org/2000/svg" xmlns:xlink="http://www.w3.org/1999/xlink" viewBox="0 0 60 60"><defs><style>.cls-1{fill:#4a4a49;}.cls-2{clip-path:url(#clip-path);}.cls-3{fill:#4fb4a2;}.cls-4{fill:#fff;}</style><clipPath id="clip-path"><path class="cls-1" d="M-408.67-225.07c0-4.38.93-12.47,1.2-14.75a.8.8,0,0,0-.55-.82c-2.93-1.23-3.05-4.61-3.05-4.61v-9.66a.87.87,0,0,0-.9-.85h-2.78a.88.88,0,0,0-.91.85v3.67c0,4.52-6.82,4.52-6.82,4.52s-6.82,0-6.82-4.52v-3.67a.88.88,0,0,0-.91-.85H-433a.88.88,0,0,0-.91.85v9.66s-.11,3.38-3,4.61a.82.82,0,0,0-.56.82c.28,2.28,1.21,10.37,1.21,14.75s-.93,7.34-1.21,9.54a.85.85,0,0,0,.57.88c1.34.5,5.11,1.45,14.45,1.45s13.11-1,14.45-1.45a.83.83,0,0,0,.56-.88c-.27-2.2-1.2-5.16-1.2-9.54"/></clipPath></defs><title>ic</title><path class="cls-1" d="M-408.67-225.07c0-4.38.93-12.47,1.2-14.75a.8.8,0,0,0-.55-.82c-2.93-1.23-3.05-4.61-3.05-4.61v-9.66a.87.87,0,0,0-.9-.85h-2.78a.88.88,0,0,0-.91.85v3.67c0,4.52-6.82,4.52-6.82,4.52s-6.82,0-6.82-4.52v-3.67a.88.88,0,0,0-.91-.85H-433a.88.88,0,0,0-.91.85v9.66s-.11,3.38-3,4.61a.82.82,0,0,0-.56.82c.28,2.28,1.21,10.37,1.21,14.75s-.93,7.34-1.21,9.54a.85.85,0,0,0,.57.88c1.34.5,5.11,1.45,14.45,1.45s13.11-1,14.45-1.45a.83.83,0,0,0,.56-.88c-.27-2.2-1.2-5.16-1.2-9.54"/><g class="cls-2"><rect class="cls-1" x="-465.88" y="-492.81" width="626.03" height="1113.5"/></g><circle class="cls-3" cx="32.99" cy="38.99" r="4.65"/><path class="cls-3" d="M27.7,39A5.33,5.33,0,0,1,33,33.65a6.48,6.48,0,0,1,.77.06,2,2,0,0,1,.26-1.05c.44-.78.47-.92.77-3.15A27.77,27.77,0,0,1,37,22.84a4.64,4.64,0,0,0,.51-3.15c-.17-1.19-.1-1.66.37-2.17a1.31,1.31,0,0,0-.71-2.23A2.38,2.38,0,0,1,36,14.44c-.48-.88-1.46-.81-2.54.2a3.09,3.09,0,0,1-1.49.85c-.95,0-2.31,1.25-2.71,2.54a3.47,3.47,0,0,1-1,1.52c-.55.27-4.47,6.4-5.69,8.87a17.49,17.49,0,0,0-.85,5.69A19.4,19.4,0,0,0,23.83,40a6.41,6.41,0,0,0,1.42,1.28A3.47,3.47,0,0,1,27,44.64c0,.88.1,1.32.5,1.46.95.37,1.63-.68,1.66-2.61a7.35,7.35,0,0,1,.07-.82A5.31,5.31,0,0,1,27.7,39Z"/><path class="cls-4" d="M35.23,38.2c-.31-.18-.57-.44-.89-.6a.9.9,0,0,0-1.24.28c-.06.07-.08,0-.11,0a.92.92,0,0,0-.35-.3,1,1,0,0,0-1,.08c-.35.2-.64.45-1,.64a1.63,1.63,0,0,1-.87.22A4.53,4.53,0,0,0,32,40.37a2.42,2.42,0,0,0,1.43.24,3.86,3.86,0,0,0,1.85-1,6.25,6.25,0,0,0,1-1.12A2.34,2.34,0,0,1,35.23,38.2ZM33.1,39.61a6.48,6.48,0,0,1-2.4-.79,3,3,0,0,0,1.53-.16.34.34,0,0,1,.28,0,1,1,0,0,0,1.15,0,.4.4,0,0,1,.28,0,3.46,3.46,0,0,0,1.41.19A5.57,5.57,0,0,1,33.1,39.61Z"/></svg>