<svg id="Layer_2" data-name="Layer 2" xmlns="http://www.w3.org/2000/svg" xmlns:xlink="http://www.w3.org/1999/xlink" viewBox="0 0 60 60"><defs><style>.cls-1{fill:#4a4a49;}.cls-2{clip-path:url(#clip-path);}.cls-3{fill:#4fb4a2;}.cls-3,.cls-4{fill-rule:evenodd;}.cls-4{fill:#fff;}</style><clipPath id="clip-path"><path class="cls-1" d="M-339.82-225.07c0-4.38.93-12.47,1.2-14.75a.81.81,0,0,0-.55-.82c-2.93-1.23-3.05-4.61-3.05-4.61v-9.66a.88.88,0,0,0-.91-.85h-2.77a.88.88,0,0,0-.91.85v3.67c0,4.52-6.83,4.52-6.83,4.52s-6.82,0-6.82-4.52v-3.67a.88.88,0,0,0-.91-.85h-2.77a.88.88,0,0,0-.91.85v9.66s-.12,3.38-3.05,4.61a.81.81,0,0,0-.55.82c.27,2.28,1.21,10.37,1.21,14.75s-.94,7.34-1.21,9.54a.83.83,0,0,0,.57.88c1.33.5,5.1,1.45,14.44,1.45s13.12-1,14.45-1.45a.83.83,0,0,0,.57-.88c-.27-2.2-1.2-5.16-1.2-9.54"/></clipPath></defs><title>ic</title><path class="cls-1" d="M-339.82-225.07c0-4.38.93-12.47,1.2-14.75a.81.81,0,0,0-.55-.82c-2.93-1.23-3.05-4.61-3.05-4.61v-9.66a.88.88,0,0,0-.91-.85h-2.77a.88.88,0,0,0-.91.85v3.67c0,4.52-6.83,4.52-6.83,4.52s-6.82,0-6.82-4.52v-3.67a.88.88,0,0,0-.91-.85h-2.77a.88.88,0,0,0-.91.85v9.66s-.12,3.38-3.05,4.61a.81.81,0,0,0-.55.82c.27,2.28,1.21,10.37,1.21,14.75s-.94,7.34-1.21,9.54a.83.83,0,0,0,.57.88c1.33.5,5.1,1.45,14.44,1.45s13.12-1,14.45-1.45a.83.83,0,0,0,.57-.88c-.27-2.2-1.2-5.16-1.2-9.54"/><g class="cls-2"><rect class="cls-1" x="-397.04" y="-492.81" width="626.03" height="1113.5"/></g><path class="cls-3" d="M28,14.58h-.2a4.17,4.17,0,0,0-4.17,3.88,3.29,3.29,0,0,0-.77-.06,4.37,4.37,0,0,0-4.36,4.32,4.42,4.42,0,0,0,1.09,2.89,4.05,4.05,0,0,0-.77.25,4.22,4.22,0,0,0-2.63,3.89v.06a4.34,4.34,0,0,0,3.4,4.2,4.43,4.43,0,0,0-1.09,2.82,4.27,4.27,0,0,0,4.3,4.27,3.82,3.82,0,0,0,.83-.06v.06a4.3,4.3,0,1,0,8.6,0v-22A4.53,4.53,0,0,0,28,14.58"/><path class="cls-4" d="M27.84,22.3a3,3,0,0,1-3-2.95.44.44,0,0,0-.45-.44c-.25,0-.38.25-.38.5a3.8,3.8,0,0,0,3.82,3.77.43.43,0,0,0,.45-.44.48.48,0,0,0-.45-.44"/><path class="cls-4" d="M27.65,36.55a3,3,0,0,1-3,3,.44.44,0,1,0,0,.88,3.8,3.8,0,0,0,3.82-3.77.43.43,0,0,0-.45-.43.33.33,0,0,0-.38.37"/><path class="cls-4" d="M20.46,26.71a3,3,0,0,1,3,2.95.45.45,0,0,0,.89,0,3.81,3.81,0,0,0-3.82-3.77.43.43,0,0,0-.45.44.34.34,0,0,0,.39.38"/><path class="cls-3" d="M39.23,22.82a1.66,1.66,0,0,0-1.67,1.32H36V22.63A1.75,1.75,0,0,0,37.3,21a1.73,1.73,0,0,0-3.46,0,1.64,1.64,0,0,0,1.34,1.64v1.51h-3V25h5.33a1.76,1.76,0,0,0,1.67,1.32A1.71,1.71,0,0,0,41,24.58a1.76,1.76,0,0,0-1.73-1.76"/><path class="cls-3" d="M40.85,33.85a1.65,1.65,0,0,0-1.66,1.31H31.84V36H35.1v1.49a1.74,1.74,0,0,0-1.34,1.63,1.73,1.73,0,0,0,3.45,0,1.64,1.64,0,0,0-1.34-1.63V36h3.25a1.77,1.77,0,0,0,1.67,1.31,1.7,1.7,0,0,0,1.72-1.69,1.62,1.62,0,0,0-1.66-1.74"/><path class="cls-3" d="M42.08,28.35a1.65,1.65,0,0,0-1.66,1.31H32.3v.74h8.12a1.75,1.75,0,0,0,1.66,1.31,1.68,1.68,0,1,0,0-3.36"/></svg>