<svg id="Layer_2" data-name="Layer 2" xmlns="http://www.w3.org/2000/svg" xmlns:xlink="http://www.w3.org/1999/xlink" viewBox="0 0 60 60"><defs><style>.cls-1{fill:#4a4a49;}.cls-2{clip-path:url(#clip-path);}.cls-3{fill:#4fb4a2;}.cls-4,.cls-6{fill:#fff;}.cls-5{fill:none;stroke:#fff;stroke-linecap:round;stroke-linejoin:round;stroke-width:0.75px;}.cls-6{stroke:#4fb4a2;stroke-miterlimit:10;stroke-width:0.5px;}</style><clipPath id="clip-path"><path class="cls-1" d="M-544.56-225.07c0-4.38.93-12.47,1.2-14.75a.8.8,0,0,0-.55-.82c-2.93-1.23-3-4.61-3-4.61v-9.66a.88.88,0,0,0-.91-.85h-2.78a.88.88,0,0,0-.91.85v3.67c0,4.52-6.82,4.52-6.82,4.52s-6.82,0-6.82-4.52v-3.67a.88.88,0,0,0-.91-.85h-2.78a.87.87,0,0,0-.9.85v9.66s-.12,3.38-3.05,4.61a.8.8,0,0,0-.55.82c.27,2.28,1.2,10.37,1.2,14.75s-.93,7.34-1.2,9.54a.83.83,0,0,0,.56.88c1.34.5,5.11,1.45,14.45,1.45s13.11-1,14.45-1.45a.85.85,0,0,0,.57-.88c-.28-2.2-1.21-5.16-1.21-9.54"/></clipPath></defs><title>ic</title><path class="cls-1" d="M-544.56-225.07c0-4.38.93-12.47,1.2-14.75a.8.8,0,0,0-.55-.82c-2.93-1.23-3-4.61-3-4.61v-9.66a.88.88,0,0,0-.91-.85h-2.78a.88.88,0,0,0-.91.85v3.67c0,4.52-6.82,4.52-6.82,4.52s-6.82,0-6.82-4.52v-3.67a.88.88,0,0,0-.91-.85h-2.78a.87.87,0,0,0-.9.85v9.66s-.12,3.38-3.05,4.61a.8.8,0,0,0-.55.82c.27,2.28,1.2,10.37,1.2,14.75s-.93,7.34-1.2,9.54a.83.83,0,0,0,.56.88c1.34.5,5.11,1.45,14.45,1.45s13.11-1,14.45-1.45a.85.85,0,0,0,.57-.88c-.28-2.2-1.21-5.16-1.21-9.54"/><g class="cls-2"><rect class="cls-1" x="-601.77" y="-492.81" width="626.03" height="1113.5"/></g><rect class="cls-3" x="13.9" y="21.55" width="32.19" height="16.91" rx="1.76"/><rect class="cls-4" x="13.9" y="25.66" width="32.19" height="0.32"/><rect class="cls-4" x="13.9" y="29.87" width="32.19" height="0.32"/><rect class="cls-4" x="13.9" y="34.08" width="32.19" height="0.32"/><path class="cls-4" d="M22.44,30.38a54.59,54.59,0,0,0-5.64,5.74c-.35.39.23,1,.59.58A54.48,54.48,0,0,1,23,31c.41-.34-.18-.93-.59-.59Z"/><path class="cls-5" d="M22.73,30.67l.15-.15"/><path class="cls-4" d="M24.4,29.37a.39.39,0,0,1-.3-.13.4.4,0,0,1,0-.58l.33-.31a.41.41,0,0,1,.58,0A.4.4,0,0,1,25,29l-.31.29A.41.41,0,0,1,24.4,29.37Zm2-1.69a.42.42,0,0,1-.32-.16.41.41,0,0,1,.06-.58l.35-.28a.41.41,0,0,1,.51.65l-.34.27A.37.37,0,0,1,26.39,27.68Zm2.07-1.61a.44.44,0,0,1-.33-.16.41.41,0,0,1,.08-.58l.35-.27a.41.41,0,1,1,.5.66l-.35.26A.38.38,0,0,1,28.46,26.07Zm1.66-1.39a.41.41,0,0,1-.25-.74l.35-.26a.41.41,0,0,1,.58.07.43.43,0,0,1-.08.59l-.35.26A.44.44,0,0,1,30.12,24.68Z"/><circle class="cls-6" cx="22.59" cy="30.6" r="1.42"/><path class="cls-4" d="M40.73,32.73a.42.42,0,0,1-.32-.15l-.28-.33a.41.41,0,0,1,.63-.54l.29.34a.41.41,0,0,1,0,.58A.39.39,0,0,1,40.73,32.73Zm-1.82-1.92a.42.42,0,0,1-.29-.12l-.31-.29a.41.41,0,1,1,.55-.61l.33.3a.41.41,0,0,1,0,.59A.43.43,0,0,1,38.91,30.81Zm-2-1.7a.46.46,0,0,1-.25-.08c-.11-.09-.23-.17-.35-.25a.43.43,0,0,1-.1-.58.42.42,0,0,1,.58-.1l.37.26a.41.41,0,0,1,.08.58A.4.4,0,0,1,36.87,29.11Zm-2.23-1.43a.49.49,0,0,1-.2-.05,3,3,0,0,0-.37-.19.41.41,0,0,1,.35-.75l.42.21a.41.41,0,0,1,.16.56A.4.4,0,0,1,34.64,27.68Z"/></svg>