<svg id="Layer_2" data-name="Layer 2" xmlns="http://www.w3.org/2000/svg" xmlns:xlink="http://www.w3.org/1999/xlink" viewBox="0 0 60 60"><defs><style>.cls-1{fill:#4a4a49;}.cls-2{clip-path:url(#clip-path);}.cls-3{fill:none;stroke:#fff;stroke-miterlimit:10;stroke-width:1.8px;}.cls-4{fill:#fff;fill-rule:evenodd;}</style><clipPath id="clip-path"><path class="cls-1" d="M-77.71-362.52c0-4.37.93-12.47,1.2-14.75a.81.81,0,0,0-.55-.82c-2.93-1.23-3-4.61-3-4.61v-9.66a.88.88,0,0,0-.91-.85h-2.77a.88.88,0,0,0-.91.85v3.67c0,4.52-6.82,4.52-6.82,4.52s-6.83,0-6.83-4.52v-3.67a.88.88,0,0,0-.91-.85H-102a.88.88,0,0,0-.91.85v9.66s-.12,3.38-3,4.61a.81.81,0,0,0-.55.82c.27,2.28,1.21,10.38,1.21,14.75s-.94,7.35-1.21,9.54a.84.84,0,0,0,.57.89c1.33.49,5.1,1.44,14.45,1.44s13.11-1,14.44-1.44a.84.84,0,0,0,.57-.89c-.27-2.19-1.2-5.15-1.2-9.54"/></clipPath></defs><title>ic</title><path class="cls-1" d="M-77.71-362.52c0-4.37.93-12.47,1.2-14.75a.81.81,0,0,0-.55-.82c-2.93-1.23-3-4.61-3-4.61v-9.66a.88.88,0,0,0-.91-.85h-2.77a.88.88,0,0,0-.91.85v3.67c0,4.52-6.82,4.52-6.82,4.52s-6.83,0-6.83-4.52v-3.67a.88.88,0,0,0-.91-.85H-102a.88.88,0,0,0-.91.85v9.66s-.12,3.38-3,4.61a.81.81,0,0,0-.55.82c.27,2.28,1.21,10.38,1.21,14.75s-.94,7.35-1.21,9.54a.84.84,0,0,0,.57.89c1.33.49,5.1,1.44,14.45,1.44s13.11-1,14.44-1.44a.84.84,0,0,0,.57-.89c-.27-2.19-1.2-5.15-1.2-9.54"/><g class="cls-2"><rect class="cls-1" x="-134.93" y="-630.26" width="626.03" height="1113.5"/></g><rect class="cls-3" x="10.21" y="10.21" width="39.57" height="39.57" rx="15"/><path class="cls-4" d="M29.7,28.89A9.17,9.17,0,0,1,23,25.23c-.47-.79-.86-1.39-1.71-1.24a1.53,1.53,0,0,0-1.25,1.78,7.65,7.65,0,0,0,5.86,5.14v6.76a1.47,1.47,0,0,0,1.49,1.45h5.78a1.47,1.47,0,0,0,1.49-1.45V34a7.29,7.29,0,0,1,2.13,4.22,1.57,1.57,0,0,0,1.56,1.47h0c.87,0,1.74-.7,1.52-1.56-1-4-3.58-8.25-9.37-9.12Zm.61-1.29A3.63,3.63,0,1,0,26.58,24a3.68,3.68,0,0,0,3.73,3.63"/></svg>