<svg id="Layer_2" data-name="Layer 2" xmlns="http://www.w3.org/2000/svg" xmlns:xlink="http://www.w3.org/1999/xlink" viewBox="0 0 60 60"><defs><style>.cls-1{fill:#4a4a49;}.cls-2{clip-path:url(#clip-path);}.cls-3{fill:none;stroke:#fff;stroke-miterlimit:10;stroke-width:1.8px;}.cls-4{fill:#fff;}</style><clipPath id="clip-path"><path class="cls-1" d="M-213.6-362.52c0-4.37.93-12.47,1.2-14.75a.81.81,0,0,0-.55-.82c-2.93-1.23-3.05-4.61-3.05-4.61v-9.66a.87.87,0,0,0-.9-.85h-2.78a.88.88,0,0,0-.91.85v3.67c0,4.52-6.82,4.52-6.82,4.52s-6.83,0-6.83-4.52v-3.67a.87.87,0,0,0-.9-.85h-2.78a.88.88,0,0,0-.91.85v9.66s-.11,3.38-3,4.61a.82.82,0,0,0-.55.82c.28,2.28,1.21,10.38,1.21,14.75s-.94,7.35-1.21,9.54a.85.85,0,0,0,.57.89c1.34.49,5.11,1.44,14.45,1.44s13.11-1,14.44-1.44a.84.84,0,0,0,.57-.89c-.27-2.19-1.2-5.15-1.2-9.54"/></clipPath></defs><title>ic</title><path class="cls-1" d="M-213.6-362.52c0-4.37.93-12.47,1.2-14.75a.81.81,0,0,0-.55-.82c-2.93-1.23-3.05-4.61-3.05-4.61v-9.66a.87.87,0,0,0-.9-.85h-2.78a.88.88,0,0,0-.91.85v3.67c0,4.52-6.82,4.52-6.82,4.52s-6.83,0-6.83-4.52v-3.67a.87.87,0,0,0-.9-.85h-2.78a.88.88,0,0,0-.91.85v9.66s-.11,3.38-3,4.61a.82.82,0,0,0-.55.82c.28,2.28,1.21,10.38,1.21,14.75s-.94,7.35-1.21,9.54a.85.85,0,0,0,.57.89c1.34.49,5.11,1.44,14.45,1.44s13.11-1,14.44-1.44a.84.84,0,0,0,.57-.89c-.27-2.19-1.2-5.15-1.2-9.54"/><g class="cls-2"><rect class="cls-1" x="-270.81" y="-630.26" width="626.03" height="1113.5"/></g><rect class="cls-3" x="10.21" y="10.21" width="39.57" height="39.57" rx="15"/><path class="cls-4" d="M23.82,24.58v-2.9c-2.83.48-4.32,1.06-4.32,1.45S21,24.1,23.82,24.58Z"/><path class="cls-4" d="M36.11,21.68v2.9c2.83-.48,4.32-1.06,4.32-1.45S38.94,22.16,36.11,21.68Z"/><path class="cls-4" d="M29.28,31.18a.74.74,0,0,0,.59-.7.54.54,0,0,0-.15-.41.63.63,0,0,0-.42-.16.7.7,0,0,0-.44.16.42.42,0,0,0-.17.39A.76.76,0,0,0,29.28,31.18Z"/><path class="cls-4" d="M29.24,31.75c-.46.2-.71.47-.71.84a.61.61,0,0,0,.21.47.82.82,0,0,0,.54.18.77.77,0,0,0,.52-.18.6.6,0,0,0,.21-.45C30,32.2,29.74,31.93,29.24,31.75Z"/><path class="cls-4" d="M32.63,30c-.53,0-.78.54-.78,1.65s.25,1.57.76,1.57.77-.52.77-1.59S33.13,30,32.63,30Z"/><path class="cls-4" d="M35.57,29.86a.36.36,0,0,0-.28.12.4.4,0,0,0-.12.29.41.41,0,0,0,.12.3.36.36,0,0,0,.28.11.38.38,0,0,0,.29-.11.44.44,0,0,0,.11-.3.44.44,0,0,0-.11-.29A.38.38,0,0,0,35.57,29.86Z"/><path class="cls-4" d="M30,25.3c-3.79,0-10.95-.46-10.95-2.17V35.71c0,1.71,7.28,3,11.07,3S41,37.42,41,35.71V23.13C41,24.84,33.79,25.3,30,25.3Zm-2.77,8.31H24.81v-.53h.9v-3l-.92.26v-.55l1.54-.41v3.66h.9Zm3-.2a1.63,1.63,0,0,1-1,.3,1.33,1.33,0,0,1-.89-.3,1,1,0,0,1-.37-.8,1.27,1.27,0,0,1,.86-1.15,1,1,0,0,1-.7-1,.93.93,0,0,1,.36-.77,1.35,1.35,0,0,1,.88-.29,1.25,1.25,0,0,1,.82.28.82.82,0,0,1,.32.72,1.12,1.12,0,0,1-.74,1v0a1.15,1.15,0,0,1,.88,1.09A1,1,0,0,1,30.22,33.41Zm3.42-.27a1.24,1.24,0,0,1-1.06.57,1.16,1.16,0,0,1-1-.53,2.65,2.65,0,0,1-.36-1.51A2.81,2.81,0,0,1,31.57,30a1.25,1.25,0,0,1,1.09-.57c.9,0,1.36.7,1.36,2.1A2.7,2.7,0,0,1,33.64,33.14Zm2.48-2.3a.75.75,0,0,1-1.1,0,.81.81,0,0,1-.23-.57.79.79,0,0,1,.23-.56.75.75,0,0,1,1.1,0,.79.79,0,0,1,.23.56A.81.81,0,0,1,36.12,30.84Z"/></svg>