<svg id="Layer_2" data-name="Layer 2" xmlns="http://www.w3.org/2000/svg" xmlns:xlink="http://www.w3.org/1999/xlink" viewBox="0 0 60 60"><defs><style>.cls-1{fill:#4a4a49;}.cls-2{clip-path:url(#clip-path);}.cls-3{fill:none;stroke:#fff;stroke-miterlimit:10;stroke-width:1.8px;}.cls-4{fill:#fff;}</style><clipPath id="clip-path"><path class="cls-1" d="M-146.19-362.52c0-4.37.93-12.47,1.2-14.75a.8.8,0,0,0-.55-.82c-2.93-1.23-3-4.61-3-4.61v-9.66a.88.88,0,0,0-.91-.85h-2.78a.88.88,0,0,0-.91.85v3.67c0,4.52-6.82,4.52-6.82,4.52s-6.82,0-6.82-4.52v-3.67a.88.88,0,0,0-.91-.85h-2.78a.88.88,0,0,0-.91.85v9.66s-.11,3.38-3,4.61a.8.8,0,0,0-.55.82c.27,2.28,1.2,10.38,1.2,14.75s-.93,7.35-1.21,9.54a.86.86,0,0,0,.57.89c1.34.49,5.11,1.44,14.45,1.44s13.11-1,14.45-1.44A.86.86,0,0,0-145-353c-.28-2.19-1.21-5.15-1.21-9.54"/></clipPath></defs><title>ic</title><path class="cls-1" d="M-146.19-362.52c0-4.37.93-12.47,1.2-14.75a.8.8,0,0,0-.55-.82c-2.93-1.23-3-4.61-3-4.61v-9.66a.88.88,0,0,0-.91-.85h-2.78a.88.88,0,0,0-.91.85v3.67c0,4.52-6.82,4.52-6.82,4.52s-6.82,0-6.82-4.52v-3.67a.88.88,0,0,0-.91-.85h-2.78a.88.88,0,0,0-.91.85v9.66s-.11,3.38-3,4.61a.8.8,0,0,0-.55.82c.27,2.28,1.2,10.38,1.2,14.75s-.93,7.35-1.21,9.54a.86.86,0,0,0,.57.89c1.34.49,5.11,1.44,14.45,1.44s13.11-1,14.45-1.44A.86.86,0,0,0-145-353c-.28-2.19-1.21-5.15-1.21-9.54"/><g class="cls-2"><rect class="cls-1" x="-203.4" y="-630.26" width="626.03" height="1113.5"/></g><rect class="cls-3" x="10.21" y="10.21" width="39.57" height="39.57" rx="15"/><polygon class="cls-4" points="29.37 39.98 21.32 35.31 21.29 25.64 29.34 30.31 29.37 39.98"/><polygon class="cls-4" points="29.8 29.55 21.75 24.88 30.17 20.02 38.22 24.69 29.8 29.55"/><polygon class="cls-4" points="38.68 25.45 38.71 35.13 30.29 39.98 30.26 30.31 38.68 25.45"/></svg>