<?xml version="1.0" encoding="utf-8"?>
<!-- Generator: Adobe Illustrator 21.1.0, SVG Export Plug-In . SVG Version: 6.00 Build 0)  -->
<svg version="1.1" id="圖層_1" xmlns="http://www.w3.org/2000/svg" xmlns:xlink="http://www.w3.org/1999/xlink" x="0px" y="0px"
	 viewBox="0 0 79 95" style="enable-background:new 0 0 79 95;" xml:space="preserve">
<style type="text/css">
	.st0{fill:#F27E20;}
</style>
<title>Kaohsiung</title>
<g id="_x2D_page1">
	<g id="tones" transform="translate(-108.000000, -420.000000)">
		<path id="Kaohsiung" class="st0" d="M185.2,421.2c-0.8,0.8-1.9,1.1-2.9,1.6c-1.9,0.9-2.2,2.4-0.5,3.8c1,0.8,2.1,1.3,3.2,2
			c1.5,0.9,1.6,2.1,0.3,3.3c-0.8,0.7-1.7,1.3-2.6,1.8c-6.8,4-9.8,10-9.7,17.7c0,4.4-0.7,8.4-3,12.2c-1.2,2-1.2,4.1-0.1,6.2
			c1.4,2.6,1.3,2.6-1.3,4.1c-0.5,0.3-1,0.5-1.5,0.9c-1.7,1.3-3.4,1.7-5.2,0.2c-0.9-0.8-2.2-0.7-3.2,0c-1,0.6-1.9,0.6-2.6-0.3
			c-0.7-0.8-1.5-1-2.5-0.9c-1,0.1-2,0.1-3,0.1c-2.5,0.1-4.5,1.1-5.9,3.2c-1.5,2.2-3.6,3.2-6.2,3.4c-0.4,0-0.8,0-1.1,0.1
			c-3.5,0.5-4.3,1.4-4.3,4.9c0,5.6-0.3,11.2,1,16.8c1,4.1-0.8,8-2,11.9c-0.3,1-1.2,1.2-1.9,0.4c-4.5-4.6-9.5-8.8-13.1-14.2
			c-0.8-1.2-0.8-2.2,0.4-3.1c1.3-1,1.1-2,0.4-3.3c-2.6-4.6-5.2-9.2-7.7-13.7c-0.3-0.5-0.6-1.1-0.9-1.6c-0.6-1-1-2.2-0.5-3
			c0.5-0.7,1.7,0,2.6,0.1c3.3,0.4,6.5,1.5,9.8,1.4c1.5,0,2.9-0.4,4-1.3c1.4-1.1,2.8-2.1,4.6-2.3c1-0.1,1.4-1.1,1.3-2
			c-0.2-2.2,0.8-3.4,2.9-3.9c1.4-0.4,2.3-1.5,2.6-2.9c0.4-2,1.6-3.5,3-4.8c4.7-4.5,9.1-9.3,11.1-15.6c1.3-4.2,3.7-7.1,7.5-9.1
			c2-1,3.6-2.7,4.9-4.6c0.9-1.3,2.1-2.4,3.4-3.2c2.5-1.7,5.1-3.4,7.3-5.5c0.9-0.8,2-1.2,3.3-1.2c2.6,0.1,5.2,0,7.9,0
			C185.2,420.8,185.2,421,185.2,421.2z"/>
	</g>
</g>
</svg>
