<?xml version="1.0" encoding="UTF-8"?>
<svg width="79px" height="95px" viewBox="0 0 79 95" version="1.1" xmlns="http://www.w3.org/2000/svg" xmlns:xlink="http://www.w3.org/1999/xlink">
    <title>Kaohsiung</title>
    <g id="-page1" stroke="none" stroke-width="1" fill="none" fill-rule="evenodd">
        <g id="tones" transform="translate(-108.000000, -420.000000)" fill="#8BCDC5" fill-rule="nonzero">
            <path d="M185.23549,421.235329 C184.466661,422.078163 183.344254,422.316623 182.361634,422.793543 C180.429284,423.73505 180.170267,425.22337 181.827154,426.567792 C182.789217,427.348955 183.940404,427.895769 184.992918,428.565924 C186.45657,429.490985 186.621026,430.66684 185.32594,431.867364 C184.557112,432.582744 183.623828,433.141892 182.711101,433.676372 C175.960212,437.635633 172.942457,443.720478 173.000017,451.342981 C173.032908,455.721603 172.276413,459.779537 170.019265,463.549674 C168.798184,465.580697 168.773516,467.61172 169.928814,469.774307 C171.302016,472.343921 171.203343,472.397369 168.650174,473.893912 C168.165031,474.177597 167.638774,474.407835 167.194745,474.744968 C165.48441,476.040053 163.839857,476.459414 161.977401,474.901201 C161.056451,474.128261 159.827148,474.2146 158.79108,474.880644 C157.77968,475.526131 156.932735,475.485017 156.14335,474.568179 C155.477306,473.791127 154.638584,473.536222 153.623073,473.639006 C152.628118,473.737679 151.620829,473.704788 150.621764,473.762348 C148.167268,473.906246 146.14858,474.876532 144.763044,476.969226 C143.295281,479.177038 141.186142,480.196661 138.608305,480.398118 C138.234169,480.426898 137.855922,480.443344 137.485898,480.500903 C134.003557,481.047717 133.197726,481.853548 133.201837,485.414005 C133.205949,491.034264 132.85237,496.654523 134.225572,502.229558 C135.245194,506.369719 133.440298,510.23853 132.210994,514.099118 C131.902641,515.073515 131.059807,515.328421 130.299202,514.543147 C125.826018,509.913731 120.814243,505.77768 117.188004,500.36299 C116.398619,499.183023 116.365728,498.118175 117.545694,497.250674 C118.881893,496.263942 118.635211,495.231985 117.928053,493.994459 C115.321437,489.430825 112.768268,484.8343 110.198654,480.250109 C109.894412,479.703295 109.614838,479.144147 109.302373,478.601444 C108.747337,477.639381 108.307419,476.389521 108.804896,475.579579 C109.257148,474.83953 110.507008,475.550799 111.395067,475.653583 C114.680061,476.023608 117.854048,477.162461 121.213047,477.063788 C122.701367,477.022674 124.074569,476.669095 125.258647,475.785148 C126.66474,474.728522 128.021496,473.68012 129.888063,473.495108 C130.928243,473.392323 131.294156,472.442594 131.211929,471.513422 C131.018694,469.322055 131.993091,468.158534 134.081673,467.591163 C135.491877,467.208805 136.425161,466.074063 136.725292,464.651525 C137.152876,462.636948 138.320508,461.160961 139.751269,459.808317 C144.475247,455.339244 148.866203,450.549484 150.897226,444.246735 C152.237537,440.086017 154.589247,437.15049 158.416944,435.172915 C160.435633,434.128624 161.997958,432.467625 163.317712,430.596947 C164.226327,429.305973 165.369291,428.241125 166.672599,427.348955 C169.205211,425.618063 171.754268,423.911839 174.015528,421.823257 C174.924143,420.984535 175.997214,420.614511 177.271743,420.64329 C179.890693,420.704961 182.513755,420.659736 185.136817,420.659736 C185.169708,420.840637 185.202599,421.037983 185.23549,421.235329 Z" id="Kaohsiung"></path>
        </g>
    </g>
</svg>