<?xml version="1.0" encoding="UTF-8"?>
<svg width="14px" height="12px" viewBox="0 0 14 12" version="1.1" xmlns="http://www.w3.org/2000/svg" xmlns:xlink="http://www.w3.org/1999/xlink">
    <title>Keelung</title>
    <g id="-page1" stroke="none" stroke-width="1" fill="none" fill-rule="evenodd">
        <g id="tones" transform="translate(-234.000000, -259.000000)" fill="#74CAE5" fill-rule="nonzero">
            <path d="M238.662901,259.230428 C238.646455,259.666234 238.584784,260.106152 238.502557,260.537847 C238.407995,261.031213 238.30521,261.541024 238.054416,261.980942 C237.770731,262.482531 237.32259,262.675766 236.771665,262.757994 C236.233074,262.83611 235.68626,262.869001 235.15178,262.975897 C234.789979,263.049902 234.160937,263.140352 234.07871,263.592604 C234.045819,263.773505 234.16916,263.93796 234.243165,264.090081 C234.333615,264.279205 234.428177,264.464217 234.52685,264.649229 C234.715974,265.011031 234.917432,265.368721 235.127112,265.718189 C235.554696,266.425346 236.019282,267.107836 236.524982,267.761546 C236.973123,268.341251 237.491157,268.883953 238.099641,269.299203 C238.69168,269.702118 239.361836,269.977581 240.052548,270.162593 C240.665144,270.327048 241.290074,270.42161 241.919115,270.495615 C242.519377,270.565508 243.12375,270.66007 243.728123,270.668293 C243.933693,270.672404 244.13515,270.668293 244.336608,270.651847 C244.542177,270.639513 244.751858,270.618956 244.957427,270.594288 C244.986206,270.590177 245.010875,270.586065 245.039654,270.581954 C245.372676,270.536729 245.964715,270.372273 245.935936,269.928244 C245.923602,269.718564 245.750923,269.517106 245.623471,269.364985 C245.360342,269.05252 245.051989,268.781168 244.772415,268.48926 C244.509286,268.209686 244.258492,267.917778 244.0447,267.59709 C243.51022,266.795371 243.218312,265.788082 243.608893,264.867133 C244.131039,263.629607 245.59058,263.021122 246.852774,262.92656 C246.860997,262.92656 246.865108,262.92656 246.873331,262.92656 C247.115902,262.910115 247.646271,262.959451 247.683273,262.622318 C247.707941,262.396192 247.502372,262.305742 247.31736,262.272851 C247.004895,262.21118 246.680096,262.21118 246.363519,262.174177 C246.030497,262.133064 245.697476,262.079616 245.364454,262.013833 C244.702521,261.886381 244.048811,261.709591 243.411547,261.495799 C242.235692,261.096995 241.113284,260.566627 240.056659,259.912917 C239.740083,259.715571 239.423506,259.518224 239.090484,259.349658 C239.01648,259.312655 238.765685,259.156423 238.679346,259.205759 C238.671123,259.209871 238.662901,259.213982 238.662901,259.230428 Z" id="Keelung"></path>
        </g>
    </g>
</svg>