<?xml version="1.0" encoding="utf-8"?>
<!-- Generator: Adobe Illustrator 21.1.0, SVG Export Plug-In . SVG Version: 6.00 Build 0)  -->
<svg version="1.1" id="圖層_1" xmlns="http://www.w3.org/2000/svg" xmlns:xlink="http://www.w3.org/1999/xlink" x="0px" y="0px"
	 viewBox="0 0 14 12" style="enable-background:new 0 0 14 12;" xml:space="preserve">
<style type="text/css">
	.st0{fill:#F27E20;}
</style>
<title>Keelung</title>
<g id="_x2D_page1">
	<g id="tones" transform="translate(-234.000000, -259.000000)">
		<path id="Keelung" class="st0" d="M238.7,259.2c0,0.4-0.1,0.9-0.2,1.3c-0.1,0.5-0.2,1-0.4,1.4c-0.3,0.5-0.7,0.7-1.3,0.8
			c-0.5,0.1-1.1,0.1-1.6,0.2c-0.4,0.1-1,0.2-1.1,0.6c0,0.2,0.1,0.3,0.2,0.5c0.1,0.2,0.2,0.4,0.3,0.6c0.2,0.4,0.4,0.7,0.6,1.1
			c0.4,0.7,0.9,1.4,1.4,2c0.4,0.6,1,1.1,1.6,1.5c0.6,0.4,1.3,0.7,2,0.9c0.6,0.2,1.2,0.3,1.9,0.3c0.6,0.1,1.2,0.2,1.8,0.2
			c0.2,0,0.4,0,0.6,0c0.2,0,0.4,0,0.6-0.1c0,0,0.1,0,0.1,0c0.3,0,0.9-0.2,0.9-0.7c0-0.2-0.2-0.4-0.3-0.6c-0.3-0.3-0.6-0.6-0.9-0.9
			c-0.3-0.3-0.5-0.6-0.7-0.9c-0.5-0.8-0.8-1.8-0.4-2.7c0.5-1.2,2-1.8,3.2-1.9c0,0,0,0,0,0c0.2,0,0.8,0,0.8-0.3
			c0-0.2-0.2-0.3-0.4-0.3c-0.3-0.1-0.6-0.1-1-0.1c-0.3,0-0.7-0.1-1-0.2c-0.7-0.1-1.3-0.3-2-0.5c-1.2-0.4-2.3-0.9-3.4-1.6
			c-0.3-0.2-0.6-0.4-1-0.6C239,259.3,238.8,259.2,238.7,259.2C238.7,259.2,238.7,259.2,238.7,259.2z"/>
	</g>
</g>
</svg>
