<?xml version="1.0" encoding="utf-8"?>
<!-- Generator: Adobe Illustrator 23.0.2, SVG Export Plug-In . SVG Version: 6.00 Build 0)  -->
<svg version="1.1" id="圖層_1" xmlns="http://www.w3.org/2000/svg" xmlns:xlink="http://www.w3.org/1999/xlink" x="0px" y="0px"
	 viewBox="0 0 30 30" style="enable-background:new 0 0 30 30;" xml:space="preserve">
<style type="text/css">
	.st0{fill:#FFFFFF;}
	.st1{fill:#10A0C3;}
</style>
<path class="st1" d="M23.3,5.4c-5.7-8.4-12.9-4-12.9-4c-1.7,1.1-3.1,2.2-4,4.1c-1.3,2.4-2.4,6,0.4,7.8c0.5,0.3,1,0.5,1.5,0.8
	c1.3,0.7,2,2.2,1.3,3.6c-0.3,0.5-0.8,0.9-1.2,1.3c-2,2.2-1,6.6,0.8,8.7c1.4,1.5,3.5,2.3,5.6,1.9c3.2-0.6,4-4.4,4-4.4
	c0.4-2,1.6-3.5,2.8-5.1c1-1.4,1.8-2.7,2.5-4.3C25.4,12.6,25.4,8.5,23.3,5.4z"/>
<path class="st0" d="M14.8,5.1c-1.3,0-2.6,0.4-3.7,1.4c-1.6,1.5-3.6,5.5-0.5,6.7c0.1,0,0.2,0.1,0.4,0.2c0.8,0.5,1.3,1.4,1.2,2.4
	c0,0.1,0,0.2,0,0.4c-0.3,1.7,1,3.3,2.7,3.4c0,0,0.1,0,0.1,0c5.8,0,7.7-8.4,4.4-12.2C18.2,5.9,16.5,5.1,14.8,5.1z"/>
<path class="st0" d="M23.2,7.7c-0.4-0.9-0.9-1.8-1.5-2.6c-0.9-1.2-2.2-2.1-3.6-2.6c-0.2-0.1-0.4-0.1-0.5,0c-0.1,0.1-0.1,0.4,0,0.5
	c0.1,0.1,0.3,0.2,0.5,0.3c2.3,0.9,3.9,3,4.7,5.7c0.3,1,0.5,2.1,0.5,3.1c0,0.2,0,0.4,0,0.5c0.1,0.1,0.3,0.3,0.4,0.2
	c0.1,0,0.1-0.1,0.1-0.2c0.2-0.8,0.1-1.7,0-2.5C23.7,9.2,23.5,8.4,23.2,7.7z"/>
<path class="st0" d="M17.9,22.3c-0.4,0.5-0.9,1.4-0.9,1.6c-0.3,0.6-0.5,1.3-0.8,1.9c-0.4,0.8-1.1,1.4-2,1.6c-0.3,0.1-1-0.1-0.9,0.5
	c0,0.4,0.7,0.4,1,0.3c0.4-0.1,0.9-0.3,1.3-0.5c0.9-0.6,1.4-1.5,1.7-2.6c0.2-0.7,0.6-1.4,1-2c0.1-0.2,0.6-0.7,0.4-1
	C18.4,21.9,18.1,22,17.9,22.3z"/>
</svg>
