<?xml version="1.0" encoding="utf-8"?>
<!-- Generator: Adobe Illustrator 23.0.2, SVG Export Plug-In . SVG Version: 6.00 Build 0)  -->
<svg version="1.1" id="圖層_1" xmlns="http://www.w3.org/2000/svg" xmlns:xlink="http://www.w3.org/1999/xlink" x="0px" y="0px"
	 viewBox="0 0 64 64" style="enable-background:new 0 0 64 64;" xml:space="preserve">
<style type="text/css">
	.st0{display:none;}
	.st1{display:inline;fill-rule:evenodd;clip-rule:evenodd;fill:#131313;}
	.st2{fill:#D8D8D8;}
	.st3{fill:#A9ABAA;}
</style>
<g id="襯底" class="st0">
	<rect x="0.1" y="0" class="st1" width="64" height="64"/>
</g>
<path class="st2" d="M55,58.9H9.1c-2.2,0-4-1.8-4-4V9c0-2.2,1.8-4,4-4H55c2.2,0,4,1.8,4,4v45.9C59,57.1,57.2,58.9,55,58.9z"/>
<g>
	<g>
		<path class="st3" d="M43.5,15.9c2.7,2.7,4.3,6.2,4.7,10c0,0.4-0.2,0.7-0.6,0.7c0,0,0,0-0.1,0h-3.6c-0.3,0-0.6-0.2-0.7-0.6
			c-0.6-5.2-4.7-9.3-9.8-9.9c-0.3,0-0.6-0.3-0.6-0.6v-3.6c0-0.4,0.3-0.7,0.7-0.7c0,0,0,0,0.1,0C37.3,11.6,40.8,13.2,43.5,15.9z"/>
		<path class="st3" d="M20.1,26.6h-3.4c-0.4,0-0.7-0.3-0.7-0.7c0,0,0,0,0,0c0.3-3.8,2-7.3,4.7-10l0,0c2.7-2.7,6.2-4.3,9.9-4.6
			c0.4,0,0.7,0.2,0.7,0.6c0,0,0,0,0,0.1v3.5c0,0.3-0.2,0.6-0.6,0.7c-5.2,0.6-9.4,4.7-10,9.9C20.7,26.3,20.4,26.6,20.1,26.6z"/>
		<path class="st3" d="M43.9,28.1h3.6c0.4,0,0.7,0.3,0.7,0.6c0,0,0,0,0,0.1c-0.4,3.7-2,7.2-4.7,9.8l0,0c-0.3,0.3-0.7,0.7-1,1
			l0.3,0.3l0.2,0.2l3,2.2c0.2,0.2,0.3,0.6,0.1,0.8c-0.1,0.1-0.2,0.2-0.4,0.2H33.5c-0.4,0-0.7-0.3-0.7-0.7v-3.5
			c0-0.3,0.2-0.6,0.6-0.7c5.2-0.6,9.2-4.7,9.8-9.9C43.2,28.3,43.5,28.1,43.9,28.1z"/>
		<path class="st3" d="M24,35.4c1.8,1.8,4.2,3,6.7,3.2c0.3,0,0.6,0.3,0.6,0.7v3.4c0,0.4-0.3,0.7-0.7,0.7c0,0,0,0,0,0
			c-3.7-0.3-7.3-2-9.9-4.7l0,0c-2.6-2.6-4.3-6.1-4.6-9.8c0-0.4,0.2-0.7,0.6-0.7c0,0,0,0,0.1,0h3.4c0.3,0,0.6,0.2,0.7,0.6
			C21,31.3,22.2,33.6,24,35.4z"/>
		<path class="st3" d="M32.1,18.9c-4.7,0-8.5,3.8-8.5,8.5c0,4.7,3.8,8.5,8.5,8.5c4.7,0,8.5-3.8,8.5-8.5
			C40.6,22.7,36.8,18.9,32.1,18.9C32.1,18.9,32.1,18.9,32.1,18.9z M32.1,32.4c-2.8,0-5-2.2-5-5s2.2-5,5-5c2.8,0,5,2.2,5,5
			C37.1,30.2,34.9,32.4,32.1,32.4C32.1,32.4,32.1,32.4,32.1,32.4L32.1,32.4z"/>
		<circle class="st2" cx="32.1" cy="27.4" r="5"/>
	</g>
	<g>
		<path class="st3" d="M19.4,48.5c0.1,0.1,0.1,0.2,0.1,0.2c0,0.1,0,0.2-0.1,0.3c-0.2,0.1-0.4,0.1-0.6,0c-0.1-0.1-0.1-0.2-0.1-0.3
			c0-0.1,0-0.2,0.1-0.2C19,48.3,19.3,48.3,19.4,48.5z M19.4,49.5v3.1h-0.5v-3.1L19.4,49.5z"/>
		<path class="st3" d="M24.3,48.4v0.4h-1.7v3.8h-0.5v-3.8h-1.7v-0.4H24.3z"/>
		<path class="st3" d="M27.2,49.8c0.2,0.2,0.3,0.5,0.3,0.8v2H27v-0.5c-0.1,0.2-0.3,0.3-0.5,0.4c-0.3,0.1-0.6,0.2-0.9,0.2
			c-0.3,0-0.6-0.1-0.8-0.2c-0.2-0.1-0.3-0.4-0.3-0.6c0-0.3,0.2-0.6,0.5-0.8c0.4-0.2,0.8-0.3,1.2-0.3l0.8,0v-0.2
			c0-0.5-0.3-0.8-0.9-0.8c-0.2,0-0.4,0-0.6,0.1c-0.2,0.1-0.3,0.2-0.3,0.4l-0.5,0c0.1-0.3,0.3-0.6,0.5-0.7c0.3-0.2,0.6-0.2,1-0.2
			C26.5,49.4,26.9,49.5,27.2,49.8z M26.2,51.1c-0.8,0-1.2,0.2-1.2,0.7c0,0.1,0.1,0.3,0.2,0.4c0.2,0.1,0.3,0.1,0.5,0.1
			c0.3,0,0.6-0.1,0.9-0.3c0.2-0.1,0.4-0.4,0.4-0.6v-0.3L26.2,51.1z"/>
		<path class="st3" d="M29.2,48.3V51l1.7-1.4h0.7L30,50.8l1.6,1.8H31l-1.3-1.5l-0.5,0.4v1.1h-0.5v-4.3H29.2z"/>
		<path class="st3" d="M35.1,49.9c0.3,0.4,0.4,0.8,0.4,1.3h-2.7c0,0.3,0.1,0.6,0.3,0.8c0.2,0.2,0.5,0.3,0.8,0.3
			c0.2,0,0.5-0.1,0.7-0.2c0.2-0.1,0.3-0.3,0.3-0.5h0.5c-0.1,0.3-0.2,0.5-0.5,0.7c-0.3,0.2-0.7,0.4-1.1,0.3c-0.4,0-0.9-0.1-1.2-0.4
			c-0.3-0.3-0.5-0.7-0.4-1.2c0-0.4,0.1-0.8,0.4-1.1c0.3-0.3,0.7-0.5,1.2-0.5C34.3,49.4,34.8,49.6,35.1,49.9z M33.1,50.1
			c-0.2,0.2-0.3,0.4-0.3,0.7h2.1c-0.1-0.7-0.4-1-1.1-1C33.6,49.8,33.3,49.9,33.1,50.1z"/>
		<path class="st3" d="M42.1,48.4l1.9,4.2h-0.6l-0.5-1.2h-2.2l-0.5,1.2h-0.6l1.9-4.2H42.1z M42.7,51l-0.9-2.1h0L40.9,51H42.7z"/>
		<path class="st3" d="M45.3,48.4v4.2h-0.5v-4.2H45.3z"/>
		<path class="st3" d="M37.4,48.7h-0.8v-0.3h0.8c0.2,0,0.2,0,0.2-0.4v-0.7h0.3V48C37.9,48.3,37.9,48.7,37.4,48.7z"/>
		<path class="st3" d="M38,50h-0.3v-0.7c0-0.3,0-0.7,0.5-0.7h0.8v0.3h-0.8c-0.2,0-0.2,0-0.2,0.4L38,50z"/>
	</g>
</g>
</svg>
