<svg xmlns="http://www.w3.org/2000/svg" xmlns:xlink="http://www.w3.org/1999/xlink" viewBox="0 0 63.42 56.69"><defs><style>.cls-1{fill:#f1ea75;}.cls-2{fill:#4fb4a2;}.cls-3{fill:url(#linear-gradient);}</style><linearGradient id="linear-gradient" x1="33.01" y1="64.35" x2="19.61" y2="-7.31" gradientUnits="userSpaceOnUse"><stop offset="0" stop-color="#4980c1"/><stop offset="0.03" stop-color="#4983bf"/><stop offset="0.33" stop-color="#4da7aa"/><stop offset="0.5" stop-color="#4fb4a2"/><stop offset="1" stop-color="#f9ef81"/></linearGradient></defs><title>logo最終版</title><g id="Layer_2" data-name="Layer 2"><path class="cls-1" d="M47.85,39.53H13.42a4.05,4.05,0,0,1-3.67-5.77L20.35,17a8.45,8.45,0,0,1,6.86-3.52H46.45c9.35,0,17.37,7.74,14.45,16.63h0A13.75,13.75,0,0,1,47.85,39.53Z"/><rect class="cls-2" x="28.2" y="25.67" width="2.65" height="6.47" rx="0.77"/><rect class="cls-2" x="35.43" y="25.67" width="2.65" height="6.47" rx="0.77"/><path class="cls-3" d="M40.09,19.85l-26-.39a.59.59,0,0,1-.45-1c2.05-2.46,7-9,10-12.6C25,4.28,22.65,2,21.3,3.57,17.61,8,14.45,12.38,10.75,16.78a4.24,4.24,0,0,0-1.3,3.72c.45,1.72,2.3,2.19,3.86,2.21l26.78.41A9.75,9.75,0,0,1,48.22,38c-4,6.29-13.72,4.46-20.07,4.46a2.33,2.33,0,0,0-.38,0,8.08,8.08,0,0,0-4.65,1.86l-2.69,2.29c-1,.87-2.28,1.72-3.31,2.68l.05-.23,1.32-4.26a1.42,1.42,0,0,0-.38-1.53,1.49,1.49,0,0,0-1.2-.54c-2.28,0-5,.39-7.19-.33a6.81,6.81,0,0,1-3.55-10C7.07,31,8,29.51,8.88,28.07c1.12-1.79-1.71-3.43-2.82-1.65L3.35,30.75A10.13,10.13,0,0,0,5.79,44c2.63,2,5.76,2.1,8.9,2.06l-1.08,3.52a3.28,3.28,0,0,0,0,2.5,2.83,2.83,0,0,0,3.65,1.41c1.51-.64,2.91-2.31,4.13-3.35l4.09-3.47a4.46,4.46,0,0,1,2.72-.94c7.79,0,17.67,1.68,22.67-5.77a1.44,1.44,0,0,0,.22-.31,1.35,1.35,0,0,0,.17-.34A13,13,0,0,0,40.09,19.85Z"/></g></svg>