<?xml version="1.0" encoding="UTF-8"?>
<svg width="173px" height="321px" viewBox="0 0 173 321" version="1.1" xmlns="http://www.w3.org/2000/svg" xmlns:xlink="http://www.w3.org/1999/xlink">
    <title>Group</title>
    <g id="-page1" stroke="none" stroke-width="1" fill="none" fill-rule="evenodd">
        <g id="tones" transform="translate(-94.000000, -246.000000)" fill-rule="nonzero">
            <g id="Group" transform="translate(94.267027, 246.389631)">
                <path d="M131.095552,0.000949864691 C133.299253,-0.0812777781 135.379612,5.19773689 137.020054,7.06430438 C138.660495,8.93087187 138.775614,8.31416455 142.467635,10.7768824 C144.744382,12.2930231 143.547104,13.4730184 141.973577,14.4952337 L141.715602,14.6596435 L141.715602,14.6596435 L141.453967,14.8214562 C141.410219,14.848218 141.36644,14.8748786 141.322693,14.9014416 L141.061071,15.0596757 L141.061071,15.0596757 L140.803127,15.2157354 C140.207832,15.5774693 139.66655,15.9228254 139.347096,16.2614662 C137.982117,17.7127841 137.846442,17.7456752 141.353451,22.0996289 C144.86046,26.4535825 149.736559,26.0671126 151.652463,25.3352866 C153.568367,24.6034606 153.247679,23.1932565 152.108826,21.9845102 C150.969973,20.7757638 149.810564,19.7026931 151.039867,18.4281646 C152.26917,17.1536361 155.348595,19.0900971 154.982682,17.3797622 C154.616769,15.6694272 156.327104,16.4218101 156.327104,16.4218101 C162.630734,17.341585 163.746613,19.473237 163.818278,19.6243247 C163.822154,19.6327996 164.368968,22.617663 168.357008,24.0977606 C172.345049,25.5778581 171.728342,27.1730744 171.600889,27.3210842 C171.489882,27.4567598 170.71283,27.2059655 164.356634,27.8226728 C158.000437,28.4393801 155.06491,33.8294021 154.14396,34.8120224 C153.218899,35.7946428 152.006042,33.9733005 150.776738,35.4780663 C149.543324,36.9828322 136.896712,45.5262843 134.779351,46.8953745 C132.661989,48.2644648 133.480154,50.8628583 133.344478,52.2977307 C133.208803,53.732603 126.988281,55.6443957 124.389888,56.4666721 C121.791494,57.2848372 120.743092,50.3366014 120.743092,50.3366014 C120.743092,50.3366014 119.744026,42.8621087 117.281308,43.0430095 C112.006405,43.4335908 111.81317,42.4961956 111.348584,41.402568 C110.888109,40.3089403 109.716365,37.6653216 108.803638,36.571694 C107.895023,35.4780663 107.438659,34.1994265 109.079101,32.924898 C109.47138,32.6191363 109.900101,32.3709748 110.3516,32.0980508 L110.60005,31.9462323 C111.978045,31.0922786 113.538699,29.8806877 114.913152,26.0876695 C116.33569,22.1612996 111.311581,19.6615792 108.766636,18.4692784 C108.24449,18.2267069 108.269159,17.474324 108.80775,17.2605321 C109.477905,16.9932922 110.789436,16.4917036 112.072187,15.7228752 C116.080785,13.3177166 115.098164,10.2382914 120.003043,6.44348568 C124.907922,2.64867996 128.891851,0.0831775075 131.095552,0.000949864691 Z M134.651898,12.7750142 C132.464642,9.66269789 131.712259,7.91947186 129.352326,8.63896374 C129.352326,8.63896374 129.349196,8.6410569 129.343061,8.64516527 L129.271198,8.69337431 C128.476811,9.22695562 122.10473,13.5255984 121.561257,14.4853491 C120.981552,15.5090833 120.743092,17.6305565 121.733935,18.518615 C122.724778,19.4066736 125.047709,19.9904898 124.673573,21.832389 C124.299437,23.6742882 123.066023,26.716711 123.68273,27.3334183 C124.299437,27.9460143 124.981927,27.3293069 126.281124,28.2543679 C126.47125,28.3897427 126.744846,28.5762737 127.073411,28.7960893 L127.419243,29.0263378 C129.41048,30.3464451 132.777107,32.4932029 132.777107,32.4932029 C132.87716,32.5733644 134.226663,33.6197216 135.511177,32.7316631 C136.843264,31.8066021 136.946049,30.955546 135.749637,29.8249159 C134.553225,28.6942858 134.894469,28.3530411 135.646852,28.2502565 C136.341359,28.1591736 138.811984,27.3359241 139.18797,27.2098092 L139.241365,27.191502 C139.345244,27.1489281 140.932896,26.4683039 139.540331,25.1831655 C138.105459,23.8510776 137.180398,22.4819874 137.044722,21.2526841 C136.909046,20.0192695 136.839153,15.8873304 134.651898,12.7750142 Z" id="NewTaipei" fill="#74CAE5"></path>
                <path d="M128.443711,11.3278077 C128.258698,11.438815 128.081909,11.5457109 127.909231,11.6484955 C127.066398,12.1377499 126.231787,12.6434499 125.430068,13.2067093 C124.422779,13.9097556 122.617882,14.699141 122.531543,16.1257906 C122.465761,17.2399752 123.818406,18.0005809 124.611903,18.5268378 C125.405399,19.0530947 126.231787,19.6780248 126.482581,20.5989744 C126.692262,21.380137 126.441468,22.1489654 126.157782,22.8725687 C125.898765,23.5262785 125.499961,24.3074411 125.787758,25.0145988 C126.00155,25.5367443 126.544252,25.8245411 127.021172,26.124672 C128.266921,26.9140573 128.782285,27.238977 129.822464,28.2668225 C130.751637,29.1877721 132.489311,31.3790183 133.833733,31.6421468 C135.063036,31.880607 133.42329,29.3604501 133.595968,28.2668225 C133.875542,26.4783713 137.427402,27.4221184 137.875543,25.728229 C138.019441,25.1814151 136.732895,24.7985757 136.305312,23.339035 C135.877728,21.8794944 135.60985,20.8374345 135.334387,19.3408914 C134.898581,16.9645126 134.150309,14.3537849 132.678434,12.1418613 C132.152177,11.3483646 131.457354,10.2835166 130.37606,10.4726402 C129.714128,10.5836475 129.056307,10.9618946 128.443711,11.3278077 Z" id="Taipei" fill="#74CAE5"></path>
                <path d="M144.395873,12.8407963 C144.379428,13.2766028 144.317757,13.7165207 144.235529,14.1482158 C144.140968,14.6415817 144.038183,15.151393 143.787389,15.5913109 C143.503703,16.0928996 143.055563,16.2861345 142.504638,16.3683622 C141.966047,16.4464784 141.419233,16.4793695 140.884753,16.5862654 C140.522951,16.6602703 139.89391,16.7507207 139.811682,17.2029727 C139.778791,17.3838735 139.902133,17.5483288 139.976138,17.70045 C140.066588,17.8895735 140.16115,18.0745857 140.259823,18.2595979 C140.448947,18.6213996 140.650404,18.9790898 140.860085,19.3285573 C141.287668,20.035715 141.752255,20.7182045 142.257955,21.3719142 C142.706095,21.9516191 143.224129,22.4943215 143.832614,22.9095711 C144.424653,23.3124866 145.094808,23.5879492 145.785521,23.7729614 C146.398116,23.9374167 147.023047,24.0319785 147.652088,24.1059833 C148.25235,24.1758768 148.856723,24.2704386 149.461096,24.2786614 C149.666665,24.2827728 149.868123,24.2786614 150.069581,24.2622159 C150.27515,24.2498817 150.48483,24.2293248 150.690399,24.2046565 C150.719179,24.2005451 150.743847,24.1964337 150.772627,24.1923224 C151.105649,24.1470972 151.697688,23.9826419 151.668908,23.5386126 C151.656574,23.3289321 151.483896,23.1274744 151.356443,22.9753533 C151.093315,22.6628882 150.784961,22.391537 150.505387,22.0996289 C150.242259,21.8200549 149.991464,21.5281467 149.777673,21.2074589 C149.243193,20.4057394 148.951285,19.3984508 149.341866,18.4775012 C149.864012,17.2399752 151.323552,16.6314906 152.585747,16.5369288 C152.593969,16.5369288 152.598081,16.5369288 152.606303,16.5369288 C152.848875,16.5204833 153.379243,16.5698199 153.416246,16.2326865 C153.440914,16.0065605 153.235345,15.9161101 153.050333,15.8832191 C152.737868,15.8215483 152.413069,15.8215483 152.096492,15.7845459 C151.76347,15.7434321 151.430448,15.6899841 151.097426,15.624202 C150.435494,15.4967491 149.781784,15.3199597 149.14452,15.1061678 C147.968664,14.7073638 146.846257,14.1769955 145.789632,13.5232857 C145.473055,13.3259394 145.156479,13.128593 144.823457,12.9600264 C144.749452,12.9230239 144.498658,12.7667914 144.412319,12.816128 C144.404096,12.8202394 144.395873,12.8243508 144.395873,12.8407963 Z" id="Keelung" fill="#74CAE5"></path>
                <path d="M79.5552657,32.6412127 C79.5552657,32.6412127 77.9148242,33.7348403 79.5552657,34.1007533 C81.1957071,34.4666663 87.9424852,35.7411948 91.5851698,40.1157054 C95.2278544,44.490216 97.7727999,47.158503 102.611897,48.2274623 C105.987341,48.9757339 108.902311,49.0497388 108.717299,54.2424144 C108.717299,54.2424144 107.681231,58.6045909 109.148994,59.595434 C110.616758,60.5862771 115.780654,64.5866519 116.771497,65.2691413 C117.76234,65.9516307 118.173478,66.0215242 118.617507,64.9278966 C119.061537,63.8342689 121.215901,61.2029844 121.18301,60.1422478 C121.150119,59.0815112 122.071068,59.4227559 120.397736,55.4264925 C118.724403,51.4261176 117.663667,48.5234819 117.663667,47.0844981 C117.663667,45.6455144 117.388204,44.8972428 115.200949,45.2055965 C113.013693,45.5139501 111.644603,45.5139501 109.49435,41.4477932 C107.344098,37.3816363 104.573026,34.6064533 106.624606,33.0893533 C108.676185,31.5722533 113.700294,28.0159078 113.15348,25.4545167 C112.606667,22.8890142 108.170485,19.2463297 104.301675,18.9955353 C97.5014487,18.5473947 89.5705925,24.4842305 79.5552657,32.6412127 Z" id="Taoyuan" fill="#74CAE5"></path>
                <path d="M79.3496966,36.2880086 C80.6941185,36.5511371 86.2527072,36.5634712 91.038356,41.8918225 C95.8240048,47.2201737 95.1127357,47.1543916 100.116288,48.9346201 C105.11984,50.7107372 107.718233,50.7107372 106.96585,54.8138965 C106.213467,58.9170559 106.690388,60.693173 108.676185,61.9923697 C110.657872,63.2915665 117.564994,67.5961836 117.564994,67.5961836 C117.564994,67.5961836 119.579571,68.7227023 117.190858,71.4238804 C114.798033,74.1250584 112.277756,78.6187991 107.109749,81.8503455 C105.144508,83.0796487 106.151797,81.3364227 105.880445,79.6630902 C105.880445,79.6630902 105.082837,73.2287771 99.3844617,70.4330373 C95.6718836,68.611695 91.6262836,67.8880917 87.8150324,66.3586576 C83.0622746,64.4468649 78.880999,61.2112071 74.6627209,58.3661307 C74.2515827,58.0906681 73.8363331,57.8069827 73.5197567,57.4246242 C72.5946957,56.3063282 73.0592819,54.5466567 73.6965461,53.4078038 C74.0295681,52.8116534 74.5393795,52.2895079 75.1848664,52.0716046 C76.0605908,51.7755851 77.0267656,52.0798274 77.8449307,52.5074111 C78.9920063,53.1035616 80.5091063,54.4438721 81.5780657,53.0460022 C82.281112,52.129164 82.3304486,50.5339477 81.7466323,49.5513274 C80.9778039,48.2644648 80.0034063,47.1009436 78.8398852,46.1594371 C77.3268965,44.9383566 75.4932201,44.2887583 73.6389868,43.791281 C73.0962843,43.6473826 72.5248022,43.4952615 72.113664,43.112903 C70.1155323,41.2463355 75.3287648,38.3354769 76.4100583,37.4597525 C77.2816713,36.744372 78.1450616,36.0495485 79.3496966,36.2880086 Z" id="Hsinchu" fill="#74CAE5"></path>
                <path d="M71.6531892,45.082255 C71.242051,44.9671363 70.8103559,44.7492331 70.370438,44.909577 C69.9880794,45.049364 69.9592997,45.4646135 69.9017404,45.8181924 C69.6961713,47.0557184 69.4577111,48.2891331 69.2932558,49.5307705 C69.1616916,50.5133908 68.9972363,51.6275754 69.252142,52.6019729 C69.4124859,53.2145689 69.5892754,53.8353876 69.9058518,54.3863128 C70.1402006,54.7933396 70.82269,55.7389575 71.2872762,55.130473 C72.5823616,53.420138 73.6430981,51.2123258 75.6165616,50.1721461 C76.0688136,49.9336859 76.5580681,49.773342 77.0678795,49.7281168 C77.6599185,49.6746689 78.1779526,49.8473469 78.7453234,49.9871339 C78.9714494,50.0446932 79.2057982,50.0775843 79.2756917,49.7980103 C79.4360356,49.181303 79.2510234,47.5655298 77.7051437,46.9488225 C76.1633754,46.3362266 71.661412,45.0863664 71.6531892,45.082255 Z" id="Hsinchu4" fill="#74CAE5"></path>
                <path d="M164.854111,30.5279622 C164.854111,30.5279622 157.260388,42.1672851 157.350838,47.3147355 C157.441289,52.4662973 157.671526,56.4296697 159.217406,58.251012 C160.763286,60.0723543 163.546691,63.2175616 163.546691,63.2175616 C163.546691,63.2175616 165.096682,63.9905015 162.999878,69.2777389 C160.903073,74.5649763 155.389709,86.4139796 155.389709,86.4139796 C155.389709,86.4139796 154.476982,88.3956658 152.425403,88.0091959 C150.373823,87.622726 144.153302,86.7346674 144.153302,86.7346674 C144.153302,86.7346674 143.059674,86.3029723 141.123213,87.7131764 C139.186752,89.1274919 138.047899,90.6075894 132.008279,88.4203341 C125.968659,86.2330788 124.418668,84.6131943 119.93315,84.9585504 C115.44352,85.2997951 115.237951,85.3902455 114.395118,84.5268552 C113.552285,83.6593536 111.730942,81.361091 112.619001,80.016669 C113.507059,78.6722471 119.180767,72.2255999 119.727581,70.128795 C120.274394,68.0319901 120.159276,61.3797738 123.098914,59.8955649 C126.038552,58.4113559 134.059859,55.2908169 134.627229,53.9463949 C135.198712,52.6019729 134.993142,49.3663152 135.675632,48.8647266 C136.358121,48.363138 151.422225,37.2212924 154.29197,36.1728899 C157.161715,35.1244875 159.394195,30.815759 163.382236,30.0880444 C165.392702,29.7262427 164.854111,30.5279622 164.854111,30.5279622 Z" id="Yilan" fill="#74CAE5"></path>
                <path d="M71.3078331,58.5264746 C72.4466859,58.8923876 77.1871095,61.0796429 78.3259624,61.9430332 C79.4648153,62.8105348 81.2902689,65.1786909 83.7488754,66.362769 C86.2115933,67.546847 88.0781608,68.8707121 93.9574373,70.4207031 C99.8367137,71.9706942 101.477155,73.7468113 102.159645,74.7952137 C102.842134,75.8436162 104.3469,79.2149495 103.754861,81.3569796 C103.162822,83.4990097 101.612831,86.052178 100.745329,86.0974032 C99.8778276,86.1426284 93.9081007,89.2426106 92.3581096,90.2457878 C90.8081186,91.248965 88.0740494,93.0703073 86.5240584,93.8021333 C84.9740673,94.529848 83.9256649,94.7600854 83.0622746,93.8021333 C82.194773,92.8441813 78.5068632,92.9798569 76.2250461,92.9798569 C73.9473404,92.9798569 72.0766616,91.6601033 69.3425924,90.1101122 C66.6085233,88.5601211 62.6451509,91.9766797 61.0005981,92.3878179 C59.3601566,92.7989561 58.7228924,93.6623464 53.9824688,90.6117008 C49.2420452,87.5569439 46.3723004,86.0069528 46.3723004,86.0069528 C46.3723004,86.0069528 45.2334476,85.2792382 46.3723004,83.6387967 C47.5111533,81.9983552 54.6649582,67.7318592 58.2665289,66.2312047 C61.8680997,64.7264389 62.4601387,65.2732527 63.8251176,63.4066852 C65.1900965,61.5401177 68.154403,57.5726339 68.154403,57.5726339 C68.154403,57.5726339 68.2448534,56.5242315 69.338481,57.3465079 C70.4403315,58.1605616 71.3078331,58.5264746 71.3078331,58.5264746 Z" id="Miaoli" fill="#ACDCE1"></path>
                <path d="M45.0361012,87.762513 C45.0361012,87.762513 53.0902988,93.2306512 55.5571281,93.9131407 C58.0239574,94.5956301 60.688133,94.3242789 62.9452818,93.2306512 C65.2024306,92.1370236 66.9785477,91.248965 68.2777445,91.7957789 C69.5769412,92.3425927 69.4412656,93.6417894 72.5864729,93.9830342 C75.7316803,94.3242789 80.2418665,95.5535821 82.7703665,95.6933691 C85.2988665,95.8290447 88.8552121,95.3521244 94.3233503,91.7299967 C99.7914885,88.1078691 100.679547,87.9023 101.912962,87.7666244 C103.146376,87.6309488 102.796909,85.9206138 103.894648,84.8968796 C104.988276,83.8731455 109.366898,82.7795178 109.366898,82.7795178 C109.366898,82.7795178 110.254956,82.1628105 111.689828,83.943039 C113.124701,85.7191561 112.343538,87.2444788 118.798408,86.471539 C125.25739,85.7027105 121.396802,87.0019073 119.550791,89.1973854 C117.704781,91.3928634 112.236642,96.1785122 114.423898,101.029943 C116.611153,105.885485 117.704781,105.540129 115.723094,106.432299 C113.741408,107.320358 106.427259,109.713182 101.571717,104.450613 C96.7161747,99.1880439 99.3186796,101.239624 95.0099511,101.716544 C95.0099511,101.716544 91.3837121,104.450613 89.6774885,105.133103 C87.9671535,105.815592 86.6021746,106.843437 85.0275153,107.390251 C83.4569673,107.937065 82.84026,107.525927 81.3354941,108.825124 C79.8307283,110.12432 79.2181323,110.465565 77.5077974,110.259996 C75.7974624,110.054427 75.7316803,109.643289 74.4982656,110.671134 C73.2689624,111.694868 73.1291754,111.970331 70.876138,111.900438 C70.876138,111.900438 66.1603827,111.489299 64.1786965,116.891655 C62.1970103,122.294012 61.2555038,124.645722 56.2478403,122.088442 C45.3280094,116.509297 41.9402305,115.456783 38.1659817,110.399783 C34.9549922,106.091055 37.1422475,102.30036 37.9604126,100.248781 C38.782689,98.1972009 42.4377077,91.6025439 42.914628,90.0278845 C43.3956598,88.4450024 43.7245703,86.8909 45.0361012,87.762513 Z" id="Taichung" fill="#F27E20"></path>
                <path d="M32.3442646,109.614509 C32.3442646,109.614509 33.5283426,106.97089 34.6219703,107.106566 C35.7155979,107.242242 35.2592345,109.519947 36.1267361,110.798587 C36.9942378,112.073116 37.7013955,113.105072 46.3435207,118.39231 C47.9222915,119.358485 47.3713663,119.720286 46.1996224,120.406887 C44.9250939,121.151047 44.592072,120.92081 45.4801305,124.884182 C46.368189,128.847555 46.2325134,132.609469 47.120572,135.717674 C48.0086305,138.829991 48.5554443,139.134233 49.8546411,140.125076 C51.1538379,141.115919 52.5147053,142.312331 52.8723956,142.690578 C53.3040907,143.146942 53.0327395,144.232347 51.5608647,144.129562 C50.0931013,144.026778 39.5638516,144.088448 36.1102906,143.060603 C32.6567296,142.036869 31.1190727,141.144699 27.324267,141.214592 C23.5294613,141.284486 20.0101182,142.822143 18.846597,142.78514 C17.6830759,142.748138 13.789597,142.920816 14.607762,141.383159 C15.4341498,139.853725 32.3442646,109.614509 32.3442646,109.614509 Z" id="Changhua" fill="#ACDCE1"></path>
                <path d="M17.1444848,143.919882 C17.1444848,143.919882 20.9392905,144.261126 22.4070539,143.919882 C23.8748174,143.578637 26.851458,143.064714 30.3009076,143.545746 C33.7544686,144.022666 39.288389,144.877834 43.7327931,145.219078 C48.1771972,145.560323 50.5001281,145.186187 50.8413728,146.588169 C51.4745257,149.182451 50.7056972,153.766642 50.6358037,155.168623 C50.5659102,156.570604 49.9533143,159.14433 51.392298,159.658252 C52.8271704,160.172175 59.2491493,159.580136 59.6273964,159.715812 C60.0015322,159.851487 60.0385347,160.192732 59.9686412,160.84233 C59.8987477,161.491929 59.763072,162.071634 58.80512,162.174418 C57.847168,162.277203 43.9013598,162.174418 43.9013598,162.174418 C43.9013598,162.174418 43.5930061,163.300937 39.288389,159.576025 C34.9796605,155.851113 30.5722589,157.799908 28.6234637,159.029211 C26.6746686,160.258514 24.3517377,162.2402 22.8140808,162.651339 C21.2764239,163.062477 20.0800117,163.777857 19.1549507,165.315514 C18.2340011,166.853171 17.9914295,167.50277 16.2852059,167.572663 C14.574871,167.642557 13.5182458,168.049583 12.4575092,169.657134 C11.3967726,171.264684 10.8869612,172.629663 9.55076199,172.049958 C8.2145628,171.470253 7.94321158,170.989222 4.97068229,170.923439 C1.99815301,170.857657 3.12467171,170.47941 3.60159204,167.367094 C4.07851237,164.254778 4.66232863,158.889424 6.1670945,156.089573 C7.67186036,153.28561 12.4575092,143.989775 13.6868124,143.886991 C14.9202271,143.784206 16.2276466,143.849988 17.1444848,143.919882 Z" id="Yunlin" fill="#ACDCE1"></path>
                <path d="M49.3859435,121.69375 C49.3859435,121.69375 52.9422891,123.881005 56.1327216,124.016681 C59.3231542,124.152356 62.5135867,125.356991 63.5167639,123.116288 C64.5199412,120.875585 66.7524217,115.724023 67.7103737,114.856521 C68.6683258,113.98902 68.4380884,113.261305 70.3539924,114.034245 C72.2698965,114.807185 72.3151217,115.950149 73.0428364,114.992197 C73.770551,114.034245 75.2753169,111.530413 76.5539567,111.435851 C77.8284852,111.345401 78.0258315,112.303353 79.4319242,111.93744 C80.8380169,111.571527 89.0402243,108.335869 90.9561283,106.239064 C92.8720324,104.142259 95.0592877,102.95407 96.6997292,102.888288 C98.3401706,102.822506 99.0678853,106.329515 102.122642,107.65338 C105.177399,108.977245 109.64236,109.02247 111.237576,109.11292 C112.832793,109.203371 114.69936,110.798587 111.237576,115.765137 C107.775793,120.731686 107.545555,121.418287 108.001919,123.556206 C108.458282,125.698236 110.279624,126.837089 108.959871,130.393434 C107.640117,133.94978 103.948096,139.919507 104.309898,141.740849 C104.675811,143.562191 106.817841,144.339243 107.319429,145.798783 C107.821018,147.258324 107.093303,150.584432 106.63694,153.318501 C106.180576,156.05257 105.999676,157.327099 103.902871,158.560513 C101.806066,159.789817 101.489489,159.510243 101.440153,161.039677 C101.394928,162.569111 102.032192,164.028652 99.5735853,164.300003 C97.1149788,164.571354 95.3347503,164.892042 94.5618105,166.622934 C93.7888706,168.353826 92.2388796,171.955396 89.8666121,172.181522 C87.4943446,172.407648 77.4707949,172.271973 76.2414917,171.634709 C75.0121884,170.997444 72.0026567,169.447453 70.8638038,165.434744 C69.724951,161.422035 68.4010859,160.102282 63.9361249,158.416615 C59.4711639,156.730948 58.2377493,158.190489 56.3711818,158.37139 C54.5046143,158.552291 51.9308891,158.823642 51.7664338,155.54687 C51.5403078,150.921565 53.2013062,146.59228 54.340159,144.766826 C55.4790119,142.945484 55.9600436,142.102651 53.2711997,140.141521 C50.5823557,138.180392 49.1228151,138.044717 48.9871395,134.899509 C48.8514639,131.754302 48.530776,127.700479 47.712611,124.96641 C46.8821118,122.240564 46.4956419,120.283546 49.3859435,121.69375 Z" id="Nantou" fill="#ACDCE1"></path>
                <path d="M77.3680104,174.171431 C76.1387071,173.830187 72.7180372,173.283373 71.0118136,169.899705 C69.3014786,166.516038 69.5440502,165.352517 68.9273428,164.398676 C68.3106355,163.440724 65.4244453,161.833174 64.894077,161.528931 C64.894077,161.528931 62.0243322,159.719923 61.9873298,161.171241 C61.9544387,162.622559 61.0293777,163.613402 56.5849737,163.749078 C52.1405696,163.884753 43.527224,164.057431 43.527224,164.057431 C43.527224,164.057431 41.7141045,163.954647 39.6666362,162.330651 C37.6150565,160.706655 35.8060483,158.930538 33.4132239,159.099104 C31.0203995,159.271783 25.2767987,163.165261 24.5614182,163.712075 C23.8419263,164.258889 20.5610434,166.754498 19.8785539,167.778232 C19.1960645,168.801966 18.7150328,168.904751 17.2143783,169.180213 C15.7137238,169.455676 13.9006043,170.647977 12.9056498,172.391203 C11.9148067,174.134429 11.9847002,174.545567 10.648501,174.16732 C9.31641321,173.793184 7.29772458,172.288418 6.03553027,172.55977 C4.76922457,172.835232 4.15662863,174.270105 4.15662863,175.873544 C4.15662863,177.476983 4.15662863,189.510998 4.15662863,189.510998 C4.15662863,189.510998 5.28314734,190.366166 8.32557012,191.287115 C11.3679929,192.208065 11.9476978,191.62836 12.7329718,190.534732 C13.5182458,189.441105 21.4162108,182.057062 22.612623,181.271788 C23.8090352,180.486514 24.3887401,179.804025 28.6275751,179.804025 C32.8664101,179.804025 33.6516841,179.429889 34.2683914,179.22432 C34.8850987,179.018751 36.147293,178.677506 37.5163833,180.046596 C38.8854736,181.415687 43.2229817,185.448953 43.2229817,185.448953 C43.2229817,185.448953 44.3166094,186.953718 43.839689,188.902514 C43.3627687,190.851309 44.2138248,191.977827 44.5591809,192.660317 C44.9004256,193.342806 45.9940533,196.113878 46.335298,196.829258 C46.6765427,197.54875 47.6016037,198.572484 48.1484175,198.264131 C48.6952313,197.955777 50.3356728,194.707785 50.9153777,194.913354 C51.4950826,195.118923 51.8733297,197.170503 52.9669574,197.170503 C54.060585,197.170503 55.1542127,197.240397 55.8737045,194.744788 C56.5931964,192.249179 58.2336379,190.403168 59.1545875,189.720679 C60.0755371,189.038189 65.9219225,185.720304 68.9643453,182.612099 C72.0067681,179.499783 77.0637681,175.569301 77.6105819,175.265059 C78.1532844,174.956705 78.601425,174.512676 77.3680104,174.171431 Z M44.4193939,173.986419 C44.2837183,175.215722 44.3042752,175.947548 43.2106476,175.92288 C42.1170199,175.898212 40.5670288,175.877655 40.0654402,176.560144 C39.5638516,177.242634 39.3377256,177.608547 38.3551053,177.67844 C37.3765963,177.748334 36.7352207,176.950726 35.9170556,176.264125 C35.0947792,175.581635 34.0011516,175.741979 33.6146816,175.53641 C33.2282117,175.330841 31.9947971,174.919703 32.0194654,173.669843 C32.0441337,172.415871 31.9495719,171.412694 34.8439849,170.549304 C35.4113556,170.380737 36.0732882,169.681802 36.6653272,169.591352 C37.2573662,169.500901 39.0787085,169.134988 39.9256532,169.817478 C39.9256532,169.817478 40.6985931,170.499967 42.182802,170.684979 C43.667011,170.86588 44.5550695,172.757116 44.4193939,173.986419 Z" id="Chiayi" fill="#8BCDC5"></path>
                <path d="M33.4707833,172.761227 C33.2405459,173.295707 33.306328,174.039867 33.9271467,174.25777 C34.3793987,174.418114 34.8480963,174.508565 35.3126825,174.619572 C35.5922565,174.685354 35.8718304,174.784027 36.0897337,174.973151 C36.2665231,175.125272 36.3734191,175.334953 36.5255402,175.507631 C36.67355,175.676197 36.8338939,175.83243 37.0065719,175.976328 C37.3108142,176.227122 37.7055069,176.506696 38.1207565,176.50263 C38.503115,176.494362 38.8032459,176.112004 39.0417061,175.857098 C39.2637207,175.614527 39.461067,175.371955 39.7570866,175.215722 C40.353237,174.899146 41.0727288,175.026599 41.7223272,175.03071 C42.0841289,175.034822 42.4500419,175.034822 42.8077321,174.989596 C43.0996402,174.952594 43.2270931,174.775805 43.2599841,174.492119 C43.2887638,174.220768 43.3298776,173.953528 43.3709915,173.682177 C43.420328,173.357378 43.4326622,173.016133 43.3052093,172.711891 C43.1160858,172.271973 42.6843906,172.099295 42.2568069,171.967731 C41.8333345,171.836166 41.3851939,171.78683 40.9411646,171.782718 C40.6081427,171.778607 40.2504524,171.721048 39.9791012,171.515479 C39.7241955,171.326355 39.7159727,171.067338 39.5474061,170.828878 C39.4363988,170.668534 39.234941,170.59864 39.0417061,170.573972 C38.7415752,170.53697 38.4332215,170.53697 38.1289792,170.528747 C37.7671776,170.520524 37.3889305,170.557526 37.072354,170.74665 C36.6324361,171.001556 36.1226248,171.153677 35.6539272,171.346912 C35.2715687,171.507256 34.8850987,171.655266 34.5191857,171.8485 C34.1368272,172.049958 33.7668028,172.23497 33.5447882,172.629663 C33.5118971,172.674888 33.4913402,172.720113 33.4707833,172.761227 Z" id="Chiayi4" fill="#8BCDC5"></path>
                <path d="M75.8632445,319.570461 C75.6987892,319.804809 74.1117957,319.706136 73.7541055,319.6568 C73.2689624,319.586906 73.0551705,318.830412 72.8084876,318.398717 C72.3521242,317.588775 71.9492087,316.470479 71.0447046,316.273132 C68.2160737,315.664648 67.4184656,313.551397 65.9260339,313.773412 C64.388377,314.270889 65.0873119,316.334803 64.8652973,316.803501 C64.3431517,317.909462 63.3687542,317.601109 62.4601387,316.770609 C59.2121468,313.79808 64.6802851,312.564666 59.4876094,308.190155 C57.3455793,306.385258 61.4857412,302.997479 61.5720802,300.362083 C61.666642,297.455336 57.5593712,294.412913 57.7361607,291.444495 C57.8636135,289.306577 58.0691826,287.394784 56.8768818,285.50766 C55.6146875,283.509528 53.7933452,281.914312 52.6750492,279.817507 C50.7755907,276.248827 49.3324956,272.930942 45.8830459,270.529895 C44.9497622,269.880296 44.1891565,269.485603 43.0873061,270.344882 C41.9936784,271.195938 40.8219345,270.677904 39.8105345,269.929633 C38.8279142,269.201918 39.4405101,268.338528 39.6707475,267.54092 C40.3244573,265.259103 40.9863898,262.973174 41.6935476,260.707803 C42.3431459,258.631555 42.3267004,256.641646 41.1426223,254.754521 C40.7972662,254.203596 40.6533679,253.599223 40.6574793,252.96607 C40.6739248,248.143419 40.7150386,243.320768 40.7150386,238.494005 C40.7150386,236.717888 41.5537606,235.74349 43.3134321,235.776381 C47.3960346,235.846275 50.6851403,234.604637 52.4859257,230.620708 C52.8148362,229.892993 53.5631078,229.605197 54.3442704,229.510635 C55.5242371,229.370848 56.7042037,229.243395 57.8841704,229.103608 C59.2902631,228.939153 60.5647916,229.025492 61.6830875,230.156122 C62.4724729,230.957841 63.6236599,231.151076 64.6391713,230.522035 C66.1562713,229.576417 66.0575981,230.489144 67.2910127,231.410094 C69.2809217,232.894302 69.478268,232.844966 71.1803802,231.052403 C71.6120754,230.600151 72.0437705,230.143788 72.479577,229.695647 C73.4950884,228.643133 74.5599364,228.651356 75.6124502,229.61342 C77.1829982,231.048292 75.2753169,232.20359 76.8294193,233.654908 C79.0865681,235.755824 78.5109746,241.03895 74.7079461,241.787222 C71.381838,242.440932 72.5206908,245.072216 71.2132713,248.172198 C68.6025436,254.384497 62.8137176,258.578107 65.5971233,265.164541 C66.6743054,267.709486 66.8469835,270.513449 67.0854436,273.255741 C67.2005623,274.583717 67.6158119,275.656788 68.853338,276.355723 C69.4494884,276.692856 69.8524038,277.293118 70.0250819,278.000276 C70.3457697,279.287139 70.31699,280.787793 69.9181859,282.054099 C69.7537306,282.580356 69.5646071,283.110724 69.5769412,283.661649 C69.6262778,285.791345 73.0099453,284.22902 72.8619355,286.486169 C72.7385941,288.319845 78.5603112,287.810034 78.1573957,289.565594 C77.6270274,291.867968 77.5077974,298.65586 78.1779526,300.436088 C79.0618998,302.775465 79.2140209,307.043079 77.0966591,308.342276 C72.5618046,311.12157 71.8793152,313.46917 74.6339412,317.662779 C75.1930892,318.505613 76.019477,319.356669 75.8632445,319.570461 Z" id="Pingtung" fill="#8BCDC5"></path>
                <path d="M93.7436454,183.286366 C94.3480186,181.09911 92.9378145,180.613967 91.2727048,180.137047 C90.2078568,179.832805 88.4358511,180.042485 88.3412893,178.693952 C88.2672844,177.592101 89.9858421,177.674329 90.9150145,177.254968 C92.0374218,176.749268 92.7445796,176.107892 92.7034657,174.726468 C92.6130153,171.626486 95.9350121,167.165636 98.9404324,166.454367 C101.123576,165.936333 102.879137,165.245621 102.891471,162.548554 C102.895582,161.812617 103.508178,161.187687 104.112551,160.710766 C106.394368,158.909981 107.553778,156.471931 108.117037,153.692637 C108.462393,151.978191 108.832418,150.267856 109.157217,148.549298 C109.572467,146.341486 109.066767,144.42147 107.212533,143.035934 C106.225802,142.299997 106.151797,141.543503 106.661608,140.453986 C107.952582,137.674692 109.116103,134.837838 110.357741,132.033876 C111.673383,129.057235 112.08041,126.175156 109.868486,123.375305 C109.181885,122.503692 109.408011,121.459401 109.995939,120.554897 C110.916889,119.13647 111.821393,117.705709 112.82457,116.348953 C114.078541,114.655064 115.126944,112.961174 114.867927,110.691691 C114.72814,109.466499 115.669646,108.718228 116.713937,108.364649 C118.420161,107.793167 118.469498,106.777655 117.918572,105.305781 C117.157967,103.258312 116.60293,101.132728 115.875215,99.0729252 C115.332513,97.5352683 115.649089,96.2484057 116.701603,95.088996 C118.300931,93.325213 119.929038,91.5943211 121.503698,89.8140927 C122.630216,88.5395642 123.958193,88.2312105 125.565743,88.6423488 C129.015193,89.5262959 132.489311,90.3239041 135.926426,91.248965 C137.106393,91.5655415 138.25758,91.5737642 139.162084,90.8748293 C141.785146,88.8643634 144.720673,88.8890317 147.74665,89.2878358 C149.169188,89.4769593 150.587615,89.7154195 152.00193,89.9826593 C154.563321,90.4678024 155.447269,93.0168594 153.69582,94.949209 C152.515853,96.2525171 151.097426,97.2926968 149.633774,98.2670943 C147.676756,99.5704025 146.480344,101.449304 146.500901,103.75579 C146.529681,106.629646 145.896528,109.330824 145.119477,112.044336 C144.679559,113.577881 144.621999,115.164875 145.012581,116.690198 C145.362048,118.051065 145.288043,119.342039 144.679559,120.526117 C142.109945,125.537892 141.550797,131.03481 140.761412,136.474169 C139.708898,143.710201 138.701609,150.954456 137.644984,158.190489 C137.529865,158.988097 137.414746,159.880267 136.987163,160.517531 C135.326164,162.996695 135.638629,165.45119 136.699366,168.016692 C136.983051,168.703293 137.710766,169.595463 137.036499,170.224505 C136.489686,170.738427 135.605738,170.146388 134.919138,169.895594 C132.168623,168.880083 129.6319,169.287109 127.276078,170.964553 C126.174228,171.745716 125.598634,172.703668 125.935768,174.171431 C126.363351,176.033887 125.985104,178.204697 125.220387,179.931478 C122.852231,185.255718 116.220572,195.965868 114.419786,201.62313 C113.552285,204.723112 110.999116,204.303751 108.906423,202.761983 C105.395302,199.57155 106.558824,194.530996 102.069194,192.327295 C99.9353869,191.278892 97.7933568,188.795618 95.7253316,187.627985 C93.9286576,186.616585 93.2996161,185.58874 93.7436454,183.286366 Z" id="Hualien" fill="#95D3E2"></path>
                <path d="M80.1020795,274.110908 C80.4145445,278.612872 77.4255697,275.340212 77.8449307,287.226217 C77.8531535,287.518126 77.5776909,287.641467 77.2898941,287.596242 C74.1323526,287.074096 74.9998543,285.470657 73.996677,285.117078 C72.2082258,284.488037 73.0510591,283.340961 71.4435087,282.703697 C70.6582347,282.391232 72.672812,278.645763 71.694303,276.709302 C69.2315851,274.59194 68.1420688,268.227521 67.7514875,262.771716 C67.6528144,261.382069 67.8501607,260.008868 68.1749599,258.680891 C68.7053282,256.497747 71.887538,251.502418 72.5823616,249.364499 C73.5238681,246.470086 73.9062266,243.509891 76.7143006,242.720506 C79.0906795,242.054462 80.9654697,240.80049 81.3930535,238.156872 C81.8576397,235.291238 81.5575088,232.729847 78.8686648,230.838611 C75.7604599,228.651356 77.955938,226.073519 78.3835218,222.508951 C79.2592461,215.182468 80.5419974,207.864208 81.1669275,200.504834 C81.7014071,194.202085 85.6524454,190.896534 90.8944576,188.08846 C92.082647,187.451196 93.0776015,187.693767 94.0478877,188.269361 C96.7901796,189.889245 97.9125869,192.347852 100.92623,193.470259 C105.115728,195.028473 104.43735,201.545014 108.223933,203.876167 C109.01743,204.365422 109.864375,204.817674 110.744211,205.101359 C113.186372,205.87841 114.715806,205.331597 115.509302,202.905881 C117.976132,195.369718 126.618257,183.265809 127.917454,175.392512 C127.958568,175.145829 128.020238,174.874478 127.962679,174.64424 C127.510427,172.905126 128.427265,172.128074 129.895029,171.49081 C131.412129,170.832989 132.875781,169.895594 134.417549,171.207125 C135.988097,172.551547 134.162643,175.026599 133.698057,177.11107 C132.686657,181.629479 130.88176,184.305988 129.261876,188.635274 C127.859894,192.376631 127.456979,196.134435 128.14358,200.056693 C128.525938,202.231614 128.012016,204.283194 126.86494,206.170319 C123.781403,211.251987 115.414741,215.412706 112.380541,220.527265 C111.414366,222.151261 113.243931,224.14117 111.381475,224.515306 C108.906423,225.012783 108.507619,225.555485 108.507619,228.104542 C108.507619,229.979333 107.759347,231.455319 106.587603,232.849077 C102.846245,237.305815 99.5448056,239.456068 95.6883292,243.826468 C91.4124917,248.673787 88.2261706,249.002698 87.3874486,255.330115 C87.0174242,258.138189 85.4180966,259.753962 83.9955584,262.286573 C82.873151,266.525408 81.6109567,265.731912 81.4670584,269.123802 C81.4012762,270.735464 80.1020795,272.223784 80.1020795,274.110908 Z" id="Taitung" fill="#95D3E2"></path>
                <path d="M90.9684625,174.845698 C90.199634,175.688531 89.0772267,175.926992 88.0946064,176.403912 C86.1622568,177.345418 85.9032397,178.833739 87.5601267,180.178161 C88.5221901,180.959323 89.6733771,181.506137 90.7258909,182.176292 C92.189543,183.101353 92.3539983,184.277209 91.0589129,185.477732 C90.2900844,186.193113 89.3568007,186.752261 88.4440738,187.28674 C81.6931844,191.246001 78.6754299,197.330847 78.7329892,204.953349 C78.7658803,209.331971 78.009386,213.389906 75.7522372,217.160043 C74.5311567,219.191066 74.5064884,221.222089 75.6617868,223.384676 C77.0349884,225.954289 76.9363152,226.007737 74.3831469,227.50428 C73.8980038,227.787966 73.3717469,228.018203 72.9277177,228.355337 C71.2173827,229.650422 69.5728298,230.069783 67.7103737,228.511569 C66.7894241,227.738629 65.5601209,227.824968 64.5240526,228.491012 C63.5126526,229.136499 62.6657078,229.095385 61.8763225,228.178547 C61.2102786,227.401496 60.3715566,227.14659 59.3560452,227.249375 C58.3610907,227.348048 57.3538021,227.315157 56.3547363,227.372716 C53.9002411,227.516615 51.8815525,228.486901 50.4960167,230.579594 C49.0282533,232.787407 46.9191142,233.807029 44.3412776,234.008487 C43.9671419,234.037267 43.5888947,234.053712 43.2188703,234.111272 C39.7365297,234.658085 38.9306988,235.463916 38.9348101,239.024373 C38.9389215,244.644633 38.5853427,250.264892 39.9585443,255.839926 C40.9781671,259.980088 39.1732703,263.848899 37.943967,267.709486 C37.6356134,268.683884 36.79278,268.93879 36.0321743,268.153516 C31.5589906,263.524099 26.5472158,259.388049 22.9209767,253.973359 C22.1315913,252.793392 22.0987003,251.728544 23.278667,250.861042 C24.6148661,249.874311 24.3681832,248.842354 23.6610255,247.604828 C21.0544092,243.041194 18.5012409,238.444668 15.9316271,233.860477 C15.6273848,233.313663 15.3478108,232.754515 15.0353458,232.211813 C14.4803092,231.24975 14.0403913,229.999889 14.5378685,229.189947 C14.9901206,228.449898 16.2399807,229.161167 17.1280393,229.263952 C20.4130336,229.633976 23.5870206,230.772829 26.9460198,230.674156 C28.4343402,230.633042 29.8075418,230.279463 30.9916198,229.395516 C32.3977125,228.338891 33.7544686,227.290489 35.6210361,227.105476 C36.6612158,227.002692 37.0271288,226.052963 36.9449012,225.12379 C36.7516662,222.932424 37.7260638,221.768902 39.8146459,221.201532 C41.22485,220.819173 42.1581337,219.684432 42.4582646,218.261893 C42.8858484,216.247316 44.0534809,214.77133 45.4842419,213.418685 C50.20822,208.949613 54.5991761,204.159853 56.6301989,197.857104 C57.9705094,193.696385 60.32222,190.760858 64.1499168,188.783283 C66.1686054,187.738992 67.7309306,186.077994 69.0506843,184.207315 C69.9592997,182.916341 71.102264,181.851493 72.4055721,180.959323 C74.9381835,179.228431 77.4872404,177.522208 79.7485006,175.433626 C80.6571161,174.594904 81.7301868,174.224879 83.0047153,174.253659 C85.6236657,174.31533 88.2467275,174.270105 90.8697893,174.270105 C90.9026804,174.451005 90.9355714,174.648352 90.9684625,174.845698 Z" id="Kaohsiung" fill="#8BCDC5"></path>
                <path d="M24.8081011,228.881593 C21.9465791,228.676024 19.072723,228.482789 16.4496612,227.121922 C15.3436994,226.55044 14.3528563,226.686115 13.5922506,227.639956 C12.9714319,228.421119 12.6137417,228.248441 12.0299254,227.590619 C9.28763354,224.49886 6.49600507,221.456437 3.72904489,218.393458 C3.13289448,217.735637 2.74231317,216.958585 2.47918472,216.107529 C2.11738309,214.911117 1.83369772,213.673591 1.31566357,212.551184 C-0.439896601,208.748155 -0.365891722,205.002686 1.10598308,201.109207 C1.92003675,198.963066 2.29006114,196.644246 2.80809529,194.391209 C3.30968391,192.203953 4.13196034,191.681808 6.27810181,192.351963 C7.23194247,192.652094 8.15289207,193.046787 9.0902872,193.388031 C10.8129563,194.00885 12.2848311,193.647049 13.4853547,192.249179 C13.9869433,191.665362 14.5419799,191.09388 15.3724791,191.196665 C16.8607994,191.385788 17.4240588,190.58818 17.9009791,189.317763 C19.685319,184.573228 23.2704442,182.143401 28.4055605,182.044728 C29.7828735,182.02006 31.1272955,181.888496 32.467606,181.460912 C34.3218394,180.872984 36.0527313,181.18122 37.4588239,182.677881 C38.4044418,183.681058 39.3665053,184.663679 40.3409028,185.638076 C41.3564142,186.649476 42.4705988,187.549869 41.4468646,189.264315 C41.0727288,189.889245 41.4962012,190.727967 41.8374459,191.402234 C42.9639646,193.634714 44.1274858,195.850749 45.2498931,198.087341 C45.8542663,199.296088 46.7135451,199.740117 48.0004078,199.189192 C49.7477452,198.436809 51.5156395,198.605375 53.3369818,198.942509 C54.5005029,199.156301 54.4429436,199.587996 54.0194712,200.451386 C52.8271704,202.877101 51.4991939,205.175364 49.509285,207.083045 C46.0803923,210.372151 42.5610492,213.603697 40.6410337,218.130329 C40.1846703,219.2034 39.20205,219.815996 38.0590857,220.153129 C36.7804459,220.531376 35.7361548,221.296093 35.5388085,222.661072 C35.3085711,224.248066 34.3876215,225.197795 33.1829865,226.081742 C30.6873776,227.923641 27.9574198,228.996712 24.8081011,228.881593 Z" id="Tainan" fill="#8BCDC5"></path>
            </g>
        </g>
    </g>
</svg>