<?xml version="1.0" encoding="UTF-8"?>
<svg width="59px" height="38px" viewBox="0 0 59 38" version="1.1" xmlns="http://www.w3.org/2000/svg" xmlns:xlink="http://www.w3.org/1999/xlink">
    <title>Miaoli</title>
    <g id="-page1" stroke="none" stroke-width="1" fill="none" fill-rule="evenodd">
        <g id="tones" transform="translate(-140.000000, -303.000000)" fill="#ACDCE1" fill-rule="nonzero">
            <path d="M165.57486,304.916106 C166.713713,305.282019 171.454137,307.469274 172.59299,308.332665 C173.731843,309.200166 175.557296,311.568322 178.015903,312.7524 C180.478621,313.936478 182.345188,315.260343 188.224465,316.810335 C194.103741,318.360326 195.744183,320.136443 196.426672,321.184845 C197.109161,322.233248 198.613927,325.604581 198.021888,327.746611 C197.429849,329.888641 195.879858,332.441809 195.012357,332.487035 C194.144855,332.53226 188.175128,335.632242 186.625137,336.635419 C185.075146,337.638596 182.341077,339.459939 180.791086,340.191765 C179.241095,340.919479 178.192692,341.149717 177.329302,340.191765 C176.4618,339.233813 172.773891,339.369488 170.492073,339.369488 C168.214368,339.369488 166.343689,338.049735 163.60962,336.499744 C160.875551,334.949753 156.912178,338.366311 155.267625,338.777449 C153.627184,339.188588 152.98992,340.051978 148.249496,337.001332 C143.509072,333.946575 140.639328,332.396584 140.639328,332.396584 C140.639328,332.396584 139.500475,331.66887 140.639328,330.028428 C141.778181,328.387987 148.931986,314.121491 152.533556,312.620836 C156.135127,311.11607 156.727166,311.662884 158.092145,309.796317 C159.457124,307.929749 162.42143,303.962265 162.42143,303.962265 C162.42143,303.962265 162.511881,302.913863 163.605508,303.736139 C164.707359,304.550193 165.57486,304.916106 165.57486,304.916106 Z" id="Miaoli"></path>
        </g>
    </g>
</svg>