<?xml version="1.0" encoding="utf-8"?>
<!-- Generator: Adobe Illustrator 21.1.0, SVG Export Plug-In . SVG Version: 6.00 Build 0)  -->
<svg version="1.1" id="圖層_1" xmlns="http://www.w3.org/2000/svg" xmlns:xlink="http://www.w3.org/1999/xlink" x="0px" y="0px"
	 viewBox="0 0 59 38" style="enable-background:new 0 0 59 38;" xml:space="preserve">
<style type="text/css">
	.st0{fill:#F27E20;}
</style>
<title>Miaoli</title>
<g id="_x2D_page1">
	<g id="tones" transform="translate(-140.000000, -303.000000)">
		<path id="Miaoli" class="st0" d="M165.6,304.9c1.1,0.4,5.9,2.6,7,3.4c1.1,0.9,3,3.2,5.4,4.4c2.5,1.2,4.3,2.5,10.2,4.1
			c5.9,1.5,7.5,3.3,8.2,4.4c0.7,1,2.2,4.4,1.6,6.6c-0.6,2.1-2.1,4.7-3,4.7c-0.9,0-6.8,3.1-8.4,4.1c-1.5,1-4.3,2.8-5.8,3.6
			c-1.6,0.7-2.6,1-3.5,0c-0.9-1-4.6-0.8-6.8-0.8c-2.3,0-4.1-1.3-6.9-2.9s-6.7,1.9-8.3,2.3c-1.6,0.4-2.3,1.3-7-1.8
			c-4.7-3.1-7.6-4.6-7.6-4.6s-1.1-0.7,0-2.4s8.3-15.9,11.9-17.4c3.6-1.5,4.2-1,5.6-2.8c1.4-1.9,4.3-5.8,4.3-5.8s0.1-1,1.2-0.2
			C164.7,304.6,165.6,304.9,165.6,304.9z"/>
	</g>
</g>
</svg>
