<?xml version="1.0" encoding="utf-8"?>
<!-- Generator: Adobe Illustrator 21.1.0, SVG Export Plug-In . SVG Version: 6.00 Build 0)  -->
<svg version="1.1" id="圖層_1" xmlns="http://www.w3.org/2000/svg" xmlns:xlink="http://www.w3.org/1999/xlink" x="0px" y="0px"
	 viewBox="0 0 67 70" style="enable-background:new 0 0 67 70;" xml:space="preserve">
<style type="text/css">
	.st0{fill:#F27E20;}
</style>
<title>Nantou</title>
<g id="_x2D_page1">
	<g id="tones" transform="translate(-141.000000, -349.000000)">
		<path id="Nantou" class="st0" d="M143.7,368.1c0,0,3.6,2.2,6.7,2.3s6.4,1.3,7.4-0.9c1-2.2,3.2-7.4,4.2-8.3s0.7-1.6,2.6-0.8
			c1.9,0.8,2,1.9,2.7,1c0.7-1,2.2-3.5,3.5-3.6c1.3-0.1,1.5,0.9,2.9,0.5c1.4-0.4,9.6-3.6,11.5-5.7c1.9-2.1,4.1-3.3,5.7-3.4
			c1.6-0.1,2.4,3.4,5.4,4.8c3.1,1.3,7.5,1.4,9.1,1.5c1.6,0.1,3.5,1.7,0,6.7c-3.5,5-3.7,5.7-3.2,7.8c0.5,2.1,2.3,3.3,1,6.8
			c-1.3,3.6-5,9.5-4.6,11.3c0.4,1.8,2.5,2.6,3,4.1s-0.2,4.8-0.7,7.5c-0.5,2.7-0.6,4-2.7,5.2c-2.1,1.2-2.4,0.9-2.5,2.5
			c0,1.5,0.6,3-1.9,3.3c-2.5,0.3-4.2,0.6-5,2.3c-0.8,1.7-2.3,5.3-4.7,5.6c-2.4,0.2-12.4,0.1-13.6-0.5c-1.2-0.6-4.2-2.2-5.4-6.2
			c-1.1-4-2.5-5.3-6.9-7c-4.5-1.7-5.7-0.2-7.6,0c-1.9,0.2-4.4,0.5-4.6-2.8c-0.2-4.6,1.4-9,2.6-10.8c1.1-1.8,1.6-2.7-1.1-4.6
			s-4.1-2.1-4.3-5.2c-0.1-3.1-0.5-7.2-1.3-9.9C141.1,368.6,140.8,366.7,143.7,368.1z"/>
	</g>
</g>
</svg>
