<?xml version="1.0" encoding="UTF-8"?>
<svg width="67px" height="70px" viewBox="0 0 67 70" version="1.1" xmlns="http://www.w3.org/2000/svg" xmlns:xlink="http://www.w3.org/1999/xlink">
    <title>Nantou</title>
    <g id="-page1" stroke="none" stroke-width="1" fill="none" fill-rule="evenodd">
        <g id="tones" transform="translate(-141.000000, -349.000000)" fill="#ACDCE1" fill-rule="nonzero">
            <path d="M143.652971,368.083381 C143.652971,368.083381 147.209316,370.270637 150.399749,370.406312 C153.590181,370.541988 156.780614,371.746623 157.783791,369.505919 C158.786969,367.265216 161.019449,362.113654 161.977401,361.246153 C162.935353,360.378651 162.705116,359.650936 164.62102,360.423876 C166.536924,361.196816 166.582149,362.33978 167.309864,361.381828 C168.037578,360.423876 169.542344,357.920045 170.820984,357.825483 C172.095512,357.735032 172.292859,358.692984 173.698952,358.327071 C175.105044,357.961158 183.307252,354.725501 185.223156,352.628696 C187.13906,350.531891 189.326315,349.343701 190.966756,349.277919 C192.607198,349.212137 193.334913,352.719146 196.38967,354.043011 C199.444426,355.366876 203.909387,355.412101 205.504604,355.502552 C207.09982,355.593002 208.966387,357.188219 205.504604,362.154768 C202.04282,367.121318 201.812583,367.807919 202.268946,369.945837 C202.725309,372.087867 204.546652,373.22672 203.226898,376.783066 C201.907144,380.339411 198.215123,386.309138 198.576925,388.130481 C198.942838,389.951823 201.084868,390.728874 201.586457,392.188415 C202.088045,393.647955 201.360331,396.974063 200.903967,399.708133 C200.447604,402.442202 200.266703,403.71673 198.169898,404.950145 C196.073093,406.179448 195.756517,405.899874 195.70718,407.429308 C195.661955,408.958742 196.299219,410.418283 193.840613,410.689634 C191.382006,410.960986 189.601778,411.281673 188.828838,413.012565 C188.055898,414.743457 186.505907,418.345028 184.133639,418.571154 C181.761372,418.79728 171.737822,418.661604 170.508519,418.02434 C169.279216,417.387076 166.269684,415.837085 165.130831,411.824376 C163.991978,407.811667 162.668113,406.491913 158.203152,404.806246 C153.738191,403.12058 152.504777,404.58012 150.638209,404.761021 C148.771642,404.941922 146.197916,405.213273 146.033461,401.936502 C145.807335,397.311197 147.468333,392.981911 148.607186,391.156458 C149.746039,389.335115 150.227071,388.492282 147.538227,386.531153 C144.849383,384.570024 143.389842,384.434348 143.254167,381.289141 C143.118491,378.143933 142.797803,374.090111 141.979638,371.356041 C141.149139,368.630195 140.762669,366.673177 143.652971,368.083381 Z" id="Nantou"></path>
        </g>
    </g>
</svg>