<svg id="Layer_1" data-name="Layer 1" xmlns="http://www.w3.org/2000/svg" xmlns:xlink="http://www.w3.org/1999/xlink" viewBox="0 0 242.59 61.8"><defs><style>.cls-1{fill:#2d4141;}.cls-2{fill:#3b5151;}.cls-3{fill:#f5da7c;}.cls-4{fill:url(#linear-gradient);}.cls-5{fill:url(#linear-gradient-2);}.cls-6{fill:url(#linear-gradient-3);}.cls-7{fill:url(#linear-gradient-4);}.cls-8{fill:url(#linear-gradient-5);}.cls-9{fill:#4980c1;}</style><linearGradient id="linear-gradient" x1="-2187.33" y1="43.74" x2="-2181.46" y2="11.26" gradientTransform="matrix(-1, 0, 0, 1, -2153.5, 0)" gradientUnits="userSpaceOnUse"><stop offset="0" stop-color="#4980c1"/><stop offset="0.03" stop-color="#4983bf"/><stop offset="0.33" stop-color="#4da7aa"/><stop offset="0.5" stop-color="#4fb4a2"/><stop offset="1" stop-color="#f9ef81"/></linearGradient><linearGradient id="linear-gradient-2" x1="-2171.3" y1="46.64" x2="-2165.43" y2="14.16" xlink:href="#linear-gradient"/><linearGradient id="linear-gradient-3" x1="-2184.66" y1="44.23" x2="-2178.78" y2="11.74" xlink:href="#linear-gradient"/><linearGradient id="linear-gradient-4" x1="-2168.63" y1="47.12" x2="-2162.76" y2="14.64" xlink:href="#linear-gradient"/><linearGradient id="linear-gradient-5" x1="23.95" y1="34.37" x2="18.16" y2="16.04" gradientTransform="matrix(1, 0, 0, 1, 0, 0)" xlink:href="#linear-gradient"/></defs><title>newlogo</title><path class="cls-1" d="M57.58,24.27a10.18,10.18,0,0,1-1.23,1.53h9.26v1.28A12.63,12.63,0,0,1,61,30.64a39.22,39.22,0,0,0,9.3,1.7L69.22,34a30.26,30.26,0,0,1-10.36-2.43A50.8,50.8,0,0,1,48,34.09l-1.2-1.57a62.3,62.3,0,0,0,10-1.93,23.24,23.24,0,0,1-3.52-2.41,19.26,19.26,0,0,1-3.11,1.68l-1.66-1.14c3.29-1.23,5.68-2.73,7.11-4.47A1.67,1.67,0,0,1,54,22.35v-3h1.7V22c0,.54.25.84.77.84h4.57a1.26,1.26,0,0,0,.81-.22c.23-.2.37-.74.45-1.68l1.62.5c-.15,1.35-.42,2.16-.83,2.46a3.2,3.2,0,0,1-1.73.39Zm-3.91-7.48h4.16A22.56,22.56,0,0,0,57,14.52l1.72-.29c.3.66.62,1.75.89,2.56H63c.51-.89,1-1.07,1.4-2.06h2a15,15,0,0,1-1.57,2.06h3.89v4.28H67V18.36H50v2.71H48.28V16.79h3.64a27.12,27.12,0,0,0-1.41-2.43l1.73-.27C52.53,14.71,53.42,16.05,53.67,16.79Zm-.79,3.57A7.43,7.43,0,0,1,50.37,24l-1.82-.33a8.74,8.74,0,0,0,2.83-3.88ZM68.09,15H49.31l0-1.5,18.8,0ZM59,29.86a14.22,14.22,0,0,0,4.35-2.64H54.75a.41.41,0,0,0-.12.08A24.35,24.35,0,0,0,59,29.86Zm2-8.76-1.65.67A12.57,12.57,0,0,0,57,19.69l1.55-.93A14.71,14.71,0,0,1,61,21.1Zm7.6,2.63-1.84.43A26.19,26.19,0,0,0,64,20.31l1.3-.84A34.72,34.72,0,0,1,68.63,23.73Z"/><path class="cls-1" d="M76.06,21.12c1.69-1.65,2.5-2.92,6.28-7.76l2.2.06c-2.21,3.15-4,5.24-5.65,7.65,4.73-.2,9.57-.54,13.8-.94a18.7,18.7,0,0,0-1.87-2.39l2-.26a38.14,38.14,0,0,1,3.77,5.28L95.19,24c-.62-1-.83-1.31-1.42-2.25q-7.78.7-17.37,1.06ZM94.59,34.06h-1.8v-1L79.94,33v1H78.15V25H94.59Zm-1.8-2.54V26.73H79.94v4.79Z"/><path class="cls-1" d="M111.71,16.45c-.36.53-.73,1-1.13,1.52h9.08v1.34a13.17,13.17,0,0,1-4.35,3.49,32,32,0,0,0,9,1.83l-1.38,1.42a24.77,24.77,0,0,1-9.47-2.39,38.14,38.14,0,0,1-9.91,2.75l-1.75-1.29a51.53,51.53,0,0,0,9.87-2.34,21.38,21.38,0,0,1-3.47-2.36,23.78,23.78,0,0,1-3.08,2.18l-2.6-.06a24.94,24.94,0,0,0,7.18-6.05Zm11.37,2.48h-1.79v-3H104.9v3h-1.8V14.28h9a16.07,16.07,0,0,0-.91-1.72l1.94-.3c.3.59.57,1.28.86,2h9.08Zm-2.75,15.18H118.6l.06-1H108.08l-.06,1H106.3v-7.7h14Zm-1.67-2.6L118.6,28H108l.06,3.5Zm-1.54-11.87h-7.18A17.39,17.39,0,0,0,113.49,22,12.42,12.42,0,0,0,117.12,19.64Z"/><path class="cls-2" d="M50.88,45.9,54,53h-.74l-.91-2.12H48.6L47.69,53H47l3.13-7.12Zm1.27,4.48-1.64-3.82h0l-1.66,3.82Z"/><path class="cls-2" d="M57.23,45.9V53h-.67V45.9Z"/><path class="cls-2" d="M68.14,50.08v.44c-.75.3-1.58.59-2.51.87v.42H70v.46H65.63v1c0,.44-.26.67-.78.67H63.63l-.15-.46,1.19,0c.27,0,.41-.13.41-.39v-.85h-4.6v-.46h4.6v-.65c.92-.26,1.61-.48,2.08-.64h-5v-.44ZM62,47.74h1.7v.41H62l.08.77h6.39l.05-.77H66.86v-.41h1.68L68.6,47H66.9v-.4h1.73l.06-.83H66.84v-.44h2.42L69,48.92h.82v1.53h-.57v-1.1h-8v1.09h-.57V48.92h.84l-.29-3.44A12.66,12.66,0,0,0,63.45,45l.2.43a13.81,13.81,0,0,1-1.87.41l.08.76h1.78V47H61.89Zm3.36-2a4.45,4.45,0,0,0,.72-.65l.37.2a8.68,8.68,0,0,1-.71.68q.42.27.78.54l-.3.29a8.72,8.72,0,0,0-.84-.59,7.51,7.51,0,0,1-1.21.63l-.25-.34A5,5,0,0,0,65,46c-.3-.18-.62-.35-1-.53l.29-.26C64.67,45.36,65,45.55,65.32,45.73Zm.07,1.81a6.64,6.64,0,0,0,.72-.68l.36.21a7.73,7.73,0,0,1-.71.7c.32.2.6.39.87.59l-.32.27c-.26-.19-.56-.4-.9-.61a6.68,6.68,0,0,1-1.2.62L64,48.3A5.21,5.21,0,0,0,65,47.79a10,10,0,0,0-.92-.51l.3-.27C64.76,47.19,65.08,47.36,65.39,47.54Z"/><path class="cls-2" d="M76.77,45.68H73.61v-.46h3.72v3.26c0,.42-.25.63-.74.63h-1l-.14-.45,1,0c.2,0,.29-.12.29-.35v-.81a26.94,26.94,0,0,1-3.33,1.2l-.15-.48a25.79,25.79,0,0,0,3.48-1.16Zm-1,1-.18.4a14.23,14.23,0,0,0-2-.53l.23-.39A12.16,12.16,0,0,1,75.79,46.7ZM81.54,54H81v-.48H75.2V54h-.57V49.67h2.78a4.61,4.61,0,0,0,.36-.86l.57.06a3.84,3.84,0,0,1-.36.8h3.56ZM81,51.36V50.18H75.2v1.18ZM81,53V51.86H75.2V53Zm.33-7.33H78v-.46h3.85v3.29c0,.39-.27.59-.77.59h-.94L80,48.64l1,0a.28.28,0,0,0,.31-.3v-.83a24.49,24.49,0,0,1-3.2,1.15L78,48.2a23.92,23.92,0,0,0,3.35-1.11Zm-1,1-.19.4a12.52,12.52,0,0,0-2-.57l.22-.39A10.31,10.31,0,0,1,80.28,46.73Z"/><path class="cls-2" d="M91,48.93a.6.6,0,0,1,.24.49.65.65,0,0,1-.24.5.74.74,0,0,1-.53.21.73.73,0,0,1-.54-.21.67.67,0,0,1-.23-.5.62.62,0,0,1,.23-.49.73.73,0,0,1,.54-.21A.74.74,0,0,1,91,48.93Z"/><path class="cls-2" d="M101.18,45.37v.41c-.27.94-.57,1.92-.92,2.92a5.24,5.24,0,0,1,.86,2.39,1.1,1.1,0,0,1-.3.82,2.08,2.08,0,0,1-1.28.32l-.2-.53.33,0a1.32,1.32,0,0,0,.71-.17.55.55,0,0,0,.18-.46,4.11,4.11,0,0,0-.88-2.31,28.17,28.17,0,0,0,.93-2.92H99.14V54h-.57V45.37Zm2.12,2.08v.42a16.71,16.71,0,0,1-1.09,1.86h1.21v.35a9.41,9.41,0,0,1-.68,2.25l.18.15a2.65,2.65,0,0,0,.83.64,3.66,3.66,0,0,0,1.19.2h1.61c.39,0,.89,0,1.53,0l-.13.51h-1.32l-1.7,0a3.61,3.61,0,0,1-1.34-.24,3.24,3.24,0,0,1-1-.69.29.29,0,0,0-.21-.1c-.26,0-.62.39-1.06,1.17l-.44-.34c.47-.82.92-1.27,1.34-1.35a10.67,10.67,0,0,0,.64-2h-1.32v-.41a15.22,15.22,0,0,0,1.14-1.83h-1.46v-.49Zm0-1-.38.35a9.61,9.61,0,0,0-1.48-1.38l.4-.34A10.27,10.27,0,0,1,103.34,46.48Zm.48,1.17-.32-.35a4.89,4.89,0,0,0,1.31-1.25h-1.14v-.43h1.41a4.82,4.82,0,0,0,.31-.74l.51.08a6.5,6.5,0,0,1-.27.66H108v.43h-2.56a4.72,4.72,0,0,1-.52.72h2.75v.4h-1.36V48h1.64v.4h-4V48h1.8v-.8h-1.28A6.67,6.67,0,0,1,103.82,47.65Zm.82,5h-.51V49h3.45v3.16c0,.37-.21.56-.65.56h-.83l-.12-.42.79,0c.2,0,.31-.09.31-.26v-.54h-2.44Zm2.44-3.33h-2.44V50h2.44Zm-2.44,1.76h2.44v-.69h-2.44Z"/><path class="cls-2" d="M115.88,44.86v.53h4v.43h-4v.72h4.33v.24a6.87,6.87,0,0,1-.39,1.34L119.3,48a6.25,6.25,0,0,0,.33-1h-3.76v.91l2.47-.15.07.4-2.54.15v.53c0,.18.13.28.41.28h3.51v.47h-3.65c-.57,0-.85-.22-.85-.65v-.56l-2.12.13-.07-.43,2.19-.15V47h-2.92v2.33a8.62,8.62,0,0,1-1.19,4.6l-.44-.36a8.13,8.13,0,0,0,1.06-4.2V46.54h3.49V44.86Zm-1.49,4.58c-.08.28-.17.54-.25.79h1.94v.44a6.56,6.56,0,0,1-1.11,1.8,3.73,3.73,0,0,0,1.18.63,10.39,10.39,0,0,0,2.64.29l1.87,0-.12.5h-1.39a9.65,9.65,0,0,1-3.52-.43,3.51,3.51,0,0,1-1-.62,6.09,6.09,0,0,1-2,1.18l-.31-.44a5.87,5.87,0,0,0,1.91-1.09,4.3,4.3,0,0,1-.72-1.12,4.9,4.9,0,0,1-.83.92l-.35-.38a4.68,4.68,0,0,0,1.47-2.55Zm.23,2.68a5,5,0,0,0,.91-1.44h-1.59a1.4,1.4,0,0,0-.09.17A3.86,3.86,0,0,0,114.62,52.12Zm4.67-1.9v1.65c0,.14.07.22.24.22h.83v.47h-1c-.44,0-.66-.21-.66-.61V50.68h-1.28a3.3,3.3,0,0,1-.23,1.1,3.48,3.48,0,0,1-.74,1l-.39-.35a3.21,3.21,0,0,0,.62-.83,3.11,3.11,0,0,0,.23-1.4Z"/><path class="cls-2" d="M133.13,45.55v.52h-1.49V53c0,.62-.34.93-1,.93h-1.81l-.13-.52c.6,0,1.18,0,1.73,0a.53.53,0,0,0,.61-.59V46.07h-7.62v-.52Zm-4.3,5.74H125.3v.91h-.57V47.77h4.1Zm-.57-.49V48.26h-3V50.8Z"/><path class="cls-2" d="M139,45.23A8.29,8.29,0,0,1,136,48.15l-.19-.54A7.39,7.39,0,0,0,138.44,45Zm.51,2.27a8,8,0,0,1-1.26,1.67V54h-.58V49.72a14.16,14.16,0,0,1-1.56,1.13l-.18-.54a8.71,8.71,0,0,0,3.06-3Zm6.25.67v.52h-1.82v4.46c0,.53-.34.8-1,.8h-1.61l-.13-.52c.54,0,1,0,1.54,0s.6-.15.6-.45V48.69h-3.58v-.52Zm-.51-2.56v.52h-5.17v-.52Z"/><path class="cls-1" d="M140.15,16.89a1.08,1.08,0,0,1,.44.91,1.23,1.23,0,0,1-.44.94,1.63,1.63,0,0,1-2.07,0,1.2,1.2,0,0,1-.41-.94,1.06,1.06,0,0,1,.41-.91,1.63,1.63,0,0,1,2.07,0Zm-.07,3.87V32h-1.93V20.76Z"/><path class="cls-1" d="M158,16.47V18h-6.09V32h-2V18h-6.09V16.47Z"/><path class="cls-1" d="M168.48,21.72a4.2,4.2,0,0,1,1.11,3.06V32h-1.81V30.11a5.74,5.74,0,0,1-1.91,1.5,6.89,6.89,0,0,1-3.12.7,4.88,4.88,0,0,1-3-.85,2.74,2.74,0,0,1-1.16-2.26,3.12,3.12,0,0,1,1.72-2.9,8.66,8.66,0,0,1,4.35-.95l3-.05v-.58c0-1.9-1.08-2.83-3.26-2.83a4.25,4.25,0,0,0-2.24.5A2.44,2.44,0,0,0,160.89,24L159,23.87a3.83,3.83,0,0,1,1.93-2.63,7.12,7.12,0,0,1,3.6-.79A5.46,5.46,0,0,1,168.48,21.72Zm-3.7,4.93c-2.8.05-4.21.87-4.21,2.5a1.51,1.51,0,0,0,.71,1.29,3.34,3.34,0,0,0,1.88.5,5,5,0,0,0,3.14-1.05,2.9,2.9,0,0,0,1.35-2.32v-1Z"/><path class="cls-1" d="M175.73,16.17V26L182,20.76h2.57L179,25.28l6,6.72h-2.49l-4.88-5.59-2,1.61v4h-1.94V16.17Z"/><path class="cls-1" d="M197.48,22.28a7.23,7.23,0,0,1,1.44,4.59h-9.85a4.47,4.47,0,0,0,1.13,2.93,3.73,3.73,0,0,0,2.8,1.05,4.13,4.13,0,0,0,2.49-.7,3.83,3.83,0,0,0,1.26-1.76h1.93A4.92,4.92,0,0,1,197,31a6.21,6.21,0,0,1-4,1.27,6,6,0,0,1-4.3-1.59,5.77,5.77,0,0,1-1.64-4.35,5.75,5.75,0,0,1,1.57-4.15,5.49,5.49,0,0,1,4.3-1.77A5.6,5.6,0,0,1,197.48,22.28Zm-7.18.61a4.14,4.14,0,0,0-1.19,2.63h7.81c-.24-2.41-1.57-3.61-3.94-3.61A3.7,3.7,0,0,0,190.3,22.89Z"/><path class="cls-1" d="M223.14,16.48,229.93,32h-2.15l-1.84-4.35H218L216.18,32h-2.13l6.79-15.52Zm2.17,9.67-3.26-7.76H222l-3.31,7.76Z"/><path class="cls-1" d="M235,16.48V32h-2V16.48Z"/><path class="cls-3" d="M206,17.6h-3.08v-1H206c.55,0,.77,0,.77-1.43V12.55h1v2.62C207.78,16.4,207.65,17.6,206,17.6Z"/><path class="cls-3" d="M208.19,22.65h-1V20c0-1.23.14-2.43,1.78-2.43H212v1H209c-.55,0-.78,0-.78,1.42Z"/><path class="cls-4" d="M32,12.46a16.07,16.07,0,0,1,4.66,10,.66.66,0,0,1-.66.71H32.43a.65.65,0,0,1-.66-.57,11.31,11.31,0,0,0-9.84-9.9.66.66,0,0,1-.57-.65V8.47a.66.66,0,0,1,.72-.66A16,16,0,0,1,32,12.46Z"/><path class="cls-5" d="M8.61,23.16H5.19a.67.67,0,0,1-.67-.71,16.13,16.13,0,0,1,4.66-10h0A16,16,0,0,1,19.1,7.81a.66.66,0,0,1,.71.66V12a.65.65,0,0,1-.58.66,11.3,11.3,0,0,0-10,9.91A.65.65,0,0,1,8.61,23.16Z"/><path class="cls-6" d="M32.43,24.71H36a.66.66,0,0,1,.67.72A16.08,16.08,0,0,1,32,35.27h0q-.51.51-1,1l.25.31.24.22,3,2.2a.57.57,0,0,1-.34,1H22a.67.67,0,0,1-.67-.67V35.83a.66.66,0,0,1,.57-.65,11.31,11.31,0,0,0,9.84-9.9A.65.65,0,0,1,32.43,24.71Z"/><path class="cls-7" d="M12.5,32a11.29,11.29,0,0,0,6.73,3.24.65.65,0,0,1,.58.66v3.41a.67.67,0,0,1-.71.67,16.11,16.11,0,0,1-9.92-4.66h0a16,16,0,0,1-4.64-9.84.66.66,0,0,1,.66-.72H8.61a.65.65,0,0,1,.66.57A11.27,11.27,0,0,0,12.5,32Z"/><path class="cls-8" d="M20.67,15.48A8.51,8.51,0,1,0,29.18,24,8.5,8.5,0,0,0,20.67,15.48Zm0,13.51a5,5,0,1,1,5-5A5,5,0,0,1,20.67,29Z"/><circle class="cls-9" cx="20.67" cy="23.98" r="5.01"/></svg>