<?xml version="1.0" encoding="UTF-8"?>
<svg width="64px" height="57px" viewBox="0 0 64 57" version="1.1" xmlns="http://www.w3.org/2000/svg" xmlns:xlink="http://www.w3.org/1999/xlink">
    <title>NewTaipei</title>
    <g id="-page1" stroke="none" stroke-width="1" fill="none" fill-rule="evenodd">
        <g id="tones" transform="translate(-202.000000, -246.000000)" fill="#74CAE5" fill-rule="nonzero">
            <path d="M225.362579,246.390581 C227.56628,246.308354 229.64664,251.587368 231.287081,253.453936 C232.927523,255.320503 233.042641,254.703796 236.734662,257.166514 C239.011409,258.682655 237.814131,259.86265 236.240605,260.884865 L235.98263,261.049275 L235.98263,261.049275 L235.720994,261.211088 C235.677246,261.237849 235.633468,261.26451 235.589721,261.291073 L235.328098,261.449307 L235.328098,261.449307 L235.070154,261.605367 C234.47486,261.967101 233.933578,262.312457 233.614123,262.651098 C232.249145,264.102416 232.113469,264.135307 235.620478,268.48926 C239.127487,272.843214 244.003586,272.456744 245.91949,271.724918 C247.835394,270.993092 247.514706,269.582888 246.375854,268.374142 C245.237001,267.165395 244.077591,266.092325 245.306894,264.817796 C246.536197,263.543268 249.615623,265.479729 249.24971,263.769394 C248.883797,262.059059 250.594132,262.811442 250.594132,262.811442 C256.897761,263.731216 258.01364,265.862868 258.085305,266.013956 C258.089181,266.022431 258.635995,269.007294 262.624036,270.487392 C266.612076,271.96749 265.995369,273.562706 265.867916,273.710716 C265.756909,273.846391 264.979858,273.595597 258.623661,274.212304 C252.267464,274.829012 249.331937,280.219034 248.410988,281.201654 C247.485927,282.184274 246.273069,280.362932 245.043766,281.867698 C243.810351,283.372464 231.16374,291.915916 229.046378,293.285006 C226.929016,294.654096 227.747181,297.25249 227.611505,298.687362 C227.47583,300.122234 221.255309,302.034027 218.656915,302.856304 C216.058522,303.674469 215.010119,296.726233 215.010119,296.726233 C215.010119,296.726233 214.011053,289.25174 211.548335,289.432641 C206.273432,289.823222 206.080197,288.885827 205.615611,287.792199 C205.155136,286.698572 203.983392,284.054953 203.070666,282.961325 C202.16205,281.867698 201.705687,280.589058 203.346128,279.314529 C203.738408,279.008768 204.167128,278.760606 204.618628,278.487682 L204.867077,278.335864 C206.245072,277.48191 207.805726,276.270319 209.180179,272.477301 C210.602718,268.550931 205.578609,266.051211 203.033663,264.85891 C202.511518,264.616338 202.536186,263.863955 203.074777,263.650164 C203.744932,263.382924 205.056463,262.881335 206.339214,262.112507 C210.347812,259.707348 209.365192,256.627923 214.27007,252.833117 C219.174949,249.038311 223.158879,246.472809 225.362579,246.390581 Z M228.918925,259.164646 C226.73167,256.052329 225.979287,254.309103 223.619353,255.028595 C223.619353,255.028595 223.616224,255.030688 223.610089,255.034797 L223.538225,255.083006 C222.743838,255.616587 216.371758,259.91523 215.828284,260.874981 C215.248579,261.898715 215.010119,264.020188 216.000962,264.908246 C216.991805,265.796305 219.314736,266.380121 218.940601,268.22202 C218.566465,270.06392 217.33305,273.106342 217.949757,273.72305 C218.566465,274.335646 219.248954,273.718938 220.548151,274.643999 C220.738277,274.779374 221.011874,274.965905 221.340438,275.185721 L221.68627,275.415969 C223.677507,276.736077 227.044135,278.882834 227.044135,278.882834 C227.144187,278.962996 228.493691,280.009353 229.778204,279.121295 C231.110292,278.196234 231.213076,277.345177 230.016664,276.214547 C228.820252,275.083917 229.161497,274.742673 229.913879,274.639888 C230.608387,274.548805 233.079011,273.725556 233.454998,273.599441 L233.508393,273.581133 C233.612271,273.53856 235.199923,272.857935 233.807358,271.572797 C232.372486,270.240709 231.447425,268.871619 231.311749,267.642316 C231.176074,266.408901 231.10618,262.276962 228.918925,259.164646 Z" id="NewTaipei"></path>
        </g>
    </g>
</svg>