<?xml version="1.0" encoding="utf-8"?>
<!-- Generator: Adobe Illustrator 21.1.0, SVG Export Plug-In . SVG Version: 6.00 Build 0)  -->
<svg version="1.1" id="圖層_1" xmlns="http://www.w3.org/2000/svg" xmlns:xlink="http://www.w3.org/1999/xlink" x="0px" y="0px"
	 viewBox="0 0 64 57" style="enable-background:new 0 0 64 57;" xml:space="preserve">
<style type="text/css">
	.st0{fill:#F27E20;}
</style>
<title>NewTaipei</title>
<g id="_x2D_page1">
	<g id="tones" transform="translate(-202.000000, -246.000000)">
		<path id="NewTaipei" class="st0" d="M225.4,246.4c2.2-0.1,4.3,5.2,5.9,7.1s1.8,1.2,5.4,3.7c2.3,1.5,1.1,2.7-0.5,3.7L236,261l0,0
			l-0.3,0.2c0,0-0.1,0.1-0.1,0.1l-0.3,0.2l0,0l-0.3,0.2c-0.6,0.4-1.1,0.7-1.5,1c-1.4,1.5-1.5,1.5,2,5.8c3.5,4.4,8.4,4,10.3,3.2
			c1.9-0.7,1.6-2.1,0.5-3.4s-2.3-2.3-1.1-3.6c1.2-1.3,4.3,0.7,3.9-1c-0.4-1.7,1.3-1,1.3-1c6.3,0.9,7.4,3.1,7.5,3.2
			c0,0,0.6,3,4.5,4.5c4,1.5,3.4,3.1,3.2,3.2c-0.1,0.1-0.9-0.1-7.2,0.5c-6.4,0.6-9.3,6-10.2,7c-0.9,1-2.1-0.8-3.4,0.7
			c-1.2,1.5-13.9,10-16,11.4c-2.1,1.4-1.3,4-1.4,5.4c-0.1,1.4-6.4,3.3-9,4.2c-2.6,0.8-3.6-6.1-3.6-6.1s-1-7.5-3.5-7.3
			c-5.3,0.4-5.5-0.5-5.9-1.6c-0.5-1.1-1.6-3.7-2.5-4.8c-0.9-1.1-1.4-2.4,0.3-3.6c0.4-0.3,0.8-0.6,1.3-0.8l0.2-0.2
			c1.4-0.9,2.9-2.1,4.3-5.9c1.4-3.9-3.6-6.4-6.1-7.6c-0.5-0.2-0.5-1,0-1.2c0.7-0.3,2-0.8,3.3-1.5c4-2.4,3-5.5,7.9-9.3
			C219.2,249,223.2,246.5,225.4,246.4z M228.9,259.2c-2.2-3.1-2.9-4.9-5.3-4.1c0,0,0,0,0,0l-0.1,0c-0.8,0.5-7.2,4.8-7.7,5.8
			c-0.6,1-0.8,3.1,0.2,4c1,0.9,3.3,1.5,2.9,3.3c-0.4,1.8-1.6,4.9-1,5.5c0.6,0.6,1.3,0,2.6,0.9c0.2,0.1,0.5,0.3,0.8,0.5l0.3,0.2
			c2,1.3,5.4,3.5,5.4,3.5c0.1,0.1,1.4,1.1,2.7,0.2c1.3-0.9,1.4-1.8,0.2-2.9c-1.2-1.1-0.9-1.5-0.1-1.6c0.7-0.1,3.2-0.9,3.5-1l0.1,0
			c0.1,0,1.7-0.7,0.3-2c-1.4-1.3-2.4-2.7-2.5-3.9C231.2,266.4,231.1,262.3,228.9,259.2z"/>
	</g>
</g>
</svg>
