<?xml version="1.0" encoding="utf-8"?>
<!-- Generator: Adobe Illustrator 21.1.0, SVG Export Plug-In . SVG Version: 6.00 Build 0)  -->
<svg version="1.1" id="圖層_1" xmlns="http://www.w3.org/2000/svg" xmlns:xlink="http://www.w3.org/1999/xlink" x="0px" y="0px"
	 viewBox="0 0 41 92" style="enable-background:new 0 0 41 92;" xml:space="preserve">
<style type="text/css">
	.st0{fill:#F27E20;}
</style>
<title>Pingtung</title>
<g id="_x2D_page1">
	<g id="tones" transform="translate(-133.000000, -475.000000)">
		<path id="Pingtung" class="st0" d="M170.1,566c-0.2,0.2-1.8,0.1-2.1,0.1c-0.5-0.1-0.7-0.8-0.9-1.3c-0.5-0.8-0.9-1.9-1.8-2.1
			c-2.8-0.6-3.6-2.7-5.1-2.5c-1.5,0.5-0.8,2.6-1.1,3c-0.5,1.1-1.5,0.8-2.4,0c-3.2-3,2.2-4.2-3-8.6c-2.1-1.8,2-5.2,2.1-7.8
			c0.1-2.9-4-5.9-3.8-8.9c0.1-2.1,0.3-4-0.9-5.9c-1.3-2-3.1-3.6-4.2-5.7c-1.9-3.6-3.3-6.9-6.8-9.3c-0.9-0.6-1.7-1-2.8-0.2
			c-1.1,0.9-2.3,0.3-3.3-0.4c-1-0.7-0.4-1.6-0.1-2.4c0.7-2.3,1.3-4.6,2-6.8c0.6-2.1,0.6-4.1-0.6-6c-0.3-0.6-0.5-1.2-0.5-1.8
			c0-4.8,0.1-9.6,0.1-14.5c0-1.8,0.8-2.8,2.6-2.7c4.1,0.1,7.4-1.2,9.2-5.2c0.3-0.7,1.1-1,1.9-1.1c1.2-0.1,2.4-0.3,3.5-0.4
			c1.4-0.2,2.7-0.1,3.8,1.1c0.8,0.8,1.9,1,3,0.4c1.5-0.9,1.4,0,2.7,0.9c2,1.5,2.2,1.4,3.9-0.4c0.4-0.5,0.9-0.9,1.3-1.4
			c1-1.1,2.1-1,3.1-0.1c1.6,1.4-0.3,2.6,1.2,4c2.3,2.1,1.7,7.4-2.1,8.1c-3.3,0.7-2.2,3.3-3.5,6.4c-2.6,6.2-8.4,10.4-5.6,17
			c1.1,2.5,1.2,5.3,1.5,8.1c0.1,1.3,0.5,2.4,1.8,3.1c0.6,0.3,1,0.9,1.2,1.6c0.3,1.3,0.3,2.8-0.1,4.1c-0.2,0.5-0.4,1.1-0.3,1.6
			c0,2.1,3.4,0.6,3.3,2.8c-0.1,1.8,5.7,1.3,5.3,3.1c-0.5,2.3-0.6,9.1,0,10.9c0.9,2.3,1,6.6-1.1,7.9c-4.5,2.8-5.2,5.1-2.5,9.3
			C169.5,564.9,170.3,565.7,170.1,566z"/>
	</g>
</g>
</svg>
