<?xml version="1.0" encoding="UTF-8"?>
<svg width="41px" height="92px" viewBox="0 0 41 92" version="1.1" xmlns="http://www.w3.org/2000/svg" xmlns:xlink="http://www.w3.org/1999/xlink">
    <title>Pingtung</title>
    <g id="-page1" stroke="none" stroke-width="1" fill="none" fill-rule="evenodd">
        <g id="tones" transform="translate(-133.000000, -475.000000)" fill="#8BCDC5" fill-rule="nonzero">
            <path d="M170.130272,565.960092 C169.965817,566.194441 168.378823,566.095768 168.021133,566.046431 C167.53599,565.976538 167.322198,565.220043 167.075515,564.788348 C166.619151,563.978406 166.216236,562.86011 165.311732,562.662764 C162.483101,562.054279 161.685493,559.941029 160.193061,560.163043 C158.655404,560.660521 159.354339,562.724434 159.132325,563.193132 C158.610179,564.299094 157.635782,563.99074 156.727166,563.160241 C153.479174,560.187712 158.947312,558.954297 153.754637,554.579786 C151.612607,552.77489 155.752768,549.387111 155.839108,546.751715 C155.933669,543.844968 151.826399,540.802545 152.003188,537.834127 C152.130641,535.696208 152.33621,533.784416 151.143909,531.897291 C149.881715,529.899159 148.060373,528.303943 146.942077,526.207138 C145.042618,522.638459 143.599523,519.320573 140.150073,516.919526 C139.21679,516.269928 138.456184,515.875235 137.354333,516.734514 C136.260706,517.58557 135.088962,517.067536 134.077562,516.319264 C133.094942,515.59155 133.707537,514.728159 133.937775,513.930551 C134.591485,511.648734 135.253417,509.362806 135.960575,507.097434 C136.610173,505.021186 136.593728,503.031277 135.40965,501.144153 C135.064294,500.593228 134.920395,499.988854 134.924507,499.355701 C134.940952,494.53305 134.982066,489.710399 134.982066,484.883636 C134.982066,483.107519 135.820788,482.133122 137.580459,482.166013 C141.663062,482.235906 144.952168,480.994269 146.752953,477.01034 C147.081864,476.282625 147.830135,475.994828 148.611298,475.900266 C149.791264,475.760479 150.971231,475.633027 152.151198,475.49324 C153.55729,475.328784 154.831819,475.415123 155.950115,476.545753 C156.7395,477.347473 157.890687,477.540708 158.906199,476.911666 C160.423299,475.966049 160.324625,476.878775 161.55804,477.799725 C163.547949,479.283934 163.745295,479.234597 165.447408,477.442035 C165.879103,476.989783 166.310798,476.533419 166.746604,476.085279 C167.762116,475.032765 168.826964,475.040988 169.879478,476.003051 C171.450025,477.437923 169.542344,478.593222 171.096447,480.04454 C173.353595,482.145456 172.778002,487.428582 168.974973,488.176853 C165.648865,488.830563 166.787718,491.461848 165.480299,494.56183 C162.869571,500.774128 157.080745,504.967738 159.864151,511.554172 C160.941333,514.099118 161.114011,516.90308 161.352471,519.645372 C161.46759,520.973349 161.882839,522.04642 163.120365,522.745354 C163.716516,523.082488 164.119431,523.68275 164.292109,524.389907 C164.612797,525.67677 164.584017,527.177424 164.185213,528.44373 C164.020758,528.969987 163.831634,529.500355 163.843969,530.051281 C163.893305,532.180976 167.276973,530.618651 167.128963,532.8758 C167.005621,534.709476 172.827339,534.199665 172.424423,535.955225 C171.894055,538.257599 171.774825,545.045491 172.44498,546.82572 C173.328927,549.165096 173.481048,553.432711 171.363686,554.731908 C166.828832,557.511202 166.146343,559.858801 168.900969,564.052411 C169.460117,564.895244 170.286504,565.7463 170.130272,565.960092 Z" id="Pingtung"></path>
        </g>
    </g>
</svg>