<?xml version="1.0" encoding="UTF-8"?>
<svg width="296px" height="170px" viewBox="0 0 296 170" version="1.1" xmlns="http://www.w3.org/2000/svg" xmlns:xlink="http://www.w3.org/1999/xlink">
    <title>Group 2 Copy 10</title>
    <g id="-page1" stroke="none" stroke-width="1" fill="none" fill-rule="evenodd">
        <g id="Group-2-Copy-10">
            <path d="M32,0 L264,0 C281.673112,-3.24649801e-15 296,14.326888 296,32 L296,154 C296,162.836556 288.836556,170 280,170 L211.697638,170 C202.901655,170 194.493501,166.379341 188.449296,159.988965 C178.367408,149.329655 164.884309,144 148,144 C131.115692,144 117.632593,149.329655 107.550705,159.988964 C101.506501,166.379341 93.0983464,170 84.3023632,170 L16,170 C7.163444,170 1.082166e-15,162.836556 0,154 L0,32 C-2.164332e-15,14.326888 14.326888,3.24649801e-15 32,0 Z" id="Rectangle" fill="#DADADA" fill-rule="nonzero"></path>
            <path d="M34,12 L262,12 C274.150264,12 284,21.8497355 284,34 L284,110 C284,122.150264 274.150264,132 262,132 L34,132 C21.8497355,132 12,122.150264 12,110 L12,34 C12,21.8497355 21.8497355,12 34,12 Z" id="Rectangle" fill="#FFFFFF"></path>
            <g id="Group" transform="translate(12.000000, 18.000000)">
                <rect id="Rectangle" fill="#D0D0D0" x="0" y="13" width="272" height="1"></rect>
                <rect id="Rectangle-Copy-3" fill="#D0D0D0" x="0" y="45" width="272" height="1"></rect>
                <rect id="Rectangle-Copy-5" fill="#D0D0D0" x="0" y="77" width="272" height="1"></rect>
                <rect id="Rectangle-Copy-2" fill="#D0D0D0" x="0" y="29" width="272" height="1"></rect>
                <rect id="Rectangle-Copy-4" fill="#D0D0D0" x="0" y="61" width="272" height="1"></rect>
                <rect id="Rectangle-Copy-6" fill="#D0D0D0" x="0" y="93" width="272" height="1"></rect>
                <path d="M41,9.75784393 C41,9.75784393 43.6359271,1.95399252e-14 57.8014504,1.95399252e-14 C71.9669738,1.95399252e-14 79.4728865,1.95399252e-14 93.8081763,1.95399252e-14" id="Path" stroke="#6E6E6E" stroke-width="4" stroke-linecap="round" transform="translate(67.404088, 4.878922) scale(-1, 1) translate(-67.404088, -4.878922) "></path>
                <path d="M117.461688,37 C117.461688,37 125.526241,9.75784393 134.366885,4.87892197 C143.20753,-2.57571742e-14 156.831299,5.13130831 161.837692,9.55841786" id="Path-Copy" stroke="#6E6E6E" stroke-width="4" stroke-linecap="round" transform="translate(139.649690, 19.949227) scale(-1, 1) translate(-139.649690, -19.949227) "></path>
                <path d="M185,37.6754464 C185,37.6754464 225.007006,24.6754464 231.868166,55.9876224" id="Path" stroke="#6E6E6E" stroke-width="4" stroke-linecap="round"></path>
            </g>
        </g>
    </g>
</svg>