<?xml version="1.0" encoding="utf-8"?>
<!-- Generator: Adobe Illustrator 23.0.2, SVG Export Plug-In . SVG Version: 6.00 Build 0)  -->
<svg version="1.1" id="圖層_1" xmlns="http://www.w3.org/2000/svg" xmlns:xlink="http://www.w3.org/1999/xlink" x="0px" y="0px"
	 viewBox="0 0 30 30" style="enable-background:new 0 0 30 30;" xml:space="preserve">
<style type="text/css">
	.st0{fill:#FFFFFF;}
	.st1{fill:#10A0C3;}
</style>
<g>
	<g>
		<path class="st1" d="M5,7.1v4.3c0,1.2,1,2.1,2.1,2.1h4.3c1.2,0,2.1-1,2.1-2.1V7.1c0-1.2-1-2.1-2.1-2.1H7.1C5.9,5,5,5.9,5,7.1z"/>
		<path class="st0" d="M7.2,8.2v2.1c0,0.6,0.5,1,1,1h2.1c0.6,0,1-0.5,1-1V8.2c0-0.6-0.5-1-1-1H8.2C7.6,7.2,7.2,7.6,7.2,8.2z"/>
	</g>
	<g>
		<path class="st1" d="M5,18.6v4.3c0,1.2,1,2.1,2.1,2.1h4.3c1.2,0,2.1-1,2.1-2.1v-4.3c0-1.2-1-2.1-2.1-2.1H7.1
			C5.9,16.5,5,17.4,5,18.6z"/>
		<path class="st0" d="M7.2,19.7v2.1c0,0.6,0.5,1,1,1h2.1c0.6,0,1-0.5,1-1v-2.1c0-0.6-0.5-1-1-1H8.2C7.6,18.7,7.2,19.1,7.2,19.7z"/>
	</g>
	<g>
		<path class="st1" d="M16.5,7.1v4.3c0,1.2,1,2.1,2.1,2.1h4.3c1.2,0,2.1-1,2.1-2.1V7.1c0-1.2-1-2.1-2.1-2.1h-4.3
			C17.4,5,16.5,5.9,16.5,7.1z"/>
		<path class="st0" d="M18.7,8.2v2.1c0,0.6,0.5,1,1,1h2.1c0.6,0,1-0.5,1-1V8.2c0-0.6-0.5-1-1-1h-2.1C19.1,7.2,18.7,7.6,18.7,8.2z"/>
	</g>
	<path class="st1" d="M16.8,16.5h1.5c0.2,0,0.3,0.1,0.3,0.3v1.5c0,0.2-0.1,0.3-0.3,0.3h-1.5c-0.2,0-0.3-0.1-0.3-0.3v-1.5
		C16.5,16.6,16.6,16.5,16.8,16.5z"/>
	<path class="st1" d="M18.9,18.6h1.5c0.2,0,0.3,0.1,0.3,0.3v1.5c0,0.2-0.1,0.3-0.3,0.3h-1.5c-0.2,0-0.3-0.1-0.3-0.3v-1.5
		C18.6,18.8,18.8,18.6,18.9,18.6z"/>
	<path class="st1" d="M21.1,16.5h1.5c0.2,0,0.3,0.1,0.3,0.3v1.5c0,0.2-0.1,0.3-0.3,0.3h-1.5c-0.2,0-0.3-0.1-0.3-0.3v-1.5
		C20.8,16.6,20.9,16.5,21.1,16.5z"/>
	<path class="st1" d="M16.8,20.8h1.5c0.2,0,0.3,0.1,0.3,0.3v1.5c0,0.2-0.1,0.3-0.3,0.3h-1.5c-0.2,0-0.3-0.1-0.3-0.3v-1.5
		C16.5,20.9,16.6,20.8,16.8,20.8z"/>
	<path class="st1" d="M18.9,22.9h1.5c0.2,0,0.3,0.1,0.3,0.3v1.5c0,0.2-0.1,0.3-0.3,0.3h-1.5c-0.2,0-0.3-0.1-0.3-0.3v-1.5
		C18.6,23,18.8,22.9,18.9,22.9z"/>
	<path class="st1" d="M21.1,20.8h1.5c0.2,0,0.3,0.1,0.3,0.3v1.5c0,0.2-0.1,0.3-0.3,0.3h-1.5c-0.2,0-0.3-0.1-0.3-0.3v-1.5
		C20.8,20.9,20.9,20.8,21.1,20.8z"/>
	<path class="st1" d="M23.2,18.6h1.5c0.2,0,0.3,0.1,0.3,0.3v1.5c0,0.2-0.1,0.3-0.3,0.3h-1.5c-0.2,0-0.3-0.1-0.3-0.3v-1.5
		C22.9,18.8,23,18.6,23.2,18.6z"/>
	<path class="st1" d="M23.2,22.9h1.5c0.2,0,0.3,0.1,0.3,0.3v1.5c0,0.2-0.1,0.3-0.3,0.3h-1.5c-0.2,0-0.3-0.1-0.3-0.3v-1.5
		C22.9,23,23,22.9,23.2,22.9z"/>
	<path class="st1" d="M28.5,21.5c-0.6,0-1.1,0.5-1.1,1.1v1.8c0,1.7-1.4,3-3,3h-1.8c-0.6,0-1.1,0.5-1.1,1.1v0c0,0.6,0.5,1.1,1.1,1.1
		h2.2c2.6,0,4.8-2.1,4.8-4.8v-2.2C29.6,22,29.1,21.5,28.5,21.5z"/>
	<path class="st1" d="M28.5,8.5c-0.6,0-1.1-0.5-1.1-1.1V5.6c0-1.7-1.4-3-3-3h-1.8c-0.6,0-1.1-0.5-1.1-1.1v0c0-0.6,0.5-1.1,1.1-1.1
		h2.2c2.6,0,4.8,2.1,4.8,4.8v2.2C29.6,8,29.1,8.5,28.5,8.5z"/>
	<path class="st1" d="M1.5,21.5c0.6,0,1.1,0.5,1.1,1.1v1.8c0,1.7,1.4,3,3,3h1.8c0.6,0,1.1,0.5,1.1,1.1v0c0,0.6-0.5,1.1-1.1,1.1H5.2
		c-2.6,0-4.8-2.1-4.8-4.8v-2.2C0.4,22,0.9,21.5,1.5,21.5z"/>
	<path class="st1" d="M1.5,8.5c0.6,0,1.1-0.5,1.1-1.1V5.6c0-1.7,1.4-3,3-3h1.8c0.6,0,1.1-0.5,1.1-1.1v0c0-0.6-0.5-1.1-1.1-1.1H5.2
		c-2.6,0-4.8,2.1-4.8,4.8v2.2C0.4,8,0.9,8.5,1.5,8.5z"/>
</g>
</svg>
