<?xml version="1.0" encoding="utf-8"?>
<!-- Generator: Adobe Illustrator 23.0.2, SVG Export Plug-In . SVG Version: 6.00 Build 0)  -->
<svg version="1.1" id="圖層_1" xmlns="http://www.w3.org/2000/svg" xmlns:xlink="http://www.w3.org/1999/xlink" x="0px" y="0px"
	 viewBox="0 0 30 30" style="enable-background:new 0 0 30 30;" xml:space="preserve">
<style type="text/css">
	.st0{fill:#FFFFFF;}
	.st1{fill:#10A0C3;}
</style>
<g>
	<circle class="st0" cx="15" cy="15" r="6.6"/>
	<path class="st1" d="M15,6C8.9,6,3.6,10.6,1,13.4c-0.8,0.9-0.8,2.3,0,3.2C3.6,19.4,8.9,24,15,24s11.4-4.7,14-7.4
		c0.8-0.9,0.8-2.3,0-3.2C26.4,10.6,21.1,6,15,6z"/>
	<ellipse transform="matrix(0.7071 -0.7071 0.7071 0.7071 -6.2132 15.001)" class="st0" cx="15" cy="15" rx="6.6" ry="6.6"/>
	<path class="st1" d="M15,10.2c-0.2,0-0.3,0-0.4,0c-0.2,0-0.3,0.1-0.4,0.2c-0.1,0.2-0.1,0.3-0.1,0.5c0.3,0.9,0.2,2-0.4,2.7
		c-0.5,0.7-1.2,1-2.1,1c-0.3,0-0.6-0.1-0.9-0.2c-0.2-0.1-0.3,0-0.5,0.1s-0.2,0.3-0.2,0.4v0.1c0,2.7,2.2,4.8,4.8,4.8s4.8-2.2,4.8-4.8
		C19.8,12.3,17.7,10.2,15,10.2z"/>
</g>
</svg>
