<svg id="Layer_2" data-name="Layer 2" xmlns="http://www.w3.org/2000/svg" viewBox="0 0 56 56"><defs><style>.cls-1{fill:#4fb4a2;}</style></defs><title>icon_0316</title><path class="cls-1" d="M28,11.73a6.79,6.79,0,0,0-7,6.59V28.88a6.8,6.8,0,0,0,7,6.6,6.8,6.8,0,0,0,7-6.6V18.32A6.79,6.79,0,0,0,28,11.73ZM17.79,26.23a1,1,0,0,0-.95.9v1.76A10.81,10.81,0,0,0,27.07,39.41v3.1H23.35a.88.88,0,1,0,0,1.76h9.3a.91.91,0,0,0,.93-.88.92.92,0,0,0-.93-.88H28.93v-3.1A10.81,10.81,0,0,0,39.16,28.89V27.13a.93.93,0,0,0-1.86,0v1.76a9,9,0,0,1-9.3,8.8,9,9,0,0,1-9.3-8.8V27.13a.94.94,0,0,0-.91-.9Z"/></svg>