<?xml version="1.0" encoding="utf-8"?>
<!-- Generator: Adobe Illustrator 21.1.0, SVG Export Plug-In . SVG Version: 6.00 Build 0)  -->
<svg version="1.1" id="圖層_1" xmlns="http://www.w3.org/2000/svg" xmlns:xlink="http://www.w3.org/1999/xlink" x="0px" y="0px"
	 viewBox="0 0 38 38" style="enable-background:new 0 0 38 38;" xml:space="preserve">
<style type="text/css">
	.st0{fill:#FF6060;}
</style>
<g>
	<g>
		<g>
			<path class="st0" d="M18.2,32.7c0.2,0.2,0.5,0.4,0.9,0.4c0.3,0,0.6-0.1,0.8-0.3l11.8-11.8c3.3-3.3,3.3-8.7,0-12
				c-1.6-1.6-3.8-2.5-6-2.5s-4.4,0.9-6,2.5L19,9.5l-0.6-0.6c-1.6-1.6-3.7-2.5-6-2.5c-2.3,0-4.4,0.9-6,2.5c-1.6,1.6-2.5,3.7-2.5,6
				c0,2.3,0.9,4.4,2.5,6L18.2,32.7z"/>
		</g>
	</g>
</g>
</svg>
