<?xml version="1.0" encoding="UTF-8"?>
<svg width="296px" height="170px" viewBox="0 0 296 170" version="1.1" xmlns="http://www.w3.org/2000/svg" xmlns:xlink="http://www.w3.org/1999/xlink">
    <title>Group 2 Copy 15</title>
    <g id="-page1" stroke="none" stroke-width="1" fill="none" fill-rule="evenodd">
        <g id="Group-2-Copy-15">
            <path d="M32,0 L264,0 C281.673112,-3.24649801e-15 296,14.326888 296,32 L296,154 C296,162.836556 288.836556,170 280,170 L211.697638,170 C202.901655,170 194.493501,166.379341 188.449296,159.988965 C178.367408,149.329655 164.884309,144 148,144 C131.115692,144 117.632593,149.329655 107.550705,159.988964 C101.506501,166.379341 93.0983464,170 84.3023632,170 L16,170 C7.163444,170 1.082166e-15,162.836556 0,154 L0,32 C-2.164332e-15,14.326888 14.326888,3.24649801e-15 32,0 Z" id="Rectangle" fill="#DADADA" fill-rule="nonzero"></path>
            <path d="M34,12 L262,12 C274.150264,12 284,21.8497355 284,34 L284,110 C284,122.150264 274.150264,132 262,132 L34,132 C21.8497355,132 12,122.150264 12,110 L12,34 C12,21.8497355 21.8497355,12 34,12 Z" id="Rectangle" fill="#FFFFFF"></path>
            <g id="Group" transform="translate(12.000000, 22.000000)">
                <rect id="Rectangle" fill="#D0D0D0" x="0" y="9" width="272" height="1"></rect>
                <rect id="Rectangle-Copy-3" fill="#D0D0D0" x="0" y="41" width="272" height="1"></rect>
                <rect id="Rectangle-Copy-5" fill="#D0D0D0" x="0" y="73" width="272" height="1"></rect>
                <rect id="Rectangle-Copy-2" fill="#D0D0D0" x="0" y="25" width="272" height="1"></rect>
                <rect id="Rectangle-Copy-4" fill="#D0D0D0" x="0" y="57" width="272" height="1"></rect>
                <rect id="Rectangle-Copy-6" fill="#D0D0D0" x="0" y="89" width="272" height="1"></rect>
                <path d="M70,0.620604225 C70,0.620604225 87.6418573,-2.03048257 95.5420498,3.62603157 C103.442242,9.28254572 109.660643,21.0017232 109.660643,38.9767805" id="Path" stroke="#6E6E6E" stroke-width="4" stroke-linecap="round"></path>
                <path d="M140.148933,60.2855546 C140.148933,60.2855546 150.11502,60.2855546 158.967694,61.02654 C164.776384,61.5127382 167.375154,66.0624288 170.648933,71.624352 C173.679686,76.7733915 177.716405,80.3741348 181.798432,80.3741348 C189.849232,80.3741348 195.962306,80.3741348 202.352469,80.3741348" id="Path" stroke="#6E6E6E" stroke-width="4" stroke-linecap="round"></path>
                <path d="M70,2.62060422 C70,2.62060422 87.6418573,-0.0304825728 95.5420498,5.62603157 C103.442242,11.2825457 106.787686,17.7764552 113.90013,33.5529104" id="Path" stroke="#F27E20" stroke-width="4" stroke-linecap="round"></path>
                <path d="M140.148933,62.2855546 C140.148933,62.2855546 147.975086,56.7590147 156.82776,57.5 C162.63645,57.9861982 170.576722,59.688294 173.850501,65.2502172 C176.881254,70.3992568 180.917973,74 185,74 C193.0508,74 199.163874,74 205.554037,74" id="Path" stroke="#F27E20" stroke-width="4" stroke-linecap="round"></path>
            </g>
        </g>
    </g>
</svg>