<?xml version="1.0" encoding="UTF-8"?>
<svg width="276px" height="483px" viewBox="0 0 276 483" version="1.1" xmlns="http://www.w3.org/2000/svg" xmlns:xlink="http://www.w3.org/1999/xlink">
    <title>scan_pink</title>
    <g id="-page1" stroke="none" stroke-width="1" fill="none" fill-rule="evenodd">
        <g id="AI-Recognition2" transform="translate(-42.000000, -97.000000)" fill="#FF6060" fill-rule="nonzero" stroke="#FF6060">
            <g id="scan_pink" transform="translate(43.000000, 98.000000)">
                <path d="M272.714174,1.14286046 L238.642522,1.14286046 C238.288,1.14286046 238,0.887020466 238,0.571428828 C238,0.255837189 238.288,0 238.642522,0 L273.357478,0 C273.445913,0 273.530435,0.015991147 273.60713,0.0449069719 C273.646261,0.0595960843 273.683826,0.0776208487 273.718261,0.0985794565 C273.751913,0.118878586 273.783217,0.141930411 273.811391,0.167369019 C273.928,0.270777014 274,0.413634052 274,0.571430219 C274,0.571853871 274,0.572277523 274,0.572701871 L274,31.4285913 C274,31.7441391 273.712,32 273.357478,32 C273.002174,32 272.714174,31.7441391 272.714174,31.4285913 L272.714174,1.14286046 Z" id="Path"></path>
                <path d="M0.645606028,0 C0.644697419,0 0.64378881,0 0.642879419,0 C0.581159767,0 0.521471767,0.00773138372 0.464974463,0.0221639403 C0.196459071,0.0907484968 0,0.310697714 0,0.571433715 C0,0.573057367 0,0.574679628 0,0.576300497 L0,31.4285913 C0,31.7441391 0.287836463,32 0.642876288,32 C0.997912201,32 1.2857322,31.7441391 1.2857322,31.4285913 L1.2857322,1.14285911 L35.3571652,1.14286606 C35.7121565,1.14286606 36,0.887026063 36,0.571435106 C36,0.255844149 35.7121565,0 35.3571652,0 L0.645606028,0 Z" id="Path"></path>
                <path d="M0,480.427478 L0,449.57113 C0,449.256 0.287815304,449 0.64285513,449 C0.997896522,449 1.2857087,449.256 1.2857087,449.57113 L1.28571652,479.857043 L35.3571652,479.857043 C35.7121565,479.857043 36,480.113043 36,480.42887 C36,480.744 35.7121565,481 35.3571652,481 L0.642858261,481 C0.376578,481 0.148111043,480.856 0.0505204435,480.650783 C0.0179901391,480.582609 0,480.507478 0,480.42887 C0,480.428174 0,480.427478 0,480.427478 Z" id="Path"></path>
                <path d="M274,480.424696 L274,449.57113 C274,449.256 273.712,449 273.357478,449 C273.002174,449 272.714174,449.256 272.714174,449.57113 L272.714174,479.857043 L238.642522,479.857043 C238.288,479.857043 238,480.113043 238,480.42887 C238,480.744 238.288,481 238.642522,481 L273.357478,481 C273.490522,481 273.614174,480.963826 273.716696,480.902609 C273.887304,480.799652 274,480.625739 274,480.42887 L274,480.424696 Z" id="Path"></path>
            </g>
        </g>
    </g>
</svg>