<?xml version="1.0" encoding="utf-8"?>
<!-- Generator: Adobe Illustrator 24.3.0, SVG Export Plug-In . SVG Version: 6.00 Build 0)  -->
<svg version="1.1" id="圖層_1" xmlns="http://www.w3.org/2000/svg" xmlns:xlink="http://www.w3.org/1999/xlink" x="0px" y="0px"
	 viewBox="0 0 30 30" style="enable-background:new 0 0 30 30;" xml:space="preserve">
<g>
	<path d="M25.13,0H4.87C2.23,0,0,2.23,0,4.87v1.99C0,7.7,0.58,8.31,1.41,8.34c0.1,0.03,0.21,0.04,0.32,0.04
		c0.26,0,0.51-0.08,0.73-0.24C2.84,7.87,3.08,7.4,3.08,6.95V5.26c0-1.22,1.07-2.28,2.28-2.28h19.37c1.22,0,2.28,1.07,2.28,2.28v1.59
		c0,0.86,0.63,1.49,1.49,1.49c0.88,0,1.49-0.61,1.49-1.49V4.87C30,2.23,27.77,0,25.13,0z"/>
	<path d="M28.51,21.56c-0.86,0-1.49,0.63-1.49,1.49v1.59c0,1.22-1.07,2.28-2.28,2.28H5.36c-1.22,0-2.28-1.07-2.28-2.28v-1.59
		c0-0.42-0.22-0.86-0.57-1.16c-0.32-0.27-0.72-0.39-1.02-0.33C0.63,21.56,0,22.18,0,23.05v1.99c0,2.64,2.23,4.87,4.87,4.87h20.27
		c2.64,0,4.87-2.23,4.87-4.87v-1.99C30,22.17,29.39,21.56,28.51,21.56z"/>
	<path d="M1.29,16.49h27.32c0.77,0,1.29-0.52,1.29-1.29v-0.4c0-0.81-0.66-1.29-1.29-1.29H1.29C0.48,13.51,0,14.17,0,14.8v0.4
		C0,16.01,0.66,16.49,1.29,16.49z"/>
</g>
</svg>
