<svg id="Layer_2" data-name="Layer 2" xmlns="http://www.w3.org/2000/svg" viewBox="0 0 56 56"><defs><style>.cls-1{fill:#4fb4a2;}.cls-2{fill:#fff;}</style></defs><title>icon_0316</title><path class="cls-1" d="M28.93,20.68c-5.64,0-16.31-.68-16.31-3.23V36.18c0,2.55,10.85,4.53,16.49,4.53s16.13-2,16.13-4.53V17.45C45.24,20,34.57,20.68,28.93,20.68Z"/><path class="cls-1" d="M19.73,19.61V15.29c-4.22.72-6.43,1.58-6.43,2.16S15.51,18.89,19.73,19.61Z"/><path class="cls-1" d="M38,15.29v4.32c4.22-.72,6.43-1.57,6.43-2.16S42.24,16,38,15.29Z"/><polygon class="cls-2" points="24.36 33.33 20.45 33.33 20.45 32.47 21.9 32.47 21.9 27.68 20.41 28.08 20.41 27.2 22.91 26.54 22.91 32.47 24.36 32.47 24.36 33.33"/><path class="cls-2" d="M28.65,28.25a1,1,0,0,0-.25-.67,1,1,0,0,0-.69-.25,1.16,1.16,0,0,0-.71.25.71.71,0,0,0-.27.64c0,.54.3.92,1,1.17a1.2,1.2,0,0,0,1-1.14m-1,2.06c-.74.32-1.14.77-1.14,1.36a1,1,0,0,0,.34.77,1.28,1.28,0,0,0,.87.28,1.21,1.21,0,0,0,.83-.28,1,1,0,0,0,.34-.73c0-.67-.43-1.11-1.24-1.4m-.74-.48a1.68,1.68,0,0,1-1.15-1.58A1.5,1.5,0,0,1,26.32,27a2.13,2.13,0,0,1,1.42-.47,2,2,0,0,1,1.34.44,1.38,1.38,0,0,1,.53,1.17,1.8,1.8,0,0,1-1.21,1.68v0a1.86,1.86,0,0,1,1.42,1.77A1.64,1.64,0,0,1,29.21,33a2.66,2.66,0,0,1-1.68.47A2.24,2.24,0,0,1,26.07,33a1.67,1.67,0,0,1-.59-1.3,2.1,2.1,0,0,1,1.4-1.88"/><path class="cls-2" d="M31.85,30.12c0,1.69.41,2.54,1.24,2.54s1.25-.85,1.25-2.58-.41-2.64-1.21-2.64-1.28.88-1.28,2.68m-1.06.05a4.6,4.6,0,0,1,.61-2.64,2,2,0,0,1,1.76-.91c1.47,0,2.21,1.13,2.21,3.4a4.41,4.41,0,0,1-.61,2.55,2,2,0,0,1-1.73.91,1.86,1.86,0,0,1-1.66-.85,4.3,4.3,0,0,1-.58-2.46"/><path class="cls-2" d="M37.89,28.58a.6.6,0,0,0,.46-.19.64.64,0,0,0,.18-.47.68.68,0,0,0-.18-.48.6.6,0,0,0-.46-.19.59.59,0,0,0-.46.19.65.65,0,0,0-.19.48.61.61,0,0,0,.19.47.59.59,0,0,0,.46.19m0-2a1.19,1.19,0,0,1,.89.38,1.27,1.27,0,0,1,.37.92,1.28,1.28,0,0,1-.37.92,1.19,1.19,0,0,1-.89.38,1.21,1.21,0,0,1-.9-.38,1.32,1.32,0,0,1-.36-.92A1.3,1.3,0,0,1,37,27a1.21,1.21,0,0,1,.9-.38"/></svg>