<?xml version="1.0" encoding="UTF-8"?>
<svg width="56px" height="56px" viewBox="0 0 56 56" version="1.1" xmlns="http://www.w3.org/2000/svg" xmlns:xlink="http://www.w3.org/1999/xlink">
    <title>ic/tabs/short_n</title>
    <g id="-page1" stroke="none" stroke-width="1" fill="none" fill-rule="evenodd">
        <g id="home" transform="translate(-152.000000, -490.000000)">
            <g id="ic/tabs/short_n" transform="translate(152.000000, 490.000000)">
                <rect id="Rectangle" fill="#FFFFFF" x="0" y="0" width="56" height="56" rx="24.7452575"></rect>
                <g id="tkpoint" transform="translate(7.000000, 7.000000)">
                    <circle id="Oval" fill="#4FB4A2" fill-rule="nonzero" cx="21" cy="21" r="20.3810526"></circle>
                    <path d="M21,39.1373684 C10.983008,39.1373684 2.86263158,31.016992 2.86263158,21 C2.86263158,10.983008 10.983008,2.86263158 21,2.86263158 C31.016992,2.86263158 39.1373684,10.983008 39.1373684,21 C39.1251884,31.0119425 31.0119425,39.1251884 21,39.1373684 Z M21,4.16684211 C14.1916232,4.16684211 8.05364297,8.26810936 5.44818995,14.5582294 C2.84273694,20.8483494 4.28291048,28.0885907 9.0971599,32.9028401 C13.9114093,37.7170895 21.1516506,39.1572631 27.4417706,36.55181 C33.7318906,33.946357 37.8331579,27.8083768 37.8331579,21 C37.8270614,11.70583 30.29417,4.17293864 21,4.16684211 Z" id="Shape" fill="#FFFFFF"></path>
                    <path d="M18.9110526,16.9215789 L16.1257895,16.9215789 L16.1257895,26.0842105 C16.1582953,26.5051972 16.0321316,26.9231144 15.7721053,27.2557895 C15.5406687,27.5104538 15.2097878,27.6516834 14.8657895,27.6426316 C14.5147165,27.6552143 14.1756392,27.5139321 13.9373684,27.2557895 C13.6733596,26.9251924 13.5467113,26.50567 13.5836842,26.0842105 L13.5836842,16.9215789 L10.7873684,16.9215789 C10.4392246,16.9451862 10.0941494,16.8432322 9.81473684,16.6342105 C9.60380703,16.4383213 9.49048374,16.1590603 9.50526316,15.8715789 C9.4910458,15.5764369 9.61331345,15.2911457 9.83684211,15.0978947 C10.1094626,14.8921836 10.446443,14.7903058 10.7873684,14.8105263 L18.9110526,14.8105263 C19.2650055,14.7809164 19.616896,14.8876697 19.8947368,15.1089474 C20.1151556,15.2997503 20.2371111,15.5802481 20.2263158,15.8715789 C20.2387536,16.1632174 20.1165007,16.4443989 19.8947368,16.6342105 C19.6119278,16.8448938 19.2628025,16.9468855 18.9110526,16.9215789 L18.9110526,16.9215789 Z" id="Path" fill="#FFFFFF"></path>
                    <path d="M24.3157895,16.1478947 L24.3157895,20.5689474 L29.3336842,15.3410526 C29.5212718,15.1335702 29.72856,14.94479 29.9526316,14.7773684 C30.1524124,14.6472457 30.388914,14.5852125 30.6268421,14.6005263 C30.9522693,14.5868816 31.2699618,14.7020451 31.5110526,14.9210526 C31.7352015,15.1194485 31.8605467,15.4065295 31.8536842,15.7057895 C31.8215018,16.1373583 31.6137641,16.5368537 31.2789474,16.8110526 L28.1731579,19.7510526 L31.7542105,24.8794737 C31.9708278,25.1705699 32.1595554,25.4814154 32.3178947,25.8078947 C32.4413198,26.0510751 32.5057895,26.3199222 32.5057895,26.5926316 C32.5052123,26.8721373 32.3844175,27.1378858 32.1742105,27.3221053 C31.9280035,27.5388177 31.606428,27.6499796 31.2789474,27.6315789 C30.9712097,27.6434752 30.6669996,27.5626093 30.4057895,27.3994737 C30.1747325,27.2416229 29.9820937,27.0338752 29.8421053,26.7915789 C29.6873684,26.5484211 29.5547368,26.3163158 29.4331579,26.1063158 L26.4047368,21.4642105 L24.3157895,23.4757895 L24.3157895,26.0842105 C24.3482953,26.5051972 24.2221316,26.9231144 23.9621053,27.2557895 C23.7213225,27.5103153 23.3839578,27.6508839 23.0336842,27.6426316 C22.5780537,27.6385918 22.1581746,27.3950619 21.9284211,27.0015789 C21.8393341,26.8299905 21.7866543,26.6418485 21.7736842,26.4489474 C21.7736842,26.2389474 21.7736842,25.9294737 21.7736842,25.5205263 L21.7736842,16.1478947 C21.7355619,15.7332335 21.8538288,15.3192992 22.1052632,14.9873684 C22.3408288,14.7253829 22.6817873,14.5833169 23.0336842,14.6005263 C23.3825261,14.5880062 23.7201846,14.7246775 23.9621053,14.9763158 C24.2240943,15.30797 24.350495,15.7266723 24.3157895,16.1478947 L24.3157895,16.1478947 Z" id="Path" fill="#FFFFFF"></path>
                </g>
            </g>
        </g>
    </g>
</svg>