<svg xmlns="http://www.w3.org/2000/svg" width="46" height="46" viewBox="0 0 46 46">
    <g fill="none" fill-rule="evenodd">
        <g fill-rule="nonzero">
            <g transform="translate(-282 -180) translate(282 180)">
                <rect width="43.848" height="43.848" x="1.076" y="1.076" fill="#FFF" stroke="#4FB4A2" stroke-width="2.152" rx="20.442"/>
                <g fill="#4FB4A2">
                    <g>
                        <path d="M13.582 24.346c.197.21.472.33.76.33.272.002.532-.104.725-.294l10.558-10.558c2.943-2.974 2.943-7.763 0-10.737-1.43-1.433-3.37-2.238-5.395-2.238-2.024 0-3.965.805-5.395 2.238l-.52.492-.554-.564C12.34 1.586 10.408.781 8.393.778c-2.019-.01-3.955.797-5.369 2.237C1.594 4.436.79 6.368.787 8.384c-.01 2.018.797 3.954 2.237 5.368l10.558 10.594z" transform="translate(6 6) translate(2.684 4.921)"/>
                    </g>
                </g>
            </g>
        </g>
    </g>
</svg>
