<?xml version="1.0" encoding="utf-8"?>
<!-- Generator: Adobe Illustrator 21.1.0, SVG Export Plug-In . SVG Version: 6.00 Build 0)  -->
<svg version="1.1" id="圖層_1" xmlns="http://www.w3.org/2000/svg" xmlns:xlink="http://www.w3.org/1999/xlink" x="0px" y="0px"
	 viewBox="0 0 56 56" style="enable-background:new 0 0 56 56;" xml:space="preserve">
<style type="text/css">
	.st0{fill:#DADADA;}
	.st1{fill:#FFFFFF;}
</style>
<g>
	<g>
		<g transform="translate(-246 -650) translate(246 650)">
			<path class="st0" d="M23,0h10c12.7,0,23,10.3,23,23v10c0,12.7-10.3,23-23,23H23C10.3,56,0,45.7,0,33V23C0,10.3,10.3,0,23,0z"/>
			<g>
				<path class="st1" d="M27.7,45.2c-0.2,0.4-0.3,0.7-0.5,1h-1.4c-0.3-0.3-0.2-0.7-0.2-1.2c0.1-0.8-0.2-1.5-0.5-2.1
					c-0.5-1.1-1.5-1.7-2.7-2.1c-0.9-0.3-1.4-1-1.8-1.7c-0.2-0.2-0.1-0.6-0.2-0.9c-0.3-0.9-0.6-1.7-1-2.4c-0.2-0.3-0.6-0.6-0.9-0.9
					c-0.3-0.2-0.4-0.4-0.2-0.8c0.2-0.2,0.2-0.6,0.3-0.9c0.3-0.6,0.5-1.3,0.7-2c0.1-0.2,0-0.3,0-0.5c-0.3-1.5,0.1-2.8,1.1-4
					c0.3-0.3,0.5-0.7,0.8-1c0.3-0.5,0.6-0.9,0.9-1.3c0.3-0.6,0.7-1.3,1.1-1.9c0.4-0.6,0.9-1.3,1.3-2c0.5-0.7,0.9-1.4,1.5-2.1
					c0.2-0.2,0.3-0.4,0.5-0.5c0.7-0.2,0.9-0.7,1.2-1.3c0.4-0.8,0.9-1.7,1.4-2.4c0.6-0.8,1.6-0.9,2.6-1.2c0.3-0.1,0.7-0.1,0.9-0.2
					c0.2-0.1,0.3-0.2,0.4-0.4c0.3-0.6,0.7-0.9,1.3-1.1c0.3-0.2,0.7-0.2,1,0.2c0.2,0.2,0.3,0.4,0.5,0.6c0.5,0.6,1.2,0.9,2.1,0.9
					c0.4,0,0.8,0.2,0.9,0.6c0.1,0.2,0.3,0.4,0.5,0.6l-1,0.9c-0.7,0.6-0.9,1.3-0.5,2.1c0.2,0.3,0.3,0.6,0.3,0.9
					c0.2,0.6,0,1.2-0.3,1.7c-0.2,0.2-0.4,0.6-0.4,0.9c0,0.6-0.3,0.9-0.7,1.4l-1,1.7V24c0.3,1.4-0.5,2.7-0.8,3.9
					c-0.2,0.8-0.3,1.7-0.5,2.4c-0.3,0.7-0.6,1.4-0.9,2.2c-0.2,0.4-0.2,0.8-0.3,1.2c0,0.1,0,0.2-0.1,0.2c-0.5,0.8-1.1,1.7-1.6,2.4
					c-0.1,0.1-0.2,0.1-0.3,0.2c-0.1,0.2-0.3,0.4-0.3,0.6c-0.1,0.4-0.2,0.7-0.6,0.9c-1.3,0.5-1.6,1.7-2,2.7c-0.2,0.4-0.3,0.7-0.4,1
					c-0.1,0.2-0.1,0.4-0.2,0.6c0,0.2-0.1,0.3-0.1,0.5C27.7,43.6,27.7,44.4,27.7,45.2L27.7,45.2z"/>
			</g>
		</g>
	</g>
</g>
</svg>
