<svg xmlns="http://www.w3.org/2000/svg" width="170" height="46" viewBox="0 0 170 46">
    <g fill="none" fill-rule="evenodd">
        <g>
            <g transform="translate(-96 -180) translate(96 180)">
                <rect width="170" height="46" fill="#F27E20" fill-rule="nonzero" rx="19"/>
                <g fill="#FFF">
                    <text font-family="SegoeUI-Bold, Segoe UI" font-size="20" font-weight="bold" transform="translate(52 4)">
                        <tspan x="41" y="26">All</tspan>
                    </text>
                    <g>
                        <path d="M25.593 27.826h-13.12c-.634 0-1.243-.253-1.692-.702-.45-.449-.702-1.058-.702-1.692V2.85c0-1.322 1.072-2.394 2.394-2.394h13.12c.635 0 1.244.252 1.693.701.449.45.701 1.058.701 1.693v22.581c0 1.323-1.072 2.395-2.394 2.395zM35.986 7.6l-6.65-2.194v20.52c0 .698-.305 1.36-.836 1.814l.655.219c.603.201 1.26.155 1.829-.128.568-.283 1-.78 1.202-1.383l5.282-15.827c.416-1.243-.244-2.59-1.482-3.021zM8.683 25.916V5.367L2.033 7.59c-.602.202-1.1.635-1.383 1.203-.283.568-.33 1.226-.128 1.828l5.282 15.827c.42 1.254 1.775 1.933 3.031 1.52l.712-.238c-.536-.451-.85-1.113-.864-1.814z" transform="translate(52 4) translate(0 5)"/>
                    </g>
                </g>
            </g>
        </g>
    </g>
</svg>
