<svg xmlns="http://www.w3.org/2000/svg" width="46" height="46" viewBox="0 0 46 46">
    <g fill="none" fill-rule="evenodd">
        <g fill-rule="nonzero">
            <g>
                <g transform="translate(-96 -180) translate(16 166) translate(80 14)">
                    <rect width="43.848" height="43.848" x="1.076" y="1.076" fill="#FFF" stroke="#4FB4A2" stroke-width="2.152" rx="20.442"/>
                    <g fill="#4FB4A2">
                        <g>
                            <path d="M22.899 24.896H11.16c-.568 0-1.112-.225-1.514-.627-.402-.402-.628-.946-.628-1.514V2.55c0-1.183.96-2.142 2.143-2.142h11.738c.568 0 1.113.226 1.515.627.401.402.627.947.627 1.515v20.204c0 1.183-.959 2.142-2.142 2.142zM32.198 6.8l-5.95-1.963v18.36c0 .624-.273 1.217-.748 1.623l.587.195c.538.18 1.127.14 1.635-.114.509-.253.896-.698 1.076-1.237l4.726-14.161c.373-1.112-.219-2.317-1.326-2.703zM7.769 23.188V4.802l-5.95 1.99c-.539.18-.984.567-1.237 1.075-.254.509-.295 1.097-.114 1.636l4.726 14.161c.375 1.122 1.587 1.73 2.711 1.36l.638-.213c-.48-.404-.762-.996-.774-1.623z" transform="translate(6 6) translate(0 4.474)"/>
                        </g>
                    </g>
                </g>
            </g>
        </g>
    </g>
</svg>
