<svg xmlns="http://www.w3.org/2000/svg" width="56" height="56" viewBox="0 0 56 56">
    <g fill="none" fill-rule="evenodd">
        <g>
            <g transform="translate(-58 -650) translate(58 650)">
                <rect width="56" height="56" fill="#4FB4A2" fill-rule="nonzero" rx="23"/>
                <g fill="#FFF">
                    <g>
                        <path d="M17.96 1.039L7.893 8.776h-4.93c-1.282 0-2.321 1.039-2.321 2.32v10.932c-.003.616.24 1.208.677 1.644.436.436 1.028.68 1.644.677h4.93l10.113 7.737c.81.63 1.911.74 2.83.28.918-.461 1.49-1.408 1.47-2.435V3.15c-.018-1.02-.607-1.943-1.525-2.389-.917-.446-2.007-.338-2.82.278zM26.924 10.798c4.421 2.355 4.897 9.44 0 11.528-1.238.53-.177 2.332 1.105 1.813 6.367-2.719 5.77-12.158 0-15.142-1.193-.63-2.21 1.182-1.105 1.801z" transform="translate(7 7) translate(1.105 4.421)"/>
                        <path d="M29.61 4.498c9.505 4.687 10.091 19.829 0 24.128-1.238.53-.177 2.332 1.105 1.813 11.54-4.918 10.832-22.415 0-27.742-1.204-.597-2.266 1.205-1.105 1.801z" transform="translate(7 7) translate(1.105 4.421)"/>
                    </g>
                </g>
            </g>
        </g>
    </g>
</svg>
