<?xml version="1.0" encoding="utf-8"?>
<!-- Generator: Adobe Illustrator 21.1.0, SVG Export Plug-In . SVG Version: 6.00 Build 0)  -->
<svg version="1.1" id="圖層_1" xmlns="http://www.w3.org/2000/svg" xmlns:xlink="http://www.w3.org/1999/xlink" x="0px" y="0px"
	 viewBox="0 0 78 78" style="enable-background:new 0 0 78 78;" xml:space="preserve">
<style type="text/css">
	.st0{fill:#4FB4A2;}
	.st1{fill:#FFFFFF;}
</style>
<g>
	<g>
	</g>
</g>
<path class="st0" d="M46,78H32C14.3,78,0,63.7,0,46V32C0,14.3,14.3,0,32,0h14c17.7,0,32,14.3,32,32v14C78,63.7,63.7,78,46,78z"/>
<g>
	<g>
		<path class="st1" d="M39,14.2c-2.8-0.1-5.4,0.9-7.4,2.8c-2,1.9-3.2,4.5-3.3,7.2v16.1c0.1,2.8,1.3,5.4,3.3,7.2
			c2,1.9,4.7,2.9,7.4,2.8c2.8,0.1,5.4-0.9,7.4-2.8c2-1.9,3.2-4.5,3.3-7.3V24.2c-0.1-2.8-1.3-5.4-3.3-7.2
			C44.4,15.1,41.8,14.1,39,14.2z M23.4,36.3c-0.8,0-1.4,0.6-1.4,1.4v2.7C22.2,49,29,56,37.6,56.4v4.7h-5.7c-0.7,0-1.3,0.6-1.3,1.3
			c0,0.7,0.6,1.3,1.3,1.3h14.2c0.8,0,1.4-0.6,1.4-1.3c0-0.8-0.7-1.4-1.4-1.3h-5.7v-4.7C49,56,55.8,49,56,40.4v-2.7
			c0-0.8-0.6-1.4-1.4-1.4c-0.8,0-1.4,0.6-1.4,1.4v2.7c-0.1,3.7-1.6,7.2-4.3,9.7c-2.7,2.5-6.2,3.9-9.9,3.8c-3.7,0.1-7.2-1.2-9.9-3.8
			c-2.7-2.5-4.2-6-4.3-9.7v-2.7C24.8,36.9,24.2,36.3,23.4,36.3L23.4,36.3z"/>
	</g>
</g>
</svg>
