<svg xmlns="http://www.w3.org/2000/svg" width="56" height="56" viewBox="0 0 56 56">
    <g fill="none" fill-rule="evenodd">
        <g>
            <g transform="translate(-246 -650) translate(246 650)">
                <rect width="56" height="56" fill="#4FB4A2" fill-rule="nonzero" rx="23"/>
                <g fill="#FFF">
                    <path d="M20.702 38.174c-.171.394-.343.71-.515 1.026h-1.372c-.258-.316-.172-.71-.172-1.184.086-.79-.172-1.5-.515-2.132-.515-1.105-1.458-1.737-2.66-2.132-.858-.315-1.373-1.026-1.802-1.658-.171-.236-.085-.631-.171-.947-.343-.868-.6-1.658-1.03-2.447-.171-.316-.6-.632-.944-.869-.343-.237-.429-.395-.171-.79.171-.236.171-.552.257-.868.257-.631.515-1.342.687-1.974.085-.158 0-.315 0-.473-.344-1.5.085-2.843 1.115-4.027.257-.316.515-.71.772-1.026.258-.474.6-.869.858-1.342.343-.632.687-1.264 1.116-1.895.429-.632.858-1.263 1.287-1.974.515-.71.944-1.421 1.458-2.132.172-.158.344-.394.515-.473.687-.237.944-.71 1.201-1.264.43-.79.859-1.658 1.373-2.368.601-.79 1.63-.948 2.574-1.184.344-.08.687-.08.944-.237.172-.08.344-.237.43-.395.257-.553.686-.868 1.286-1.105.344-.158.687-.158 1.03.158.172.158.343.394.515.552.515.632 1.201.948 2.06.948.428 0 .771.158.857.631.086.237.343.395.515.632l-1.03.947c-.686.632-.858 1.264-.514 2.132.171.316.257.632.343.947.171.632 0 1.185-.343 1.658-.172.237-.43.553-.43.869 0 .552-.343.947-.686 1.42l-1.03 1.659v.158c.258 1.42-.514 2.684-.772 3.947-.171.79-.343 1.658-.515 2.448-.257.71-.6 1.42-.858 2.21-.171.395-.171.79-.257 1.185 0 .079 0 .158-.086.237-.515.79-1.115 1.658-1.63 2.447-.086.079-.172.079-.258.158-.085.158-.343.395-.343.553-.086.394-.171.71-.6.947-1.287.474-1.63 1.658-1.974 2.684-.171.395-.343.71-.429 1.027-.086.158-.086.394-.172.631 0 .158-.085.316-.085.474.171.632.171 1.421.171 2.21z" transform="translate(7 7)"/>
                </g>
            </g>
        </g>
    </g>
</svg>
