<?xml version="1.0" encoding="utf-8"?>
<!-- Generator: Adobe Illustrator 21.1.0, SVG Export Plug-In . SVG Version: 6.00 Build 0)  -->
<svg version="1.1" id="圖層_1" xmlns="http://www.w3.org/2000/svg" xmlns:xlink="http://www.w3.org/1999/xlink" x="0px" y="0px"
	 viewBox="0 0 30 30" style="enable-background:new 0 0 30 30;" xml:space="preserve">
<style type="text/css">
	.st0{opacity:0.551;fill:#4FB4A2;enable-background:new    ;}
	.st1{fill:#FFFFFF;}
</style>
<g>
	<g>
		<g transform="translate(-157 -72) translate(157 72)">
			<path class="st0" d="M13.3,0h3.3C24,0,30,6,30,13.3v3.3C30,24,24,30,16.7,30h-3.3C6,30,0,24,0,16.7v-3.3C0,6,6,0,13.3,0z"/>
		</g>
		<g>
			<path class="st1" d="M21.2,8.8c-0.4-0.4-1.1-0.4-1.5,0L15,13.5l-4.7-4.7c-0.4-0.4-1.1-0.4-1.5,0c-0.4,0.4-0.4,1.1,0,1.5l4.7,4.7
				l-4.7,4.7c-0.4,0.4-0.4,1.1,0,1.5c0.2,0.2,0.5,0.3,0.7,0.3c0.3,0,0.5-0.1,0.7-0.3l4.7-4.7l4.7,4.7c0.2,0.2,0.5,0.3,0.7,0.3
				s0.5-0.1,0.7-0.3c0.4-0.4,0.4-1.1,0-1.5L16.5,15l4.7-4.7C21.6,9.9,21.6,9.2,21.2,8.8z"/>
		</g>
	</g>
</g>
</svg>
