<?xml version="1.0" encoding="UTF-8"?>
<svg width="87px" height="41px" viewBox="0 0 87 41" version="1.1" xmlns="http://www.w3.org/2000/svg" xmlns:xlink="http://www.w3.org/1999/xlink">
    <title>Taichung</title>
    <g id="-page1" stroke="none" stroke-width="1" fill="none" fill-rule="evenodd">
        <g id="tones" transform="translate(-130.000000, -329.000000)" fill="#F27E20" fill-rule="nonzero">
            <path d="M139.303129,334.152144 C139.303129,334.152144 147.357326,339.620283 149.824155,340.302772 C152.290985,340.985262 154.95516,340.71391 157.212309,339.620283 C159.469458,338.526655 161.245575,337.638596 162.544772,338.18541 C163.843969,338.732224 163.708293,340.031421 166.8535,340.372666 C169.998708,340.71391 174.508894,341.943214 177.037394,342.083001 C179.565894,342.218676 183.122239,341.741756 188.590378,338.119628 C194.058516,334.497501 194.946574,334.291931 196.179989,334.156256 C197.413404,334.02058 197.063936,332.310245 198.161675,331.286511 C199.255303,330.262777 203.633925,329.169149 203.633925,329.169149 C203.633925,329.169149 204.521983,328.552442 205.956856,330.33267 C207.391728,332.108787 206.610566,333.63411 213.065435,332.86117 C219.524417,332.092342 215.663829,333.391539 213.817818,335.587017 C211.971808,337.782495 206.50367,342.568144 208.690925,347.419575 C210.87818,352.275117 211.971808,351.929761 209.990122,352.821931 C208.008435,353.709989 200.694287,356.102814 195.838744,350.840245 C190.983202,345.577675 193.585707,347.629255 189.276978,348.106175 C189.276978,348.106175 185.650739,350.840245 183.944516,351.522734 C182.234181,352.205223 180.869202,353.233069 179.294543,353.779883 C177.723995,354.326697 177.107287,353.915558 175.602521,355.214755 C174.097756,356.513952 173.48516,356.855197 171.774825,356.649627 C170.06449,356.444058 169.998708,356.03292 168.765293,357.060766 C167.53599,358.0845 167.396203,358.359962 165.143165,358.290069 C165.143165,358.290069 160.42741,357.878931 158.445724,363.281287 C156.464038,368.683643 155.522531,371.035354 150.514868,368.478074 C139.595037,362.898928 136.207258,361.846415 132.433009,356.789414 C129.22202,352.480686 131.409275,348.689992 132.22744,346.638412 C133.049716,344.586832 136.704735,337.992175 137.181655,336.417516 C137.662687,334.834634 137.991598,333.280531 139.303129,334.152144 Z" id="Taichung"></path>
        </g>
    </g>
</svg>