<?xml version="1.0" encoding="utf-8"?>
<!-- Generator: Adobe Illustrator 21.1.0, SVG Export Plug-In . SVG Version: 6.00 Build 0)  -->
<svg version="1.1" id="圖層_1" xmlns="http://www.w3.org/2000/svg" xmlns:xlink="http://www.w3.org/1999/xlink" x="0px" y="0px"
	 viewBox="0 0 87 41" style="enable-background:new 0 0 87 41;" xml:space="preserve">
<style type="text/css">
	.st0{fill:#ACDCE1;}
</style>
<title>Taichung</title>
<g id="_x2D_page1">
	<g id="tones" transform="translate(-130.000000, -329.000000)">
		<path id="Taichung" class="st0" d="M139.3,334.2c0,0,8.1,5.5,10.5,6.2s5.1,0.4,7.4-0.7c2.3-1.1,4-2,5.3-1.4s1.2,1.8,4.3,2.2
			c3.1,0.3,7.7,1.6,10.2,1.7c2.5,0.1,6.1-0.3,11.6-4s6.4-3.8,7.6-4s0.9-1.8,2-2.9c1.1-1,5.5-2.1,5.5-2.1s0.9-0.6,2.3,1.2
			c1.4,1.8,0.7,3.3,7.1,2.5c6.5-0.8,2.6,0.5,0.8,2.7c-1.8,2.2-7.3,7-5.1,11.8c2.2,4.9,3.3,4.5,1.3,5.4c-2,0.9-9.3,3.3-14.2-2
			s-2.3-3.2-6.6-2.7c0,0-3.6,2.7-5.3,3.4c-1.7,0.7-3.1,1.7-4.6,2.3c-1.6,0.5-2.2,0.1-3.7,1.4s-2.1,1.6-3.8,1.4
			c-1.7-0.2-1.8-0.6-3,0.4c-1.2,1-1.4,1.3-3.6,1.2c0,0-4.7-0.4-6.7,5c-2,5.4-2.9,7.8-7.9,5.2c-10.9-5.6-14.3-6.6-18.1-11.7
			c-3.2-4.3-1-8.1-0.2-10.2c0.8-2.1,4.5-8.6,5-10.2C137.7,334.8,138,333.3,139.3,334.2z"/>
	</g>
</g>
</svg>
