<?xml version="1.0" encoding="UTF-8"?>
<svg width="55px" height="49px" viewBox="0 0 55 49" version="1.1" xmlns="http://www.w3.org/2000/svg" xmlns:xlink="http://www.w3.org/1999/xlink">
    <title>Tainan</title>
    <g id="-page1" stroke="none" stroke-width="1" fill="none" fill-rule="evenodd">
        <g id="tones" transform="translate(-94.000000, -427.000000)" fill="#8BCDC5" fill-rule="nonzero">
            <path d="M119.075128,475.271225 C116.213606,475.065656 113.33975,474.872421 110.716689,473.511553 C109.610727,472.940071 108.619884,473.075747 107.859278,474.029588 C107.238459,474.81075 106.880769,474.638072 106.296953,473.980251 C103.554661,470.888492 100.763032,467.846069 97.9960722,464.783089 C97.3999218,464.125268 97.0093405,463.348217 96.746212,462.497161 C96.3844104,461.300748 96.100725,460.063222 95.5826909,458.940815 C93.8271307,455.137787 93.9011356,451.392317 95.3730104,447.498839 C96.1870641,445.352697 96.5570885,443.033878 97.0751226,440.78084 C97.5767112,438.593585 98.3989877,438.071439 100.545129,438.741595 C101.49897,439.041726 102.419919,439.436418 103.357315,439.777663 C105.079984,440.398482 106.551858,440.03668 107.752382,438.63881 C108.253971,438.054994 108.809007,437.483512 109.639506,437.586296 C111.127827,437.77542 111.691086,436.977812 112.168006,435.707395 C113.952346,430.96286 117.537472,428.533033 122.672588,428.43436 C124.049901,428.409691 125.394323,428.278127 126.734633,427.850543 C128.588867,427.262616 130.319759,427.570851 131.725851,429.067512 C132.671469,430.07069 133.633533,431.05331 134.60793,432.027708 C135.623442,433.039108 136.737626,433.9395 135.713892,435.653947 C135.339756,436.278877 135.763229,437.117599 136.104473,437.791865 C137.230992,440.024346 138.394513,442.240381 139.51692,444.476973 C140.121294,445.685719 140.980572,446.129748 142.267435,445.578823 C144.014772,444.82644 145.782667,444.995007 147.604009,445.33214 C148.76753,445.545932 148.709971,445.977627 148.286499,446.841017 C147.094198,449.266733 145.766221,451.564996 143.776312,453.472677 C140.34742,456.761783 136.828077,459.993329 134.908061,464.519961 C134.451698,465.593031 133.469077,466.205627 132.326113,466.542761 C131.047473,466.921008 130.003182,467.685725 129.805836,469.050704 C129.575598,470.637697 128.654649,471.587427 127.450014,472.471374 C124.954405,474.313273 122.224447,475.386344 119.075128,475.271225 Z" id="Tainan"></path>
        </g>
    </g>
</svg>