<?xml version="1.0" encoding="utf-8"?>
<!-- Generator: Adobe Illustrator 21.1.0, SVG Export Plug-In . SVG Version: 6.00 Build 0)  -->
<svg version="1.1" id="圖層_1" xmlns="http://www.w3.org/2000/svg" xmlns:xlink="http://www.w3.org/1999/xlink" x="0px" y="0px"
	 viewBox="0 0 55 49" style="enable-background:new 0 0 55 49;" xml:space="preserve">
<style type="text/css">
	.st0{fill:#F27E20;}
</style>
<title>Tainan</title>
<g id="_x2D_page1">
	<g id="tones" transform="translate(-94.000000, -427.000000)">
		<path id="Tainan" class="st0" d="M119.1,475.3c-2.9-0.2-5.7-0.4-8.4-1.8c-1.1-0.6-2.1-0.4-2.9,0.5c-0.6,0.8-1,0.6-1.6,0
			c-2.7-3.1-5.5-6.1-8.3-9.2c-0.6-0.7-1-1.4-1.2-2.3c-0.4-1.2-0.6-2.4-1.2-3.6c-1.8-3.8-1.7-7.5-0.2-11.4c0.8-2.1,1.2-4.5,1.7-6.7
			c0.5-2.2,1.3-2.7,3.5-2c1,0.3,1.9,0.7,2.8,1c1.7,0.6,3.2,0.3,4.4-1.1c0.5-0.6,1.1-1.2,1.9-1.1c1.5,0.2,2.1-0.6,2.5-1.9
			c1.8-4.7,5.4-7.2,10.5-7.3c1.4,0,2.7-0.2,4.1-0.6c1.9-0.6,3.6-0.3,5,1.2c0.9,1,1.9,2,2.9,3c1,1,2.1,1.9,1.1,3.6
			c-0.4,0.6,0,1.5,0.4,2.1c1.1,2.2,2.3,4.4,3.4,6.7c0.6,1.2,1.5,1.7,2.8,1.1c1.7-0.8,3.5-0.6,5.3-0.2c1.2,0.2,1.1,0.6,0.7,1.5
			c-1.2,2.4-2.5,4.7-4.5,6.6c-3.4,3.3-6.9,6.5-8.9,11c-0.5,1.1-1.4,1.7-2.6,2c-1.3,0.4-2.3,1.1-2.5,2.5c-0.2,1.6-1.2,2.5-2.4,3.4
			C125,474.3,122.2,475.4,119.1,475.3z"/>
	</g>
</g>
</svg>
