<?xml version="1.0" encoding="utf-8"?>
<!-- Generator: Adobe Illustrator 21.1.0, SVG Export Plug-In . SVG Version: 6.00 Build 0)  -->
<svg version="1.1" id="圖層_1" xmlns="http://www.w3.org/2000/svg" xmlns:xlink="http://www.w3.org/1999/xlink" x="0px" y="0px"
	 viewBox="0 0 17 23" style="enable-background:new 0 0 17 23;" xml:space="preserve">
<style type="text/css">
	.st0{fill:#F27E20;}
</style>
<title>Taipei</title>
<g id="_x2D_page1">
	<g id="tones" transform="translate(-216.000000, -256.000000)">
		<path id="Taipei" class="st0" d="M222.7,257.7c-0.2,0.1-0.4,0.2-0.5,0.3c-0.8,0.5-1.7,1-2.5,1.6c-1,0.7-2.8,1.5-2.9,2.9
			c-0.1,1.1,1.3,1.9,2.1,2.4c0.8,0.5,1.6,1.2,1.9,2.1c0.2,0.8,0,1.5-0.3,2.3c-0.3,0.7-0.7,1.4-0.4,2.1c0.2,0.5,0.8,0.8,1.2,1.1
			c1.2,0.8,1.8,1.1,2.8,2.1c0.9,0.9,2.7,3.1,4,3.4c1.2,0.2-0.4-2.3-0.2-3.4c0.3-1.8,3.8-0.8,4.3-2.5c0.1-0.5-1.1-0.9-1.6-2.4
			s-0.7-2.5-1-4c-0.4-2.4-1.2-5-2.7-7.2c-0.5-0.8-1.2-1.9-2.3-1.7C224,257,223.3,257.4,222.7,257.7z"/>
	</g>
</g>
</svg>
