<?xml version="1.0" encoding="UTF-8"?>
<svg width="17px" height="23px" viewBox="0 0 17 23" version="1.1" xmlns="http://www.w3.org/2000/svg" xmlns:xlink="http://www.w3.org/1999/xlink">
    <title>Taipei</title>
    <g id="-page1" stroke="none" stroke-width="1" fill="none" fill-rule="evenodd">
        <g id="tones" transform="translate(-216.000000, -256.000000)" fill="#74CAE5" fill-rule="nonzero">
            <path d="M222.710738,257.717439 C222.525726,257.828446 222.348936,257.935342 222.176258,258.038127 C221.333425,258.527381 220.498814,259.033081 219.697095,259.596341 C218.689806,260.299387 216.884909,261.088772 216.79857,262.515422 C216.732788,263.629607 218.085433,264.390212 218.87893,264.916469 C219.672427,265.442726 220.498814,266.067656 220.749609,266.988606 C220.959289,267.769768 220.708495,268.538597 220.42481,269.2622 C220.165792,269.91591 219.766988,270.697073 220.054785,271.40423 C220.268577,271.926376 220.811279,272.214173 221.2882,272.514303 C222.533949,273.303689 223.049312,273.628608 224.089492,274.656454 C225.018664,275.577404 226.756338,277.76865 228.10076,278.031778 C229.330063,278.270238 227.690318,275.750082 227.862996,274.656454 C228.14257,272.868003 231.694429,273.81175 232.14257,272.11786 C232.286468,271.571047 230.999923,271.188207 230.572339,269.728666 C230.144755,268.269126 229.876877,267.227066 229.601414,265.730523 C229.165608,263.354144 228.417336,260.743416 226.945462,258.531493 C226.419205,257.737996 225.724381,256.673148 224.643088,256.862272 C223.981155,256.973279 223.323334,257.351526 222.710738,257.717439 Z" id="Taipei"></path>
        </g>
    </g>
</svg>