<?xml version="1.0" encoding="UTF-8"?>
<svg width="68px" height="117px" viewBox="0 0 68 117" version="1.1" xmlns="http://www.w3.org/2000/svg" xmlns:xlink="http://www.w3.org/1999/xlink">
    <title>Taitung</title>
    <g id="-page1" stroke="none" stroke-width="1" fill="none" fill-rule="evenodd">
        <g id="tones" transform="translate(-162.000000, -417.000000)" fill="#95D3E2" fill-rule="nonzero">
            <path d="M174.369107,520.50054 C174.681572,525.002503 171.692597,521.729843 172.111958,533.615849 C172.120181,533.907757 171.844718,534.031098 171.556921,533.985873 C168.39938,533.463728 169.266882,531.860289 168.263704,531.50671 C166.475253,530.877668 167.318086,529.730593 165.710536,529.093328 C164.925262,528.780863 166.939839,525.035394 165.96133,523.098933 C163.498612,520.981572 162.409096,514.617152 162.018515,509.161348 C161.919842,507.771701 162.117188,506.398499 162.441987,505.070523 C162.972356,502.887379 166.154565,497.892049 166.849389,495.754131 C167.790895,492.859718 168.173254,489.899523 170.981328,489.110137 C173.357707,488.444093 175.232497,487.190122 175.660081,484.546503 C176.124667,481.68087 175.824536,479.119479 173.135692,477.228243 C170.027487,475.040988 172.222965,472.463151 172.650549,468.898583 C173.526273,461.5721 174.809025,454.253839 175.433955,446.894465 C175.968434,440.591717 179.919473,437.286165 185.161485,434.478091 C186.349674,433.840827 187.344629,434.083399 188.314915,434.658992 C191.057207,436.278877 192.179614,438.737483 195.193257,439.859891 C199.382756,441.418104 198.704378,447.934645 202.490961,450.265799 C203.284457,450.755053 204.131402,451.207305 205.011238,451.490991 C207.453399,452.268042 208.982833,451.721228 209.77633,449.295513 C212.243159,441.759349 220.885284,429.65544 222.184481,421.782143 C222.225595,421.53546 222.287266,421.264109 222.229706,421.033872 C221.777454,419.294757 222.694292,418.517706 224.162056,417.880442 C225.679156,417.222621 227.142808,416.285225 228.684576,417.596756 C230.255124,418.941178 228.429671,421.41623 227.965084,423.500701 C226.953684,428.01911 225.148788,430.69562 223.528903,435.024905 C222.126922,438.766263 221.724006,442.524066 222.410607,446.446325 C222.792966,448.621246 222.279043,450.672826 221.131967,452.55995 C218.048431,457.641618 209.681768,461.802337 206.647568,466.916896 C205.681393,468.540892 207.510958,470.530801 205.648502,470.904937 C203.17345,471.402414 202.774646,471.945117 202.774646,474.494174 C202.774646,476.368964 202.026374,477.84495 200.854631,479.238709 C197.113273,483.695447 193.811833,485.8457 189.955356,490.216099 C185.679519,495.063419 182.493198,495.392329 181.654476,501.719746 C181.284452,504.52782 179.685124,506.143593 178.262586,508.676205 C177.140178,512.91504 175.877984,512.121543 175.734086,515.513433 C175.668304,517.125095 174.369107,518.613415 174.369107,520.50054 Z" id="Taitung"></path>
        </g>
    </g>
</svg>