<?xml version="1.0" encoding="utf-8"?>
<!-- Generator: Adobe Illustrator 21.1.0, SVG Export Plug-In . SVG Version: 6.00 Build 0)  -->
<svg version="1.1" id="圖層_1" xmlns="http://www.w3.org/2000/svg" xmlns:xlink="http://www.w3.org/1999/xlink" x="0px" y="0px"
	 viewBox="0 0 68 117" style="enable-background:new 0 0 68 117;" xml:space="preserve">
<style type="text/css">
	.st0{fill:#F27E20;}
</style>
<title>Taitung</title>
<g id="_x2D_page1">
	<g id="tones" transform="translate(-162.000000, -417.000000)">
		<path id="Taitung" class="st0" d="M174.4,520.5c0.3,4.5-2.7,1.2-2.3,13.1c0,0.3-0.3,0.4-0.6,0.4c-3.2-0.5-2.3-2.1-3.3-2.5
			c-1.8-0.6-0.9-1.8-2.6-2.4c-0.8-0.3,1.2-4.1,0.3-6c-2.5-2.1-3.6-8.5-3.9-13.9c-0.1-1.4,0.1-2.8,0.4-4.1c0.5-2.2,3.7-7.2,4.4-9.3
			c0.9-2.9,1.3-5.9,4.1-6.6c2.4-0.7,4.3-1.9,4.7-4.6c0.5-2.9,0.2-5.4-2.5-7.3c-3.1-2.2-0.9-4.8-0.5-8.3c0.9-7.3,2.2-14.6,2.8-22
			c0.5-6.3,4.5-9.6,9.7-12.4c1.2-0.6,2.2-0.4,3.2,0.2c2.7,1.6,3.9,4.1,6.9,5.2c4.2,1.6,3.5,8.1,7.3,10.4c0.8,0.5,1.6,0.9,2.5,1.2
			c2.4,0.8,4,0.2,4.8-2.2c2.5-7.5,11.1-19.6,12.4-27.5c0-0.2,0.1-0.5,0-0.7c-0.5-1.7,0.5-2.5,1.9-3.2c1.5-0.7,3-1.6,4.5-0.3
			c1.6,1.3-0.3,3.8-0.7,5.9c-1,4.5-2.8,7.2-4.4,11.5c-1.4,3.7-1.8,7.5-1.1,11.4c0.4,2.2-0.1,4.2-1.3,6.1
			c-3.1,5.1-11.5,9.2-14.5,14.4c-1,1.6,0.9,3.6-1,4c-2.5,0.5-2.9,1-2.9,3.6c0,1.9-0.7,3.4-1.9,4.7c-3.7,4.5-7,6.6-10.9,11
			c-4.3,4.8-7.5,5.2-8.3,11.5c-0.4,2.8-2,4.4-3.4,7c-1.1,4.2-2.4,3.4-2.5,6.8C175.7,517.1,174.4,518.6,174.4,520.5z"/>
	</g>
</g>
</svg>
