<svg id="Layer_2" data-name="Layer 2" xmlns="http://www.w3.org/2000/svg" viewBox="0 0 56 56"><defs><style>.cls-1{fill:#4fb4a2;}</style></defs><title>icon_0316</title><path class="cls-1" d="M41.33,24c-1.79-1-3.32-2.53-5.15-3.45C33.26,19.08,31,19.62,29,22.16c-.33.41-.44.27-.65-.05a5.42,5.42,0,0,0-2-1.76c-2-1.07-3.92-.57-5.78.47-2.07,1.16-3.75,2.62-5.86,3.71a9.22,9.22,0,0,1-5.09,1.32A26.61,26.61,0,0,0,22.3,36.62,13.81,13.81,0,0,0,30.57,38a22.29,22.29,0,0,0,10.78-5.5A37.44,37.44,0,0,0,47.1,26,12.3,12.3,0,0,1,41.33,24ZM29,32.23c-5.49,0-14.08-4.65-13.9-4.61,2.72.69,6.1-.09,8.88-.94a2,2,0,0,1,1.6.12c2.59,1.41,4,1.48,6.7-.07a2.13,2.13,0,0,1,1.6-.21c2.57.66,5.71,1.58,8.21,1.11C42.24,27.56,34.42,32.23,29,32.23Z"/></svg>