<?xml version="1.0" encoding="UTF-8"?>
<svg width="43px" height="48px" viewBox="0 0 43 48" version="1.1" xmlns="http://www.w3.org/2000/svg" xmlns:xlink="http://www.w3.org/1999/xlink">
    <title>Taoyuan</title>
    <g id="-page1" stroke="none" stroke-width="1" fill="none" fill-rule="evenodd">
        <g id="tones" transform="translate(-173.000000, -265.000000)" fill="#74CAE5" fill-rule="nonzero">
            <path d="M173.822293,279.030844 C173.822293,279.030844 172.181852,280.124472 173.822293,280.490385 C175.462734,280.856298 182.209513,282.130826 185.852197,286.505337 C189.494882,290.879847 192.039827,293.548134 196.878924,294.617094 C200.254369,295.365365 203.169339,295.43937 202.984326,300.632046 C202.984326,300.632046 201.948258,304.994222 203.416022,305.985065 C204.883785,306.975908 210.047681,310.976283 211.038524,311.658773 C212.029367,312.341262 212.440505,312.411156 212.884535,311.317528 C213.328564,310.2239 215.482928,307.592616 215.450037,306.531879 C215.417146,305.471143 216.338096,305.812387 214.664763,301.816124 C212.991431,297.815749 211.930694,294.913113 211.930694,293.47413 C211.930694,292.035146 211.655231,291.286874 209.467976,291.595228 C207.280721,291.903582 205.911631,291.903582 203.761378,287.837425 C201.611125,283.771268 198.840053,280.996085 200.891633,279.478985 C202.943213,277.961885 207.967322,274.405539 207.420508,271.844148 C206.873694,269.278646 202.437513,265.635961 198.568702,265.385167 C191.768476,264.937026 183.83762,270.873862 173.822293,279.030844 Z" id="Taoyuan"></path>
        </g>
    </g>
</svg>