<?xml version="1.0" encoding="utf-8"?>
<!-- Generator: Adobe Illustrator 21.1.0, SVG Export Plug-In . SVG Version: 6.00 Build 0)  -->
<svg version="1.1" id="圖層_1" xmlns="http://www.w3.org/2000/svg" xmlns:xlink="http://www.w3.org/1999/xlink" x="0px" y="0px"
	 viewBox="0 0 43 48" style="enable-background:new 0 0 43 48;" xml:space="preserve">
<style type="text/css">
	.st0{fill:#F27E20;}
</style>
<title>Taoyuan</title>
<g id="_x2D_page1">
	<g id="tones" transform="translate(-173.000000, -265.000000)">
		<path id="Taoyuan" class="st0" d="M173.8,279c0,0-1.6,1.1,0,1.5s8.4,1.6,12,6s6.2,7,11,8.1c3.4,0.7,6.3,0.8,6.1,6
			c0,0-1,4.4,0.4,5.4c1.5,1,6.6,5,7.6,5.7c1,0.7,1.4,0.8,1.8-0.3s2.6-3.7,2.6-4.8c0-1.1,0.9-0.7-0.8-4.7c-1.7-4-2.7-6.9-2.7-8.3
			c0-1.4-0.3-2.2-2.5-1.9c-2.2,0.3-3.6,0.3-5.7-3.8s-4.9-6.8-2.9-8.4c2.1-1.5,7.1-5.1,6.5-7.6c-0.5-2.6-5-6.2-8.9-6.5
			C191.8,264.9,183.8,270.9,173.8,279z"/>
	</g>
</g>
</svg>
