<svg id="Layer_2" data-name="Layer 2" xmlns="http://www.w3.org/2000/svg" viewBox="0 0 56 56"><defs><style>.cls-1{fill:#4fb4a2;}.cls-2{fill:#fff;}</style></defs><title>icon_0316</title><circle class="cls-1" cx="28" cy="28" r="18.44"/><path class="cls-2" d="M28,44.41A16.41,16.41,0,1,1,44.41,28,16.43,16.43,0,0,1,28,44.41Zm0-31.64A15.23,15.23,0,1,0,43.23,28,15.24,15.24,0,0,0,28,12.77Z"/><path class="cls-2" d="M26.11,24.31H23.59V32.6a1.53,1.53,0,0,1-.32,1.06,1.07,1.07,0,0,1-.82.35,1.09,1.09,0,0,1-.84-.35,1.49,1.49,0,0,1-.32-1.06V24.31H18.76a1.32,1.32,0,0,1-.88-.26.88.88,0,0,1-.28-.69.87.87,0,0,1,.3-.7,1.3,1.3,0,0,1,.86-.26h7.35a1.26,1.26,0,0,1,.89.27.87.87,0,0,1,.3.69.86.86,0,0,1-.3.69A1.33,1.33,0,0,1,26.11,24.31Z"/><path class="cls-2" d="M31,23.61v4l4.54-4.73a3.91,3.91,0,0,1,.56-.51,1,1,0,0,1,.61-.16,1.12,1.12,0,0,1,.8.29.92.92,0,0,1,.31.71,1.43,1.43,0,0,1-.52,1l-2.81,2.66,3.24,4.64a5.23,5.23,0,0,1,.51.84,1.57,1.57,0,0,1,.17.71.88.88,0,0,1-.3.66,1.13,1.13,0,0,1-.81.28,1.39,1.39,0,0,1-.79-.21,1.69,1.69,0,0,1-.51-.55c-.14-.22-.26-.43-.37-.62l-2.74-4.2L31,30.24V32.6a1.53,1.53,0,0,1-.32,1.06,1.12,1.12,0,0,1-.84.35,1.17,1.17,0,0,1-1-.58,1.27,1.27,0,0,1-.14-.5c0-.19,0-.47,0-.84V23.61A1.51,1.51,0,0,1,29,22.56a1.06,1.06,0,0,1,.84-.35,1.11,1.11,0,0,1,.84.34A1.51,1.51,0,0,1,31,23.61Z"/></svg>