<?xml version="1.0" encoding="UTF-8"?>
<svg width="266px" height="266px" viewBox="0 0 266 266" version="1.1" xmlns="http://www.w3.org/2000/svg" xmlns:xlink="http://www.w3.org/1999/xlink">
    <title>Group 5530</title>
    <g id="-page1" stroke="none" stroke-width="1" fill="none" fill-rule="evenodd">
        <g id="TK-points3" transform="translate(-47.000000, -348.000000)" fill="#FFFFFF" stroke="#FFFFFF">
            <g id="Group-5530" transform="translate(48.000000, 349.000000)">
                <path d="M262.714174,1.14286046 L228.642522,1.14286046 C228.288,1.14286046 228,0.887020466 228,0.571428828 C228,0.255837189 228.288,0 228.642522,0 L263.357478,0 C263.445913,0 263.530435,0.015991147 263.60713,0.0449069719 C263.646261,0.0595960843 263.683826,0.0776208487 263.718261,0.0985794565 C263.751913,0.118878586 263.783217,0.141930411 263.811391,0.167369019 C263.928,0.270777014 264,0.413634052 264,0.571430219 C264,0.571853871 264,0.572277523 264,0.572701871 L264,31.4285913 C264,31.7441391 263.712,32 263.357478,32 C263.002174,32 262.714174,31.7441391 262.714174,31.4285913 L262.714174,1.14286046 Z" id="Path"></path>
                <path d="M0.645606028,0 C0.644697419,0 0.64378881,0 0.642879419,0 C0.581159767,0 0.521471767,0.00773138372 0.464974463,0.0221639403 C0.196459071,0.0907484968 0,0.310697714 0,0.571433715 C0,0.573057367 0,0.574679628 0,0.576300497 L0,31.4285913 C0,31.7441391 0.287836463,32 0.642876288,32 C0.997912201,32 1.2857322,31.7441391 1.2857322,31.4285913 L1.2857322,1.14285911 L35.3571652,1.14286606 C35.7121565,1.14286606 36,0.887026063 36,0.571435106 C36,0.255844149 35.7121565,0 35.3571652,0 L0.645606028,0 Z" id="Path"></path>
                <path d="M0,263.427478 L0,232.57113 C0,232.256 0.287815304,232 0.64285513,232 C0.997896522,232 1.2857087,232.256 1.2857087,232.57113 L1.28571652,262.857043 L35.3571652,262.857043 C35.7121565,262.857043 36,263.113043 36,263.42887 C36,263.744 35.7121565,264 35.3571652,264 L0.642858261,264 C0.376578,264 0.148111043,263.856 0.0505204435,263.650783 C0.0179901391,263.582609 0,263.507478 0,263.42887 C0,263.428174 0,263.427478 0,263.427478 Z" id="Path"></path>
                <path d="M264,263.424696 L264,232.57113 C264,232.256 263.712,232 263.357478,232 C263.002174,232 262.714174,232.256 262.714174,232.57113 L262.714174,262.857043 L228.642522,262.857043 C228.288,262.857043 228,263.113043 228,263.42887 C228,263.744 228.288,264 228.642522,264 L263.357478,264 C263.490522,264 263.614174,263.963826 263.716696,263.902609 C263.887304,263.799652 264,263.625739 264,263.42887 L264,263.424696 Z" id="Path"></path>
            </g>
        </g>
    </g>
</svg>