<svg id="Layer_2" data-name="Layer 2" xmlns="http://www.w3.org/2000/svg" viewBox="0 0 56 56"><defs><style>.cls-1{fill:#4fb4a2;}</style></defs><title>icon_0316</title><path class="cls-1" d="M21.45,39.89h0A1.5,1.5,0,0,0,23,38.4V18.1a1.51,1.51,0,0,0-1.5-1.5h0A1.51,1.51,0,0,0,20,18.1V38.36A1.51,1.51,0,0,0,21.45,39.89Z"/><path class="cls-1" d="M28.29,42.57h0a1.5,1.5,0,0,0,1.49-1.5V15.46A1.49,1.49,0,0,0,28.29,14h0a1.5,1.5,0,0,0-1.5,1.49V41.07A1.51,1.51,0,0,0,28.29,42.57Z"/><path class="cls-1" d="M35.13,36.15h0a1.49,1.49,0,0,0,1.49-1.49V21.84a1.5,1.5,0,0,0-1.49-1.5h0a1.51,1.51,0,0,0-1.5,1.5V34.66A1.45,1.45,0,0,0,35.13,36.15Z"/><path class="cls-1" d="M42,33.48h0A1.5,1.5,0,0,0,43.5,32V24.51A1.51,1.51,0,0,0,42,23h0a1.51,1.51,0,0,0-1.5,1.5V32A1.46,1.46,0,0,0,42,33.48Z"/><path class="cls-1" d="M14.58,33.48h0A1.5,1.5,0,0,0,16.07,32V24.51A1.51,1.51,0,0,0,14.58,23h0a1.51,1.51,0,0,0-1.5,1.5V32A1.5,1.5,0,0,0,14.58,33.48Z"/></svg>