<svg id="Layer_2" data-name="Layer 2" xmlns="http://www.w3.org/2000/svg" viewBox="0 0 56 56"><defs><style>.cls-1{fill:#4fb4a2;}.cls-2{fill:#fff;}</style></defs><title>icon_0316</title><path class="cls-1" d="M19.73,21.11a11.3,11.3,0,0,0,0,22.6H31V32.41A11.29,11.29,0,0,0,19.73,21.11Z"/><path class="cls-2" d="M14.51,31A42.06,42.06,0,0,0,18,26.75l1.2,0C17.94,28.51,17,29.65,16.06,31c2.59-.11,5.23-.3,7.55-.52a10.8,10.8,0,0,0-1-1.31L23.66,29a20.56,20.56,0,0,1,2.06,2.89l-.75.67c-.33-.57-.45-.72-.77-1.23-2.84.25-6,.44-9.5.58Zm10.13,7.08h-1v-.54l-7,0v.57h-1V33.13h9Zm-1-1.39V34.06h-7v2.62Z"/><path class="cls-1" d="M36.27,12.29a11.29,11.29,0,0,0-11,8.85,11.31,11.31,0,0,1,7,10.43v3.32h4.07a11.3,11.3,0,0,0,0-22.6Z"/><circle class="cls-2" cx="33.03" cy="23.59" r="0.97"/><circle class="cls-2" cx="37.81" cy="23.59" r="0.97"/><circle class="cls-2" cx="42.74" cy="23.59" r="0.97"/></svg>