<?xml version="1.0" encoding="UTF-8"?>
<svg width="328px" height="556px" viewBox="0 0 328 556" version="1.1" xmlns="http://www.w3.org/2000/svg" xmlns:xlink="http://www.w3.org/1999/xlink">
    <title>Combined Shape</title>
    <g id="-page1" stroke="none" stroke-width="1" fill="none" fill-rule="evenodd">
        <g id="TK-points3" transform="translate(-16.000000, -166.000000)" fill="#FFFFFF">
            <path d="M312,166 C329.673112,166 344,180.326888 344,198 L344,240 L344,240 L344,690 C344,707.673112 329.673112,722 312,722 L48,722 C30.326888,722 16,707.673112 16,690 L16,272 C16,254.326888 30.326888,240 48,240 L52.9014085,240 C67.8675473,240 80,227.867547 80,212.901408 L80,209 C80,185.251756 99.2517558,166 123,166 L312,166 Z M313,256 L47,256 C38.7157288,256 32,262.715729 32,271 L32,271 L32,691 C32,699.284271 38.7157288,706 47,706 L47,706 L313,706 C321.284271,706 328,699.284271 328,691 L328,691 L328,271 C328,262.715729 321.284271,256 313,256 L313,256 Z" id="Combined-Shape"></path>
        </g>
    </g>
</svg>