<?xml version="1.0" encoding="UTF-8"?>
<svg width="54px" height="60px" viewBox="0 0 54 60" version="1.1" xmlns="http://www.w3.org/2000/svg" xmlns:xlink="http://www.w3.org/1999/xlink">
    <title>Yilan</title>
    <g id="-page1" stroke="none" stroke-width="1" fill="none" fill-rule="evenodd">
        <g id="tones" transform="translate(-206.000000, -276.000000)" fill="#74CAE5" fill-rule="nonzero">
            <path d="M259.121138,276.917594 C259.121138,276.917594 251.527415,288.556917 251.617866,293.704367 C251.708316,298.855929 251.938554,302.819301 253.484433,304.640643 C255.030313,306.461986 257.813719,309.607193 257.813719,309.607193 C257.813719,309.607193 259.36371,310.380133 257.266905,315.66737 C255.1701,320.954608 249.656737,332.803611 249.656737,332.803611 C249.656737,332.803611 248.74401,334.785297 246.69243,334.398827 C244.64085,334.012357 238.420329,333.124299 238.420329,333.124299 C238.420329,333.124299 237.326701,332.692604 235.390241,334.102808 C233.45378,335.517123 232.314927,336.997221 226.275306,334.809966 C220.235686,332.62271 218.685695,331.002826 214.200177,331.348182 C209.710548,331.689427 209.504979,331.779877 208.662145,330.916487 C207.819312,330.048985 205.99797,327.750722 206.886028,326.4063 C207.774087,325.061879 213.447794,318.615231 213.994608,316.518426 C214.541422,314.421622 214.426303,307.769405 217.365941,306.285196 C220.305579,304.800987 228.326886,301.680448 228.894257,300.336026 C229.465739,298.991604 229.26017,295.755947 229.942659,295.254358 C230.625149,294.752769 245.689253,283.610924 248.558997,282.562521 C251.428742,281.514119 253.661223,277.20539 257.649263,276.477676 C259.659729,276.115874 259.121138,276.917594 259.121138,276.917594 Z" id="Yilan"></path>
        </g>
    </g>
</svg>