<?xml version="1.0" encoding="utf-8"?>
<!-- Generator: Adobe Illustrator 21.1.0, SVG Export Plug-In . SVG Version: 6.00 Build 0)  -->
<svg version="1.1" id="圖層_1" xmlns="http://www.w3.org/2000/svg" xmlns:xlink="http://www.w3.org/1999/xlink" x="0px" y="0px"
	 viewBox="0 0 54 60" style="enable-background:new 0 0 54 60;" xml:space="preserve">
<style type="text/css">
	.st0{fill:#F27E20;}
</style>
<title>Yilan</title>
<g id="_x2D_page1">
	<g id="tones" transform="translate(-206.000000, -276.000000)">
		<path id="Yilan" class="st0" d="M259.1,276.9c0,0-7.6,11.6-7.5,16.8c0.1,5.2,0.3,9.1,1.9,10.9c1.5,1.8,4.3,5,4.3,5
			s1.5,0.8-0.5,6.1c-2.1,5.3-7.6,17.1-7.6,17.1s-0.9,2-3,1.6s-8.3-1.3-8.3-1.3s-1.1-0.4-3,1c-1.9,1.4-3.1,2.9-9.1,0.7
			c-6-2.2-7.6-3.8-12.1-3.5c-4.5,0.3-4.7,0.4-5.5-0.4c-0.8-0.9-2.7-3.2-1.8-4.5s6.6-7.8,7.1-9.9s0.4-8.7,3.4-10.2
			c2.9-1.5,11-4.6,11.5-5.9c0.6-1.3,0.4-4.6,1-5.1c0.7-0.5,15.7-11.6,18.6-12.7c2.9-1,5.1-5.4,9.1-6.1
			C259.7,276.1,259.1,276.9,259.1,276.9z"/>
	</g>
</g>
</svg>
