<?xml version="1.0" encoding="utf-8"?>
<!-- Generator: Adobe Illustrator 21.1.0, SVG Export Plug-In . SVG Version: 6.00 Build 0)  -->
<svg version="1.1" id="圖層_1" xmlns="http://www.w3.org/2000/svg" xmlns:xlink="http://www.w3.org/1999/xlink" x="0px" y="0px"
	 viewBox="0 0 58 30" style="enable-background:new 0 0 58 30;" xml:space="preserve">
<style type="text/css">
	.st0{fill:#F27E20;}
</style>
<title>Yunlin</title>
<g id="_x2D_page1">
	<g id="tones" transform="translate(-97.000000, -389.000000)">
		<path id="Yunlin" class="st0" d="M111.4,390.3c0,0,3.8,0.3,5.3,0c1.5-0.3,4.4-0.9,7.9-0.4c3.5,0.5,9,1.3,13.4,1.7
			c4.4,0.3,6.8,0,7.1,1.4c0.6,2.6-0.1,7.2-0.2,8.6s-0.7,4,0.8,4.5c1.4,0.5,7.9-0.1,8.2,0.1c0.4,0.1,0.4,0.5,0.3,1.1
			c-0.1,0.6-0.2,1.2-1.2,1.3c-1,0.1-14.9,0-14.9,0s-0.3,1.1-4.6-2.6c-4.3-3.7-8.7-1.8-10.7-0.5c-1.9,1.2-4.3,3.2-5.8,3.6
			c-1.5,0.4-2.7,1.1-3.7,2.7c-0.9,1.5-1.2,2.2-2.9,2.3c-1.7,0.1-2.8,0.5-3.8,2.1c-1.1,1.6-1.6,3-2.9,2.4c-1.3-0.6-1.6-1.1-4.6-1.1
			c-3-0.1-1.8-0.4-1.4-3.6c0.5-3.1,1.1-8.5,2.6-11.3c1.5-2.8,6.3-12.1,7.5-12.2C109.2,390.2,110.5,390.2,111.4,390.3z"/>
	</g>
</g>
</svg>
