<?xml version="1.0" encoding="UTF-8"?>
<svg width="58px" height="30px" viewBox="0 0 58 30" version="1.1" xmlns="http://www.w3.org/2000/svg" xmlns:xlink="http://www.w3.org/1999/xlink">
    <title>Yunlin</title>
    <g id="-page1" stroke="none" stroke-width="1" fill="none" fill-rule="evenodd">
        <g id="tones" transform="translate(-97.000000, -389.000000)" fill="#ACDCE1" fill-rule="nonzero">
            <path d="M111.411512,390.309513 C111.411512,390.309513 115.206318,390.650758 116.674081,390.309513 C118.141845,389.968268 121.118485,389.454346 124.567935,389.935377 C128.021496,390.412298 133.555416,391.267465 137.99982,391.60871 C142.444225,391.949955 144.767155,391.575819 145.1084,392.9778 C145.741553,395.572082 144.972725,400.156273 144.902831,401.558255 C144.832938,402.960236 144.220342,405.533961 145.659325,406.047884 C147.094198,406.561807 153.516177,405.969768 153.894424,406.105443 C154.26856,406.241119 154.305562,406.582364 154.235668,407.231962 C154.165775,407.88156 154.030099,408.461265 153.072147,408.56405 C152.114195,408.666834 138.168387,408.56405 138.168387,408.56405 C138.168387,408.56405 137.860033,409.690568 133.555416,405.965656 C129.246688,402.240744 124.839286,404.189539 122.890491,405.418842 C120.941696,406.648146 118.618765,408.629832 117.081108,409.04097 C115.543451,409.452108 114.347039,410.167489 113.421978,411.705146 C112.501028,413.242803 112.258457,413.892401 110.552233,413.962294 C108.841898,414.032188 107.785273,414.439215 106.724536,416.046765 C105.6638,417.654316 105.153989,419.019295 103.817789,418.43959 C102.48159,417.859885 102.210239,417.378853 99.2377096,417.313071 C96.2651803,417.247289 97.391699,416.869042 97.8686194,413.756725 C98.3455397,410.644409 98.929356,405.279055 100.434122,402.479204 C101.938888,399.675242 106.724536,390.379407 107.95384,390.276622 C109.187254,390.173837 110.494674,390.23962 111.411512,390.309513 Z" id="Yunlin"></path>
        </g>
    </g>
</svg>