<?xml version="1.0" encoding="utf-8"?>
<!-- Generator: Adobe Illustrator 23.0.2, SVG Export Plug-In . SVG Version: 6.00 Build 0)  -->
<svg version="1.1" id="圖層_1" xmlns="http://www.w3.org/2000/svg" xmlns:xlink="http://www.w3.org/1999/xlink" x="0px" y="0px"
	 viewBox="0 0 64 64" style="enable-background:new 0 0 64 64;" xml:space="preserve">
<style type="text/css">
	.st0{display:none;}
	.st1{display:inline;fill-rule:evenodd;clip-rule:evenodd;fill:#131313;}
	.st2{fill:#E8F4F6;}
	.st3{fill:#B5B7BE;}
	.st4{fill:#FFFFFF;}
	.st5{fill:#D12B28;}
	.st6{fill:#114496;}
</style>
<g id="襯底" class="st0">
	<rect x="0.1" y="0" class="st1" width="64" height="64"/>
</g>
<path class="st2" d="M55,58.9H9.1c-2.2,0-4-1.8-4-4V9c0-2.2,1.8-4,4-4H55c2.2,0,4,1.8,4,4v45.9C59,57.1,57.2,58.9,55,58.9z"/>
<g>
	<path class="st3" d="M42.2,47.3h-0.5V16.7h0.5c0.8,0,1.5-0.7,1.5-1.5c0-0.8-0.7-1.5-1.5-1.5h-0.5c0-2.6-3.1-4.8-7-4.8s-7,2.1-7,4.8
		h-0.5c-0.6,0-1.2,0.4-1.4,1h-2.6c-0.1-0.7-0.7-1.2-1.4-1.2l0,0c-0.8,0-1.4,0.6-1.4,1.4V49c0,0.8,0.6,1.4,1.4,1.4l0,0
		c0.7,0,1.3-0.5,1.4-1.2h2.6c0.2,0.6,0.7,1,1.4,1h0.5c0,2.6,3.1,4.8,7,4.8s7-2.1,7-4.8h0.5c0.8,0,1.5-0.7,1.5-1.5S43,47.3,42.2,47.3
		z M27.2,47.3c-0.6,0-1.2,0.4-1.4,1h-2.5V15.7h2.5c0.2,0.6,0.7,1,1.4,1h0.5v30.6C27.7,47.3,27.2,47.3,27.2,47.3z"/>
	<rect x="28.8" y="16.7" class="st4" width="11.7" height="30.6"/>
	<polygon class="st5" points="33.9,16.7 40.5,16.7 28.8,29 28.8,21.9 	"/>
	<polygon class="st6" points="40.5,23.1 40.5,30.2 28.8,42.3 28.8,35.2 	"/>
	<polygon class="st5" points="40.5,36.6 30.1,47.3 36.9,47.3 40.5,43.6 	"/>
</g>
</svg>
